<svg width="144" height="144" viewBox="0 0 144 144" fill="none" xmlns="http://www.w3.org/2000/svg">
<circle cx="72" cy="72" r="72" fill="black"/>
<path d="M68.9278 130.266C64.1596 130.266 60.2785 129.546 57.2846 128.104C54.4015 126.663 52.9599 124.556 52.9599 121.784C52.9599 119.788 53.847 117.958 55.6212 116.295C57.3954 114.631 59.0033 113.8 60.4449 113.8C61.8864 113.8 63.328 114.132 64.7695 114.798C66.322 115.463 67.7081 116.516 68.9278 117.958C70.3694 120.065 71.5892 121.451 72.5872 122.116C73.5852 122.782 74.6386 123.114 75.7475 123.114C80.0721 123.114 83.4542 119.455 85.8938 112.136C88.4442 104.818 89.7194 95.0594 89.7194 82.8617C89.7194 75.9866 89.165 70.5531 88.0561 66.5611C87.0581 62.5691 85.6165 59.7415 83.7314 58.0781C81.8463 56.4148 79.6286 55.5831 77.0781 55.5831C75.5257 55.5831 74.0287 55.8049 72.5872 56.2485C71.1456 56.5811 69.9258 57.191 68.9278 58.0781C67.819 58.9652 66.9873 60.0741 66.4329 61.4048C65.9893 62.7355 65.7675 64.2879 65.7675 66.0621V74.2124C65.7675 75.8757 66.3774 77.1509 67.5972 78.038C68.817 78.8143 70.8129 79.6459 73.5852 80.533C74.4723 80.8657 75.193 81.2538 75.7475 81.6974C76.4128 82.1409 76.7455 82.8063 76.7455 83.6934C76.7455 84.4696 76.4683 85.024 75.9138 85.3567C75.4703 85.6893 74.8604 85.8557 74.0842 85.8557C71.9773 85.8557 69.7595 85.8002 67.4309 85.6893C65.2131 85.5785 62.9953 85.4676 60.7775 85.3567C58.6707 85.2458 56.6192 85.1904 54.6232 85.1904C52.7381 85.1904 50.7421 85.2458 48.6353 85.3567C46.6393 85.4676 44.5324 85.5785 42.3146 85.6893C40.2077 85.9111 38.0454 86.022 35.8277 86.022C35.1623 86.022 34.5524 85.8557 33.998 85.523C33.4436 85.0795 33.1663 84.525 33.1663 83.8597C33.1663 82.9726 33.4436 82.2518 33.998 81.6974C34.5524 81.1429 35.2732 80.7548 36.1603 80.533C38.8216 79.8677 40.7622 79.1469 41.982 78.3707C43.2017 77.5945 43.8116 76.2638 43.8116 74.3787V28.3046C43.8116 26.1977 43.2017 24.5898 41.982 23.481C40.7622 22.3721 38.7108 21.485 35.8277 20.8196C34.9405 20.5979 34.2198 20.2097 33.6653 19.6553C33.2218 18.99 33 18.2692 33 17.493C33 16.8277 33.2772 16.2732 33.8317 15.8297C34.497 15.3861 35.1623 15.1643 35.8277 15.1643C38.8216 15.1643 41.8711 15.3307 44.9759 15.6633C48.1917 15.8851 51.1857 15.996 53.9579 15.996H81.4028C84.8403 15.996 87.5017 15.6633 89.3868 14.998C91.2719 14.3327 93.0461 14 94.7094 14C94.9312 14 95.2638 14.1663 95.7074 14.499C96.1509 14.8317 96.3727 15.3307 96.3727 15.996C96.3727 17.8811 96.2064 20.1543 95.8737 22.8156C95.6519 25.4769 95.5411 27.7502 95.5411 29.6353C95.5411 31.1877 95.3747 32.7956 95.0421 34.4589C94.8203 36.0113 94.155 36.7876 93.0461 36.7876C92.2699 36.7876 91.66 36.5103 91.2164 35.9559C90.7729 35.4015 90.3293 34.4589 89.8857 33.1282C89.1095 30.356 87.8898 28.0274 86.2264 26.1423C84.674 24.2572 82.6226 23.3146 80.0721 23.3146C79.2959 23.3146 78.187 23.3146 76.7455 23.3146C75.3039 23.3146 73.8624 23.3146 72.4208 23.3146C70.9793 23.3146 69.8704 23.3146 69.0942 23.3146C67.5417 23.3146 66.5992 23.8691 66.2665 24.9779C65.9339 25.9759 65.7675 27.0294 65.7675 28.1383V47.9319C65.7675 48.9298 65.823 49.9278 65.9339 50.9258C66.0447 51.8129 66.2665 52.4228 66.5992 52.7555C67.3754 51.8684 68.817 50.7041 70.9238 49.2625C73.1416 47.821 75.7475 46.6012 78.7415 45.6032C81.8463 44.4943 85.0621 43.9399 88.3888 43.9399C93.7114 43.9399 98.036 45.1596 101.363 47.5992C104.8 49.9278 107.295 53.4208 108.848 58.0781C110.4 62.6246 111.176 68.2244 111.176 74.8777C111.176 81.7528 110.289 88.4616 108.515 95.004C106.741 101.657 104.079 107.645 100.531 112.968C96.9826 118.291 92.5471 122.504 87.2244 125.609C82.0127 128.714 75.9138 130.266 68.9278 130.266Z" fill="#FDF8F2"/>
</svg>
