<svg width="144" height="144" viewBox="0 0 144 144" fill="none" xmlns="http://www.w3.org/2000/svg">
<circle cx="72" cy="72" r="72" fill="black"/>
<path d="M32.7931 103.759C29.3433 103.759 26.682 102.675 24.8092 100.506C22.9364 98.3376 22 95.972 22 93.4092C22 91.2408 22.69 89.368 24.0699 87.7909C25.5484 86.1152 27.4705 85.2774 29.8361 85.2774C30.9204 85.2774 31.906 85.5731 32.7931 86.1645C33.6802 86.6574 34.5674 87.1995 35.4545 87.7909C36.243 88.3823 36.9823 88.9737 37.6722 89.5651C38.3622 90.0579 39.0029 90.3044 39.5943 90.3044C41.0728 90.3044 42.3049 89.023 43.2906 86.4602C44.3748 83.7989 45.2126 80.4476 45.804 76.4064C46.494 72.2665 46.9869 67.9788 47.2826 63.5433C47.5783 59.1078 47.7261 55.0665 47.7261 51.4195C47.7261 48.8567 46.9869 47.1811 45.5083 46.3926C44.1284 45.5055 42.4527 44.8155 40.4814 44.3226C39.3972 44.0269 38.5101 43.682 37.8201 43.2877C37.1301 42.8934 36.7851 42.2034 36.7851 41.2178C36.7851 40.6264 37.1301 40.1335 37.8201 39.7393C38.6086 39.2464 39.2493 39 39.7421 39C42.502 39 45.1634 39.1479 47.7261 39.4436C50.2889 39.6407 52.753 39.7393 55.1187 39.7393H79.2184C82.0769 39.7393 84.5903 39.69 86.7588 39.5914C88.9273 39.3943 91.7365 39.2957 95.1863 39.2957C95.6792 39.2957 96.1227 39.4928 96.517 39.8871C97.0098 40.1828 97.2563 40.6264 97.2563 41.2178C97.2563 41.5135 97.0591 41.9077 96.6649 42.4006C96.3692 42.7948 95.8763 43.0906 95.1863 43.2877C92.6236 43.8791 90.8987 44.6676 90.0116 45.6533C89.1244 46.5404 88.6809 48.0682 88.6809 50.2367V64.5783C88.6809 65.1697 88.878 65.5639 89.2723 65.7611C89.6666 65.9582 90.0608 66.0075 90.4551 65.9089C91.4408 65.4161 92.9686 65.0218 95.0385 64.7261C97.207 64.4304 99.1783 64.2826 100.953 64.2826C103.417 64.2826 105.93 64.5783 108.493 65.1697C111.056 65.7611 113.372 66.7467 115.442 68.1267C117.61 69.4081 119.335 71.133 120.617 73.3015C121.997 75.3714 122.687 77.9834 122.687 81.1376C122.687 86.6574 121.405 90.9451 118.843 94.0006C116.28 97.0562 112.879 99.1754 108.641 100.358C104.501 101.541 99.9669 102.132 95.0385 102.132C92.9686 102.132 91.0465 102.083 89.2723 101.985C87.5966 101.886 85.8717 101.787 84.0975 101.689C82.3233 101.689 80.4505 101.689 78.4792 101.689C77.0006 101.689 75.325 101.689 73.4522 101.689C71.5794 101.787 69.7067 101.886 67.8339 101.985C65.9611 102.083 64.2854 102.132 62.8069 102.132C62.2155 102.132 61.7227 101.985 61.3284 101.689C61.0327 101.295 60.8849 100.9 60.8849 100.506C60.8849 100.013 61.082 99.5697 61.4763 99.1754C61.8705 98.6826 62.4127 98.3869 63.1026 98.2883C65.1726 97.4998 66.7003 96.8591 67.686 96.3663C68.6717 95.7749 69.1645 94.5428 69.1645 92.67V50.2367C69.1645 49.3496 69.0167 48.5118 68.721 47.7232C68.5238 46.8361 67.7353 46.3926 66.3554 46.3926H58.2235C56.9422 46.3926 56.0058 46.9347 55.4144 48.0189C54.9215 49.0046 54.6751 49.9903 54.6751 50.9759C54.6751 55.1158 54.478 59.5513 54.0837 64.2826C53.788 69.0138 53.1473 73.745 52.1616 78.4763C51.2745 83.1089 49.9932 87.3473 48.3175 91.1915C46.6419 94.937 44.5227 97.9926 41.9599 100.358C39.4957 102.625 36.4401 103.759 32.7931 103.759ZM93.2643 96.2184C95.7285 96.2184 97.7984 95.0356 99.474 92.67C101.15 90.3044 101.987 87.2981 101.987 83.6511C101.987 79.6098 101.15 76.4556 99.474 74.1886C97.897 71.9215 95.6299 70.788 92.6729 70.788C91.2929 70.788 90.3073 71.0344 89.7159 71.5273C89.3216 71.7244 89.0259 72.0694 88.8287 72.5622C88.7302 73.0551 88.6809 73.5972 88.6809 74.1886V90.0087C88.6809 91.6843 89.0752 93.1628 89.8637 94.4442C90.6522 95.627 91.7858 96.2184 93.2643 96.2184Z" fill="#FDF8F2"/>
</svg>
