<svg width="144" height="144" viewBox="0 0 144 144" fill="none" xmlns="http://www.w3.org/2000/svg">
<circle cx="72" cy="72" r="72" fill="black"/>
<path d="M71.4413 115.641C70.4556 115.641 69.6178 115.099 68.9278 114.014C68.3364 113.029 67.9422 111.846 67.745 110.466C67.3508 106.918 66.8579 103.714 66.2665 100.856C65.6751 97.9972 64.7387 95.7302 63.4573 94.0545C62.2745 92.3789 60.5003 91.5411 58.1347 91.5411H51.3335C49.7565 91.5411 48.1301 91.5903 46.4545 91.6889C44.8774 91.7875 43.2017 91.886 41.4275 91.9846C39.7519 92.0832 37.9284 92.1325 35.957 92.1325C35.4642 92.1325 34.8235 91.9846 34.035 91.6889C33.345 91.2946 33 90.7525 33 90.0625C33 89.274 33.345 88.6826 34.035 88.2883C34.8235 87.7955 35.612 87.4012 36.4006 87.1055C37.8791 86.6127 39.1605 86.0706 40.2447 85.4792C41.329 84.7892 41.8711 83.4585 41.8711 81.4872V39.7931C41.8711 37.8218 41.329 36.4911 40.2447 35.8012C39.1605 35.1112 37.8791 34.5691 36.4006 34.1748C35.612 33.8791 34.8235 33.4848 34.035 32.992C33.345 32.4991 33 31.8585 33 31.0699C33 30.3799 33.345 29.8871 34.035 29.5914C34.7249 29.1971 35.3656 29 35.957 29C37.9284 29 39.8012 29.0493 41.5754 29.1479C43.3496 29.2464 45.0745 29.3943 46.7502 29.5914C48.5244 29.69 50.2493 29.7393 51.925 29.7393C53.6992 29.7393 55.3255 29.69 56.804 29.5914C58.2826 29.3943 59.8104 29.2464 61.3874 29.1479C63.0631 29.0493 64.8866 29 66.8579 29C67.4493 29 67.9915 29.1971 68.4843 29.5914C69.0757 29.9857 69.3714 30.4785 69.3714 31.0699C69.3714 31.7599 69.0757 32.4006 68.4843 32.992C67.8929 33.4848 67.2029 33.8791 66.4144 34.1748C65.0344 34.6676 63.8023 35.2098 62.7181 35.8012C61.7324 36.3926 61.2396 37.6739 61.2396 39.6453V79.2694C61.2396 80.9451 61.6339 82.1772 62.4224 82.9657C63.3095 83.7542 64.443 84.1485 65.823 84.1485H77.7989C79.2774 84.1485 80.411 83.7542 81.1995 82.9657C81.988 82.1772 82.3823 80.9451 82.3823 79.2694V39.6453C82.3823 37.6739 81.8895 36.3926 80.9038 35.8012C79.9181 35.1112 78.686 34.5691 77.2075 34.1748C76.419 33.8791 75.729 33.4848 75.1376 32.992C74.5462 32.4991 74.2505 31.8585 74.2505 31.0699C74.2505 30.3799 74.4969 29.8871 74.9897 29.5914C75.5811 29.1971 76.1726 29 76.764 29C78.7353 29 80.5588 29.0493 82.2344 29.1479C83.9101 29.2464 85.5365 29.3943 87.1135 29.5914C88.7892 29.69 90.4648 29.7393 92.1405 29.7393C93.9147 29.7393 95.5903 29.69 97.1674 29.5914C98.7445 29.3943 100.371 29.2464 102.047 29.1479C103.821 29.0493 105.694 29 107.665 29C108.256 29 108.848 29.1971 109.439 29.5914C110.03 29.8871 110.326 30.3799 110.326 31.0699C110.326 31.8585 109.981 32.4991 109.291 32.992C108.7 33.4848 108.01 33.8791 107.221 34.1748C105.743 34.5691 104.461 35.1112 103.377 35.8012C102.391 36.3926 101.899 37.6739 101.899 39.6453V81.635C101.899 83.5078 102.391 84.7892 103.377 85.4792C104.461 86.0706 105.743 86.6127 107.221 87.1055C108.01 87.4012 108.7 87.7955 109.291 88.2883C109.981 88.6826 110.326 89.274 110.326 90.0625C110.326 90.7525 109.981 91.2946 109.291 91.6889C108.7 91.9846 108.158 92.1325 107.665 92.1325C105.694 92.1325 103.87 92.0339 102.194 91.8368C100.519 91.7382 98.9416 91.6396 97.4631 91.5411C95.9846 91.4425 94.4075 91.3932 92.7319 91.3932H84.3044C82.2345 91.3932 80.6081 92.231 79.4253 93.9067C78.341 95.5823 77.5525 97.8001 77.0597 100.56C76.5668 103.418 76.1233 106.72 75.729 110.466C75.4333 112.142 74.8912 113.423 74.1026 114.31C73.3141 115.197 72.427 115.641 71.4413 115.641Z" fill="#FDF8F2"/>
</svg>
