<svg width="144" height="144" viewBox="0 0 144 144" fill="none" xmlns="http://www.w3.org/2000/svg">
<circle cx="72" cy="72" r="72" fill="black"/>
<path d="M53.6493 124.677C51.7272 124.677 49.8791 124.011 48.1049 122.681C46.3307 121.35 45.4436 119.687 45.4436 117.691C45.4436 116.286 45.8132 114.882 46.5524 113.477C47.2917 112.146 48.4375 111.481 49.99 111.481C51.1728 111.481 52.3556 111.666 53.5384 112.035C54.7951 112.479 55.978 112.664 57.0868 112.59C58.1957 112.442 58.9719 112.146 59.4155 111.703C59.859 111.333 60.3765 110.594 60.9679 109.485C61.4854 108.598 61.9659 107.711 62.4095 106.824C62.927 106.01 63.4814 104.939 64.0728 103.608C64.7381 102.351 65.5513 100.688 66.5124 98.6179C67.3995 96.6219 67.843 94.8477 67.843 93.2952C67.843 92.1863 67.6582 91.1883 67.2886 90.3012C66.9929 89.3402 66.6602 88.4161 66.2906 87.529L52.6513 56.5912C51.986 54.8909 51.2467 53.4863 50.4335 52.3774C49.6204 51.2685 48.5115 50.4923 47.1069 50.0488C46.4415 49.753 45.9241 49.4573 45.5544 49.1616C45.1848 48.792 45 48.2745 45 47.6092C45 47.0917 45.3327 46.7591 45.998 46.6112C46.6633 46.4634 47.2547 46.3894 47.7722 46.3894C49.5464 46.3894 51.0249 46.4264 52.2077 46.5003C53.4645 46.5742 54.5734 46.6482 55.5344 46.7221C56.4954 46.796 57.4565 46.833 58.4175 46.833C60.0439 46.833 61.4115 46.796 62.5204 46.7221C63.6293 46.6482 64.8121 46.5742 66.0688 46.5003C67.3255 46.4264 68.804 46.3894 70.5043 46.3894C71.0218 46.3894 71.5763 46.5003 72.1677 46.7221C72.7591 46.9439 73.0548 47.3135 73.0548 47.831C73.0548 48.4963 72.7591 48.9768 72.1677 49.2725C71.6502 49.4943 71.0957 49.753 70.5043 50.0488C69.6912 50.3445 69.0628 50.788 68.6192 51.3794C68.1757 51.9708 67.9539 52.9318 67.9539 54.2625C67.9539 54.8539 68.0278 55.5562 68.1757 56.3694C68.3975 57.1826 68.7301 58.1806 69.1737 59.3634L76.0488 76.1075C76.1227 76.3293 76.2336 76.4402 76.3814 76.4402C76.4553 76.4402 76.5662 76.3293 76.7141 76.1075L82.3694 59.1416C82.5912 58.5502 82.776 57.8479 82.9238 57.0347C83.1456 56.1476 83.2565 55.3714 83.2565 54.7061C83.2565 53.4493 82.8869 52.4513 82.1476 51.7121C81.4084 50.8989 80.6321 50.3445 79.819 50.0488C79.2276 49.827 78.6361 49.5682 78.0447 49.2725C77.5273 48.9768 77.2685 48.4963 77.2685 47.831C77.2685 47.3135 77.5642 46.9439 78.1556 46.7221C78.747 46.5003 79.3015 46.3894 79.819 46.3894C81.815 46.4634 83.3674 46.5742 84.4763 46.7221C85.5852 46.796 86.731 46.833 87.9138 46.833C88.6531 46.833 89.3184 46.833 89.9098 46.833C90.5751 46.7591 91.3514 46.6851 92.2385 46.6112C93.1256 46.5373 94.1975 46.4634 95.4542 46.3894C95.9717 46.3894 96.5261 46.4634 97.1175 46.6112C97.7829 46.7591 98.1155 47.0917 98.1155 47.6092C98.1155 48.2745 97.9307 48.792 97.5611 49.1616C97.2654 49.4573 96.7849 49.753 96.1196 50.0488C94.715 50.4923 93.4582 51.3425 92.3493 52.5992C91.2405 53.782 90.3164 55.2235 89.5771 56.9238L73.0548 96.6219C72.4634 98.1004 71.798 99.6898 71.0588 101.39C70.3195 103.164 69.5433 104.975 68.7301 106.824C67.9909 108.672 67.2146 110.557 66.4015 112.479C65.5883 114.401 64.7751 116.286 63.9619 118.134C63.0748 120.278 61.7072 121.904 59.859 123.013C58.0109 124.122 55.941 124.677 53.6493 124.677ZM80.5952 42.5083C80.2995 42.5083 80.0407 42.3975 79.819 42.1757C79.5972 41.88 79.4863 41.4734 79.4863 40.9559C79.4863 40.4384 79.5602 39.9579 79.7081 39.5144C79.9298 38.9969 80.2255 38.2946 80.5952 37.4075C81.1127 36.2986 81.815 34.7831 82.7021 32.861C83.6631 30.8651 84.6241 28.8691 85.5852 26.8731C86.6201 24.8032 87.3963 23.2138 87.9138 22.1049C88.8748 20.2567 90.2425 19.3327 92.0167 19.3327C94.2344 19.3327 96.0087 19.6284 97.3393 20.2198C98.67 20.7373 99.3353 21.5504 99.3353 22.6593C99.3353 23.1029 99.1875 23.5464 98.8918 23.99C98.5961 24.3596 98.3743 24.6923 98.2264 24.988C96.9697 26.6883 95.4542 28.4994 93.68 30.4215C91.9797 32.2696 90.2425 34.1178 88.4683 35.9659C86.694 37.7401 85.0307 39.4035 83.4783 40.9559C83.1086 41.3255 82.6281 41.6952 82.0367 42.0648C81.5192 42.3605 81.0387 42.5083 80.5952 42.5083ZM64.849 42.5083C64.5533 42.5083 64.2946 42.3975 64.0728 42.1757C63.851 41.88 63.7401 41.4734 63.7401 40.9559C63.7401 40.5863 63.7771 40.1058 63.851 39.5144C63.9989 38.9229 64.2946 38.0728 64.7381 36.9639C65.1817 35.929 65.7731 34.4504 66.5124 32.5284C67.3255 30.6063 68.1387 28.6843 68.9519 26.7622C69.7651 24.8401 70.3934 23.3246 70.837 22.2158C71.7241 20.0719 73.1657 19 75.1616 19C77.4533 19 79.2276 19.2218 80.4843 19.6653C81.741 20.1089 82.3694 20.8851 82.3694 21.994C82.3694 22.3636 82.2585 22.7332 82.0367 23.1029C81.815 23.4725 81.6301 23.8421 81.4823 24.2118C80.3734 25.912 79.0058 27.7602 77.3794 29.7562C75.827 31.6782 74.2006 33.5633 72.5003 35.4115C70.8 37.2596 69.2476 38.9969 67.843 40.6232C67.3995 41.1407 66.882 41.5843 66.2906 41.9539C65.7731 42.3235 65.2926 42.5083 64.849 42.5083Z" fill="#FDF8F2"/>
</svg>
