<svg width="144" height="144" viewBox="0 0 144 144" fill="none" xmlns="http://www.w3.org/2000/svg">
<circle cx="72" cy="72" r="72" fill="black"/>
<path d="M67.6562 120.399C62.7278 120.399 58.4894 119.512 54.941 117.738C51.4911 115.865 48.7805 113.45 46.8092 110.493C44.9364 107.536 44 104.431 44 101.178C44 99.3055 44.345 97.6792 45.035 96.2992C45.7249 94.9193 46.8092 93.8843 48.2877 93.1944C49.8648 92.4058 52.0332 92.0116 54.7931 92.0116H78.4493C79.7307 92.0116 80.6671 91.7158 81.2585 91.1244C81.9485 90.4345 82.2935 89.0052 82.2935 86.8368C82.2935 83.584 81.5542 80.7749 80.0757 78.4092C78.6958 76.0436 76.7244 74.2201 74.1616 72.9387C71.6975 71.6574 68.7404 71.0167 65.2906 71.0167C61.7421 71.0167 58.8344 71.6081 56.5674 72.7909C54.3989 73.9737 52.5754 75.1072 51.0969 76.1915C50.3083 76.5857 49.5691 76.98 48.8791 77.3743C48.1891 77.7686 47.647 77.9657 47.2527 77.9657C46.5628 77.9657 46.0206 77.67 45.6264 77.0786C45.2321 76.4872 45.035 75.7479 45.035 74.8608C45.035 72.0024 46.2178 68.996 48.5834 65.8419C51.0476 62.5892 54.3989 59.8293 58.6373 57.5622C62.9742 55.2952 67.9519 54.1616 73.5702 54.1616C78.2029 54.1616 82.4413 55.4923 86.2854 58.1536C90.2281 60.8149 93.3823 64.4619 95.7479 69.0946C98.1135 73.7273 99.2963 79.0992 99.2963 85.2104C99.2963 91.4201 97.8671 97.1863 95.0087 102.509C92.2488 107.832 88.5032 112.169 83.772 115.52C79.0407 118.773 73.6688 120.399 67.6562 120.399ZM68.839 114.485C70.8104 114.485 72.5846 113.894 74.1616 112.711C75.8373 111.429 77.168 109.803 78.1536 107.832C79.1393 105.762 79.6814 103.495 79.78 101.03C79.78 100.242 79.5829 99.552 79.1886 98.9606C78.8929 98.2706 78.3508 97.9256 77.5622 97.9256H69.874C67.9026 97.9256 66.227 97.9749 64.847 98.0734C63.4671 98.172 62.235 98.4184 61.1507 98.8127C60.855 98.9113 60.5593 99.2563 60.2636 99.8477C59.9679 100.439 59.7215 101.129 59.5244 101.918C59.4258 102.706 59.3765 103.544 59.3765 104.431C59.3765 106.008 59.6722 107.585 60.2636 109.162C60.9536 110.641 61.9886 111.922 63.3685 113.006C64.847 113.992 66.6705 114.485 68.839 114.485ZM86.4333 45.1427C83.5748 45.1427 81.0614 44.1078 78.8929 42.0378C76.823 39.9679 75.788 37.5037 75.788 34.6453C75.788 31.6883 76.823 29.1748 78.8929 27.1049C81.0614 25.035 83.5748 24 86.4333 24C89.4889 24 92.0516 25.035 94.1216 27.1049C96.29 29.1748 97.3743 31.6883 97.3743 34.6453C97.3743 37.5037 96.29 39.9679 94.1216 42.0378C92.0516 44.1078 89.4889 45.1427 86.4333 45.1427ZM57.6023 45.1427C54.7439 45.1427 52.2797 44.1078 50.2098 42.0378C48.1398 39.9679 47.1049 37.5037 47.1049 34.6453C47.1049 31.6883 48.1398 29.1748 50.2098 27.1049C52.2797 25.035 54.7439 24 57.6023 24C60.7565 24 63.3685 25.035 65.4384 27.1049C67.6069 29.1748 68.6912 31.6883 68.6912 34.6453C68.6912 37.5037 67.6069 39.9679 65.4384 42.0378C63.3685 44.1078 60.7565 45.1427 57.6023 45.1427Z" fill="#FDF8F2"/>
</svg>
