<svg width="144" height="144" viewBox="0 0 144 144" fill="none" xmlns="http://www.w3.org/2000/svg">
<circle cx="72" cy="72" r="72" fill="black"/>
<path d="M76.3634 129.176V106.111H84.0516V129.176H76.3634ZM64.831 71.3663C62.9582 71.3663 60.7897 71.0706 58.3255 70.4792C55.9599 69.8878 53.4957 68.9514 50.933 67.67C48.4688 66.3886 46.251 64.713 44.2797 62.643C41.8155 60.1789 39.7948 57.419 38.2178 54.3634C36.7393 51.3078 36 48.4 36 45.6402C36 43.176 36.6407 41.3525 37.9221 40.1697C39.2034 38.9869 40.682 38.3954 42.3576 38.3954C44.2304 38.3954 45.8567 38.9376 47.2367 40.0218C48.6166 41.0075 49.3066 42.486 49.3066 44.4573C49.3066 45.1473 49.208 45.9359 49.0109 46.823C48.8138 47.7101 48.4195 48.5479 47.8281 49.3364C47.1381 50.4207 46.5467 51.4556 46.0539 52.4413C45.561 53.427 45.3146 54.3141 45.3146 55.1026C45.3146 56.384 45.8075 57.6654 46.7931 58.9468C47.7788 60.1296 49.4545 61.1152 51.8201 61.9038C54.1857 62.6923 57.4384 63.0866 61.5783 63.0866L64.831 71.3663ZM79.0247 110.399C73.7021 110.399 68.9215 109.019 64.6831 106.259C60.5433 103.401 57.2413 99.5566 54.7771 94.7268C52.4115 89.7984 51.2287 84.2293 51.2287 78.0196C51.2287 71.8098 52.6579 66.1915 55.5164 61.1645C58.3748 56.039 62.2682 51.9978 67.1966 49.0407C72.125 45.9851 77.5462 44.4573 83.4602 44.4573C87.6986 44.4573 91.4935 45.3937 94.8448 47.2665C98.1961 49.0407 100.857 51.4556 102.829 54.5112C104.899 57.5668 105.934 61.0167 105.934 64.8608C105.934 68.6064 104.406 70.4792 101.35 70.4792H71.78C70.4 70.4792 69.3651 70.8734 68.6751 71.662C68.0837 72.4505 67.788 73.7812 67.788 75.6539C67.788 79.3995 68.6258 82.8494 70.3015 86.0035C71.9771 89.0591 74.2442 91.474 77.1026 93.2482C79.9611 95.0225 83.2631 95.9096 87.0087 95.9096C89.8671 95.9096 92.4792 95.3674 94.8448 94.2832C97.309 93.199 99.7239 91.7204 102.089 89.8477C102.484 89.552 102.829 89.3055 103.124 89.1084C103.519 88.8127 103.864 88.6649 104.159 88.6649C105.145 88.6649 105.638 89.3055 105.638 90.5869C105.638 91.6712 105.244 93.1497 104.455 95.0225C103.469 97.4866 101.794 99.9508 99.4282 102.415C97.1611 104.781 94.3027 106.703 90.8528 108.181C87.4029 109.66 83.4602 110.399 79.0247 110.399ZM71.78 64.2694H80.6511C83.411 64.2694 85.333 64.2201 86.4173 64.1216C87.5015 64.023 88.4872 63.8259 89.3743 63.5302C89.8671 63.333 90.2614 62.8402 90.5571 62.0516C90.8528 61.2631 91.0006 60.376 91.0006 59.3903C91.0006 56.729 90.0643 54.5605 88.1915 52.8849C86.4173 51.2092 84.1995 50.3714 81.5382 50.3714C79.4683 50.3714 77.4969 50.9628 75.6241 52.1456C73.8499 53.2298 72.3714 54.7084 71.1886 56.5811C70.1043 58.3554 69.6115 60.2281 69.7101 62.1995C69.7101 63.5794 70.4 64.2694 71.78 64.2694ZM96.1754 35.2906C93.317 35.2906 90.8035 34.2556 88.635 32.1857C86.5651 30.0172 85.5302 27.553 85.5302 24.7931C85.5302 21.7375 86.5651 19.1748 88.635 17.1049C90.8035 15.035 93.317 14 96.1754 14C99.231 14 101.794 15.035 103.864 17.1049C106.032 19.1748 107.116 21.7375 107.116 24.7931C107.116 27.553 106.032 30.0172 103.864 32.1857C101.794 34.2556 99.231 35.2906 96.1754 35.2906ZM67.3445 35.2906C64.486 35.2906 62.0218 34.2556 59.9519 32.1857C57.882 30.0172 56.847 27.553 56.847 24.7931C56.847 21.7375 57.882 19.1748 59.9519 17.1049C62.0218 15.035 64.486 14 67.3445 14C70.4986 14 73.1107 15.035 75.1806 17.1049C77.3491 19.1748 78.4333 21.7375 78.4333 24.7931C78.4333 27.553 77.3491 30.0172 75.1806 32.1857C73.1107 34.2556 70.4986 35.2906 67.3445 35.2906Z" fill="#FDF8F2"/>
</svg>
