<svg width="144" height="144" viewBox="0 0 144 144" fill="none" xmlns="http://www.w3.org/2000/svg">
<circle cx="72" cy="72" r="72" fill="black"/>
<path d="M67.5622 104.202C61.1553 104.202 55.3891 102.872 50.2636 100.21C45.2367 97.5491 41.2447 93.9021 38.2877 89.2694C35.4292 84.5382 34 79.1662 34 73.1536C34 66.7467 35.5278 60.9805 38.5834 55.855C41.7375 50.7295 45.9267 46.639 51.1507 43.5834C56.3748 40.5278 62.1903 39 68.5972 39C73.3284 39 77.5175 39.4928 81.1645 40.4785C84.8115 41.3656 87.8671 43.1398 90.3313 45.8012C91.2184 46.7868 91.662 47.6739 91.662 48.4625C91.662 49.1524 91.2184 50.0396 90.3313 51.1238C89.5428 52.1095 88.6064 53.0459 87.5221 53.933C86.4379 54.7215 85.4522 55.1158 84.5651 55.1158C83.678 55.1158 82.8402 54.8694 82.0516 54.3765C81.2631 53.7851 80.4746 53.1937 79.686 52.6023C77.0247 50.4338 74.3634 48.9553 71.7021 48.1668C69.1393 47.2797 66.9215 46.8361 65.0488 46.8361C61.3032 46.8361 58.4447 48.3639 56.4734 51.4195C54.6006 54.4751 53.6642 59.502 53.6642 66.5003C53.6642 72.9072 54.502 78.2298 56.1777 82.4683C57.8533 86.6081 60.2189 89.6637 63.2745 91.635C66.3301 93.6064 69.8293 94.5921 73.772 94.5921C77.7147 94.5921 81.066 93.8035 83.8259 92.2264C86.5857 90.5508 88.6557 88.4809 90.0356 86.0167C91.5141 83.4539 92.2534 80.8419 92.2534 78.1806C92.2534 74.3364 91.4648 71.3794 89.8878 69.3095C88.3107 67.141 86.1422 66.0568 83.3823 66.0568C80.721 66.0568 78.6018 67.1903 77.0247 69.4573C75.5462 71.6258 74.8069 74.3364 74.8069 77.5892C74.8069 81.3347 75.4476 84.7846 76.729 87.9387C78.0104 91.0929 79.9324 93.6064 82.4952 95.4792C85.058 97.3519 88.3107 98.2883 92.2534 98.2883C94.8161 98.2883 97.1818 97.7955 99.3502 96.8098C101.617 95.7256 103.835 94.0499 106.004 91.7829C107.088 90.6001 107.926 90.2551 108.517 90.7479C109.207 91.1422 109.601 91.8322 109.7 92.8178C109.798 93.8035 109.651 94.6413 109.256 95.3313C106.792 98.7812 103.736 101.245 100.089 102.724C96.4425 104.202 92.7462 104.942 89.0006 104.942C84.6637 104.942 80.4746 104.005 76.4333 102.132C72.392 100.161 69.0407 97.4505 66.3794 94.0006C63.8167 90.4522 62.5353 86.3617 62.5353 81.729C62.5353 78.772 63.3731 75.5685 65.0488 72.1187C66.823 68.6688 69.3364 65.7611 72.5892 63.3954C75.9405 60.9313 79.8832 59.6992 84.4173 59.6992C88.7542 59.6992 92.3519 60.6356 95.2104 62.5083C98.0689 64.3811 100.188 66.7467 101.568 69.6052C102.948 72.4637 103.638 75.47 103.638 78.6241C103.638 82.9611 102.159 87.1009 99.2024 91.0436C96.2454 94.8878 92.0562 98.0419 86.635 100.506C81.3124 102.97 74.9548 104.202 67.5622 104.202Z" fill="#FDF8F2"/>
</svg>
