<svg width="144" height="144" viewBox="0 0 144 144" fill="none" xmlns="http://www.w3.org/2000/svg">
<circle cx="72" cy="72" r="72" fill="black"/>
<path d="M69.6912 85.7938C66.537 85.7938 63.1857 85.5474 59.6373 85.0545C56.1874 84.5617 53.1318 83.7239 50.4705 82.5411C47.9077 81.3582 46.3799 79.8797 45.8871 78.1055C45.4928 75.8385 45.2464 73.7686 45.1479 71.8958C45.0493 69.9244 45 68.1009 45 66.4253C45 63.6654 45.7393 62.2854 47.2178 62.2854C47.612 62.2854 48.0556 62.7783 48.5484 63.764C49.1398 64.6511 49.6327 65.6367 50.0269 66.721C51.4069 70.1708 52.984 72.7829 54.7582 74.5571C56.631 76.3313 58.553 77.5634 60.5244 78.2534C62.4957 78.8448 64.2699 79.1405 65.847 79.1405C68.5083 79.1405 70.7754 78.0562 72.6482 75.8878C74.6195 73.6207 75.6052 70.713 75.6052 67.1645C75.6052 63.9118 75.0631 61.0041 73.9788 58.4413C72.8946 55.8786 70.874 54.5972 67.9169 54.5972C67.1284 54.5972 66.1427 54.7943 64.9599 55.1886C63.7771 55.5829 62.4464 55.78 60.9679 55.78C59.8837 55.78 58.6516 55.4843 57.2717 54.8929C55.8917 54.3015 55.2017 53.168 55.2017 51.4923C55.2017 49.8167 55.7439 48.6831 56.8281 48.0917C57.9123 47.4018 59.3416 47.0568 61.1158 47.0568C62.2 47.0568 63.2843 47.2046 64.3685 47.5003C65.4528 47.6975 66.7834 47.796 68.3605 47.796C70.9232 47.796 72.8453 46.8104 74.1267 44.839C75.4081 42.8677 76.0488 40.3542 76.0488 37.2986C76.0488 34.8344 75.6052 32.8138 74.7181 31.2367C73.9296 29.561 72.8453 28.3289 71.4654 27.5404C70.0854 26.6533 68.6069 26.2097 67.0298 26.2097C64.1714 26.2097 61.8058 26.949 59.933 28.4275C58.1588 29.8075 56.3845 31.9759 54.6103 34.933C53.9204 36.2143 53.1811 37.7421 52.3926 39.5164C51.604 41.2906 50.7169 42.1777 49.7312 42.1777C48.7456 42.1777 48.2034 41.8327 48.1049 41.1427C48.0063 40.4527 47.957 39.6149 47.957 38.6292C47.957 36.855 48.0063 35.278 48.1049 33.898C48.302 32.4195 48.5977 30.7439 48.992 28.8711C49.1891 28.0825 49.4848 27.294 49.8791 26.5055C50.2734 25.6183 50.8155 25.0269 51.5055 24.7312C53.6739 23.8441 56.4338 22.8585 59.7851 21.7742C63.1364 20.5914 67.3748 20 72.5003 20C79.3015 20 84.9691 21.2814 89.5032 23.8441C94.0373 26.4069 96.3044 30.3989 96.3044 35.8201C96.3044 38.7771 95.6637 41.192 94.3823 43.0648C93.1009 44.839 91.4746 46.2682 89.5032 47.3525C87.5319 48.3381 85.5112 49.176 83.4413 49.8659C82.9485 49.9645 82.6035 50.2109 82.4064 50.6052C82.3078 50.9009 82.6035 51.1473 83.2935 51.3445C87.4333 52.2316 90.9817 53.8579 93.9387 56.2235C96.9943 58.4906 98.5221 61.8419 98.5221 66.2774C98.5221 69.5302 97.6843 72.3886 96.0087 74.8528C94.4316 77.317 92.2631 79.3869 89.5032 81.0625C86.8419 82.6396 83.7863 83.8224 80.3364 84.611C76.8866 85.3995 73.3381 85.7938 69.6912 85.7938ZM63.4814 124.383C61.3129 124.383 59.6866 123.939 58.6023 123.052C57.5181 122.165 56.9759 120.243 56.9759 117.286C56.9759 115.906 57.1731 114.97 57.5674 114.477C58.0602 113.984 58.7009 113.738 59.4894 113.738C60.6722 113.738 62.0029 114.132 63.4814 114.92C65.0585 115.709 67.0298 116.103 69.3954 116.103C70.874 116.103 71.9582 115.561 72.6482 114.477C73.3381 113.491 73.6831 112.062 73.6831 110.189C73.6831 108.119 72.796 106.542 71.0218 105.458C69.2476 104.374 67.3748 103.832 65.4035 103.832C64.1221 103.832 63.1364 104.078 62.4464 104.571C61.855 105.064 61.2143 105.31 60.5244 105.31C59.933 105.31 59.243 104.965 58.4545 104.275C57.6659 103.684 57.2717 102.846 57.2717 101.762C57.2717 100.875 57.9616 99.6425 59.3416 98.0654L72.6482 82.6889H79.1536L73.831 89.0465C73.3381 89.7365 73.0917 90.2293 73.0917 90.525C73.0917 91.0179 73.6831 91.56 74.8659 92.1514C77.3301 93.2356 79.3015 94.7634 80.78 96.7348C82.2585 98.7061 82.9978 101.318 82.9978 104.571C82.9978 107.134 82.3078 109.598 80.9278 111.963C79.6465 114.329 78.0201 116.448 76.0488 118.321C74.0774 120.194 71.9582 121.672 69.6912 122.757C67.5227 123.841 65.4528 124.383 63.4814 124.383Z" fill="#FDF8F2"/>
</svg>
