<svg width="144" height="144" viewBox="0 0 144 144" fill="none" xmlns="http://www.w3.org/2000/svg">
<circle cx="72" cy="72" r="72" fill="black"/>
<path d="M40.1954 93.2854C38.0269 93.2854 36.2856 92.9897 34.9713 92.3983C33.6571 91.8069 33 91.1827 33 90.5256C33 89.8027 33.1971 89.3099 33.5914 89.047C33.9857 88.7842 34.5114 88.6528 35.1685 88.6528C36.417 88.6528 37.6655 88.1928 38.914 87.2728C40.1626 86.2872 41.3782 85.0058 42.561 83.4287C43.8096 81.7859 44.9924 80.0117 46.1095 78.1061C47.2923 76.069 48.5079 74.2619 49.7565 72.6848C51.005 71.0421 52.6149 69.7607 54.5863 68.8407C56.6233 67.9208 59.3504 67.4608 62.7674 67.4608L82.7766 67.3622C85.6679 67.3622 87.9678 67.7236 89.6763 68.4464C91.3848 69.1036 92.9619 70.3521 94.4075 72.192C95.9189 74.0319 97.6931 76.7261 99.7302 80.2745C100.782 81.9173 101.767 83.3958 102.687 84.7101C103.673 85.9586 104.691 86.9443 105.743 87.6671C106.794 88.3242 107.878 88.6528 108.996 88.6528C109.653 88.6528 110.178 88.7842 110.573 89.047C111.033 89.3099 111.263 89.8027 111.263 90.5256C111.263 91.1827 110.573 91.8069 109.193 92.3983C107.878 92.9897 106.137 93.2854 103.969 93.2854C100.354 93.2854 97.3974 92.5955 95.0975 91.2155C92.8633 89.8356 90.9905 87.9957 89.4792 85.6958C88.4935 84.1187 87.5735 82.5087 86.7193 80.8659C85.865 79.2232 85.0108 77.6789 84.1565 76.2333C83.368 74.7876 82.5794 73.6377 81.7909 72.7834C81.0681 71.8634 80.3452 71.4035 79.6224 71.4035C78.8996 71.4035 78.5382 71.6992 78.5382 72.2906V85.5972C78.5382 86.5829 78.8667 87.3385 79.5238 87.8642C80.2467 88.3242 81.4623 88.8171 83.1708 89.3427C83.6965 89.5399 84.1237 89.7699 84.4522 90.0327C84.8465 90.2956 85.0436 90.6898 85.0436 91.2155C85.0436 91.6755 84.8793 92.0041 84.5508 92.2012C84.2222 92.3983 83.828 92.4969 83.368 92.4969C82.1195 92.4969 80.8381 92.464 79.5238 92.3983C78.2096 92.3326 76.9282 92.2669 75.6797 92.2012C74.4312 92.1355 73.2155 92.1026 72.0327 92.1026C70.9156 92.1026 69.7328 92.1355 68.4843 92.2012C67.2358 92.2669 65.9872 92.3326 64.7387 92.3983C63.4902 92.5298 62.2088 92.5955 60.8946 92.5955C60.566 92.5955 60.2046 92.4969 59.8104 92.2998C59.4161 92.0369 59.2189 91.7084 59.2189 91.3141C59.2189 90.7884 59.3832 90.3613 59.7118 90.0327C60.0403 89.7042 60.4675 89.4742 60.9932 89.3427C62.636 88.9485 63.8188 88.5214 64.5416 88.0614C65.2644 87.6014 65.6258 86.8128 65.6258 85.6958V72.2906C65.6258 71.6992 65.2644 71.4035 64.5416 71.4035C63.8845 71.4035 63.1616 71.7977 62.3731 72.5863C61.5846 73.3748 60.7632 74.4262 59.9089 75.7404C59.0547 77.0547 58.2004 78.5989 57.3462 80.3731C56.4919 82.0816 55.6048 83.8558 54.6848 85.6958C53.502 88.1271 51.695 89.9999 49.2636 91.3141C46.8323 92.6283 43.8096 93.2854 40.1954 93.2854ZM66.2172 70.9106C63.0631 68.8736 60.336 67.1322 58.0361 65.6866C55.8019 64.1752 53.6992 62.7952 51.7278 61.5467C49.8222 60.2325 47.6866 58.9183 45.3209 57.604C44.0067 56.8155 42.8567 56.1584 41.8711 55.6327C40.8854 55.107 39.8012 54.647 38.6183 54.2527C37.9612 53.9899 37.5012 53.727 37.2384 53.4642C36.9756 53.1356 36.8441 52.7085 36.8441 52.1828C36.8441 51.6571 37.107 51.3286 37.6327 51.1971C38.2241 51.0657 38.7498 51 39.2098 51H104.954C105.414 51 105.907 51.0657 106.433 51.1971C107.024 51.3286 107.32 51.6571 107.32 52.1828C107.32 53.1028 106.696 53.7927 105.447 54.2527C104.264 54.647 103.016 55.107 101.702 55.6327C100.453 56.1584 99.1059 56.9469 97.6603 57.9983L80.2138 70.8121L66.2172 70.9106ZM76.074 66.9679C76.2054 67.0336 76.304 67.0336 76.3697 66.9679L88.1978 57.8012C88.7235 57.4069 88.9863 57.0783 88.9863 56.8155C88.9863 56.5526 88.7235 56.4212 88.1978 56.4212L63.6545 56.3226C63.1945 56.3226 62.9645 56.4869 62.9645 56.8155C62.9645 57.144 63.1288 57.4069 63.4573 57.604L76.074 66.9679Z" fill="#FDF8F2"/>
</svg>
