<svg width="58" height="61" viewBox="0 0 58 61" fill="none" xmlns="http://www.w3.org/2000/svg">
<path d="M52.1518 60.2495C51.4618 60.2495 50.9443 59.9045 50.5993 59.2145C50.2543 58.5245 50.0128 57.6965 49.8748 56.7305C49.5988 55.2815 49.3918 54.212 49.2538 53.522C49.1848 52.901 49.1158 51.9695 49.0468 50.7275C48.7708 48.2435 48.0808 46.484 46.9768 45.449C45.9418 44.483 44.6308 44 43.0438 44H13.3393C12.2353 44 11.1313 44 10.0273 44C8.92327 44.069 7.75027 44.138 6.50827 44.207C5.33527 44.276 4.05877 44.3105 2.67877 44.3105C2.26477 44.3105 1.78177 44.207 1.22977 44C0.746772 43.724 0.505272 43.3445 0.505272 42.8615C0.505272 42.3095 0.746772 41.8955 1.22977 41.6195C1.78177 41.2745 2.33377 40.9985 2.88577 40.7915C3.92077 40.4465 4.81777 40.067 5.57677 39.653C6.33577 39.17 6.71527 38.2385 6.71527 36.8585V7.6715C6.71527 6.2915 6.33577 5.36 5.57677 4.877C4.81777 4.394 3.92077 4.0145 2.88577 3.7385C2.33377 3.5315 1.78177 3.2555 1.22977 2.9105C0.746772 2.5655 0.505272 2.117 0.505272 1.565C0.505272 1.082 0.746772 0.736998 1.22977 0.529998C1.78177 0.253998 2.26477 0.115997 2.67877 0.115997C4.05877 0.115997 5.36977 0.150498 6.61177 0.219499C7.85377 0.288498 9.06127 0.391998 10.2343 0.529998C11.4073 0.598997 12.5803 0.633497 13.7533 0.633497C14.9953 0.633497 16.1338 0.598997 17.1688 0.529998C18.2038 0.391998 19.2733 0.288498 20.3773 0.219499C21.5503 0.150498 22.8268 0.115997 24.2068 0.115997C24.6208 0.115997 25.0003 0.253998 25.3453 0.529998C25.7593 0.805999 25.9663 1.151 25.9663 1.565C25.9663 2.048 25.7593 2.4965 25.3453 2.9105C25.0003 3.2555 24.5518 3.5315 23.9998 3.7385C22.9648 4.0835 22.0678 4.463 21.3088 4.877C20.6188 5.291 20.2738 6.188 20.2738 7.568V35.513C20.2738 36.755 20.5498 37.652 21.1018 38.204C21.7228 38.687 22.5163 38.9285 23.4823 38.9285H31.2448C32.2798 38.9285 33.0733 38.687 33.6253 38.204C34.1773 37.652 34.4533 36.755 34.4533 35.513V7.568C34.4533 6.188 34.1083 5.291 33.4183 4.877C32.7283 4.394 31.8658 4.0145 30.8308 3.7385C30.2788 3.5315 29.7958 3.2555 29.3818 2.9105C28.9678 2.5655 28.7608 2.117 28.7608 1.565C28.7608 1.082 28.9333 0.736998 29.2783 0.529998C29.6923 0.253998 30.1063 0.115997 30.5203 0.115997C31.9003 0.115997 33.1768 0.150498 34.3498 0.219499C35.5228 0.288498 36.6613 0.391998 37.7653 0.529998C38.9383 0.598997 40.1113 0.633497 41.2843 0.633497C42.5263 0.633497 43.6993 0.598997 44.8033 0.529998C45.9073 0.391998 47.0458 0.288498 48.2188 0.219499C49.4608 0.150498 50.7718 0.115997 52.1518 0.115997C52.5658 0.115997 52.9798 0.253998 53.3938 0.529998C53.8078 0.736998 54.0148 1.082 54.0148 1.565C54.0148 2.117 53.7733 2.5655 53.2903 2.9105C52.8763 3.2555 52.3933 3.5315 51.8413 3.7385C50.8063 4.0145 49.9093 4.394 49.1503 4.877C48.3913 5.291 48.0118 6.188 48.0118 7.568V37.376C48.0118 37.79 48.3568 38.135 49.0468 38.411C49.8058 38.618 50.7718 38.7215 51.9448 38.7215C52.7038 38.7215 53.3938 38.6525 54.0148 38.5145C54.6358 38.3075 55.2568 38.204 55.8778 38.204C56.8438 38.204 57.3268 38.4455 57.3268 38.9285C57.3268 38.9975 57.3268 39.17 57.3268 39.446C57.3268 39.722 57.2923 39.929 57.2233 40.067C57.1543 40.757 56.9473 41.9645 56.6023 43.6895C56.3263 45.3455 55.9813 47.312 55.5673 49.589C55.2223 51.866 54.9808 54.1775 54.8428 56.5235C54.7738 57.7655 54.4633 58.697 53.9113 59.318C53.4283 59.939 52.8418 60.2495 52.1518 60.2495Z" fill="#FDF8F2"/>
</svg>
