<svg width="56" height="45" viewBox="0 0 56 45" fill="none" xmlns="http://www.w3.org/2000/svg">
<path d="M30.1326 44.3105C29.7186 44.3105 29.3046 44.207 28.8906 44C28.4766 43.724 28.2696 43.379 28.2696 42.965C28.2696 42.413 28.4421 41.9645 28.7871 41.6195C29.1321 41.2745 29.5806 41.033 30.1326 40.895C31.8576 40.481 33.0996 40.0325 33.8586 39.5495C34.6176 39.0665 34.9971 38.2385 34.9971 37.0655V27.5435C34.9971 26.9225 34.8936 26.474 34.6866 26.198C34.5486 25.922 34.3071 25.8875 33.9621 26.0945C32.2371 26.9225 30.2016 27.578 27.8556 28.061C25.5786 28.475 23.1981 28.682 20.7141 28.682C18.3681 28.682 16.0911 28.2335 13.8831 27.3365C11.7441 26.4395 9.98455 25.094 8.60455 23.3C7.29355 21.437 6.63805 19.091 6.63805 16.262V7.4645C6.63805 6.2915 6.36205 5.4635 5.81005 4.9805C5.32705 4.4975 4.25755 4.0145 2.60155 3.5315C2.04955 3.3935 1.60105 3.152 1.25605 2.807C0.911051 2.462 0.738551 2.048 0.738551 1.565C0.738551 1.082 0.911051 0.736998 1.25605 0.529998C1.67005 0.253998 2.08405 0.115997 2.49805 0.115997C3.80905 0.115997 5.05105 0.150498 6.22405 0.219499C7.39705 0.288498 8.57005 0.391998 9.74305 0.529998C10.9161 0.598997 12.0891 0.633497 13.2621 0.633497C14.5041 0.633497 15.7461 0.598997 16.9881 0.529998C18.2991 0.460997 19.5756 0.391997 20.8176 0.322998C22.1286 0.253999 23.4051 0.219499 24.6471 0.219499C25.1301 0.219499 25.5441 0.322999 25.8891 0.529998C26.2341 0.736998 26.4066 1.082 26.4066 1.565C26.4066 2.117 26.1996 2.531 25.7856 2.807C25.4406 3.083 24.9921 3.3245 24.4401 3.5315C22.6461 4.0835 21.4731 4.6355 20.9211 5.1875C20.4381 5.7395 20.1966 6.4985 20.1966 7.4645V15.7445C20.1966 18.1595 20.7141 20.0225 21.7491 21.3335C22.7841 22.6445 24.3711 23.3 26.5101 23.3C28.0971 23.3 29.4081 23.1965 30.4431 22.9895C31.5471 22.7825 32.5821 22.265 33.5481 21.437C34.1001 20.954 34.4796 20.54 34.6866 20.195C34.8936 19.85 34.9971 19.505 34.9971 19.16V7.4645C34.9971 6.2915 34.7211 5.4635 34.1691 4.9805C33.6861 4.4975 32.5821 4.0145 30.8571 3.5315C30.3051 3.3935 29.8566 3.152 29.5116 2.807C29.1666 2.462 28.9941 2.048 28.9941 1.565C28.9941 1.082 29.1666 0.736998 29.5116 0.529998C29.9256 0.253998 30.3396 0.115997 30.7536 0.115997C32.1336 0.115997 33.4101 0.150498 34.5831 0.219499C35.8251 0.288498 37.0326 0.391998 38.2056 0.529998C39.3786 0.598997 40.5516 0.633497 41.7246 0.633497C42.9666 0.633497 44.2431 0.598997 45.5541 0.529998C46.9341 0.460997 48.3141 0.391997 49.6941 0.322998C51.0741 0.253999 52.4196 0.219499 53.7306 0.219499C54.2136 0.219499 54.6276 0.322999 54.9726 0.529998C55.3176 0.736998 55.4901 1.082 55.4901 1.565C55.4901 2.117 55.2831 2.531 54.8691 2.807C54.5241 3.083 54.0756 3.3245 53.5236 3.5315C51.7296 4.0835 50.4531 4.6355 49.6941 5.1875C49.0041 5.7395 48.6591 6.4985 48.6591 7.4645V36.962C48.6591 37.928 49.0386 38.687 49.7976 39.239C50.5566 39.791 51.7986 40.343 53.5236 40.895C54.0756 41.102 54.5241 41.3435 54.8691 41.6195C55.2831 41.8955 55.4901 42.3095 55.4901 42.8615C55.4901 43.3445 55.3176 43.6895 54.9726 43.8965C54.6276 44.1035 54.2481 44.207 53.8341 44.207C52.5231 44.207 51.1431 44.1725 49.6941 44.1035C48.3141 44.0345 46.9341 43.9655 45.5541 43.8965C44.2431 43.8275 42.9666 43.793 41.7246 43.793C40.5516 43.793 39.3096 43.8275 37.9986 43.8965C36.7566 43.9655 35.4801 44.0345 34.1691 44.1035C32.8581 44.2415 31.5126 44.3105 30.1326 44.3105Z" fill="#FDF8F2"/>
</svg>
