<svg width="82" height="61" viewBox="0 0 82 61" fill="none" xmlns="http://www.w3.org/2000/svg">
<path d="M76.3857 60.2495C75.6267 60.2495 75.0402 59.8355 74.6262 59.0075C74.2122 58.1795 73.9362 57.248 73.7982 56.213C73.7292 55.316 73.5912 54.281 73.3842 53.108C73.1772 52.004 72.9357 50.762 72.6597 49.382C72.3837 47.588 71.7972 46.2425 70.9002 45.3455C70.0722 44.4485 68.8992 44 67.3812 44H13.3542C12.2502 44 11.1117 44 9.93868 44C8.83468 44.069 7.66168 44.138 6.41968 44.207C5.24668 44.276 3.97018 44.3105 2.59018 44.3105C2.24518 44.3105 1.79668 44.207 1.24468 44C0.76168 43.724 0.52018 43.3445 0.52018 42.8615C0.52018 42.3095 0.76168 41.8955 1.24468 41.6195C1.79668 41.2745 2.34868 40.9985 2.90068 40.7915C3.93568 40.4465 4.83268 40.067 5.59168 39.653C6.35068 39.17 6.73018 38.2385 6.73018 36.8585V7.6715C6.73018 6.2915 6.35068 5.36 5.59168 4.877C4.83268 4.394 3.93568 4.0145 2.90068 3.7385C2.34868 3.5315 1.79668 3.2555 1.24468 2.9105C0.76168 2.5655 0.52018 2.117 0.52018 1.565C0.52018 1.082 0.76168 0.736998 1.24468 0.529998C1.72768 0.253998 2.17618 0.115997 2.59018 0.115997C3.97018 0.115997 5.28118 0.150498 6.52318 0.219499C7.76518 0.288498 8.97268 0.391998 10.1457 0.529998C11.3877 0.598997 12.5952 0.633497 13.7682 0.633497C15.0102 0.633497 16.1142 0.598997 17.0802 0.529998C18.0462 0.391998 19.0467 0.288498 20.0817 0.219499C21.1857 0.150498 22.4277 0.115997 23.8077 0.115997C24.2217 0.115997 24.6012 0.253998 24.9462 0.529998C25.3602 0.805999 25.5672 1.151 25.5672 1.565C25.5672 2.048 25.3602 2.4965 24.9462 2.9105C24.5322 3.2555 24.0492 3.5315 23.4972 3.7385C22.5312 4.0835 21.7377 4.463 21.1167 4.877C20.5647 5.291 20.2887 6.188 20.2887 7.568V35.306C20.2887 36.548 20.5647 37.445 21.1167 37.997C21.7377 38.549 22.5312 38.825 23.4972 38.825H29.8107C30.7767 38.825 31.5357 38.549 32.0877 37.997C32.6397 37.445 32.9157 36.548 32.9157 35.306V7.6715C32.9157 6.2915 32.6742 5.36 32.1912 4.877C31.7082 4.394 30.9492 4.0145 29.9142 3.7385C29.3622 3.5315 28.8102 3.2555 28.2582 2.9105C27.7752 2.5655 27.5337 2.117 27.5337 1.565C27.5337 1.082 27.7752 0.736998 28.2582 0.529998C28.7412 0.253998 29.1897 0.115997 29.6037 0.115997C30.9837 0.115997 32.2257 0.150498 33.3297 0.219499C34.4337 0.288498 35.5032 0.391998 36.5382 0.529998C37.6422 0.598997 38.7807 0.633497 39.9537 0.633497C41.1957 0.633497 42.2997 0.598997 43.2657 0.529998C44.2317 0.391998 45.2322 0.288498 46.2672 0.219499C47.3712 0.150498 48.6132 0.115997 49.9932 0.115997C50.4072 0.115997 50.7867 0.253998 51.1317 0.529998C51.5457 0.805999 51.7527 1.151 51.7527 1.565C51.7527 2.048 51.5457 2.4965 51.1317 2.9105C50.7177 3.2555 50.2347 3.5315 49.6827 3.7385C48.7167 4.0835 47.9577 4.463 47.4057 4.877C46.8537 5.291 46.5777 6.188 46.5777 7.568V35.306C46.5777 36.548 46.8537 37.445 47.4057 37.997C48.0267 38.549 48.8202 38.825 49.7862 38.825H55.8927C56.9277 38.825 57.7212 38.549 58.2732 37.997C58.8252 37.445 59.1012 36.548 59.1012 35.306V7.568C59.1012 6.188 58.8252 5.291 58.2732 4.877C57.7212 4.394 56.9277 4.0145 55.8927 3.7385C55.3407 3.5315 54.8577 3.2555 54.4437 2.9105C54.0297 2.5655 53.8227 2.117 53.8227 1.565C53.8227 1.082 54.0297 0.736998 54.4437 0.529998C54.8577 0.253998 55.2717 0.115997 55.6857 0.115997C57.0657 0.115997 58.3077 0.150498 59.4117 0.219499C60.5157 0.288498 61.5852 0.391998 62.6202 0.529998C63.6552 0.598997 64.7592 0.633497 65.9322 0.633497C67.1742 0.633497 68.3472 0.598997 69.4512 0.529998C70.6242 0.391998 71.7972 0.288498 72.9702 0.219499C74.1432 0.150498 75.4197 0.115997 76.7997 0.115997C77.2137 0.115997 77.6277 0.253998 78.0417 0.529998C78.4557 0.736998 78.6627 1.082 78.6627 1.565C78.6627 2.117 78.4557 2.5655 78.0417 2.9105C77.6277 3.2555 77.1447 3.5315 76.5927 3.7385C75.5577 4.0145 74.6607 4.394 73.9017 4.877C73.1427 5.291 72.7632 6.188 72.7632 7.568V37.2725C72.7632 38.2385 73.9017 38.7215 76.1787 38.7215C76.8687 38.7215 77.5242 38.6525 78.1452 38.5145C78.7662 38.3075 79.3872 38.204 80.0082 38.204C80.9742 38.204 81.4572 38.4455 81.4572 38.9285C81.4572 38.9975 81.4572 39.17 81.4572 39.446C81.4572 39.722 81.4227 39.929 81.3537 40.067C81.3537 40.757 81.1812 41.9645 80.8362 43.6895C80.4912 45.3455 80.1462 47.312 79.8012 49.589C79.4562 51.866 79.1802 54.1775 78.9732 56.5235C78.9042 57.7655 78.6282 58.697 78.1452 59.318C77.6622 59.939 77.0757 60.2495 76.3857 60.2495Z" fill="#FDF8F2"/>
</svg>
