<svg width="53" height="90" viewBox="0 0 53 90" fill="none" xmlns="http://www.w3.org/2000/svg">
<path d="M26.3455 89.932C21.3775 89.932 16.9155 88.644 12.9595 86.068C9.09554 83.4 6.01354 79.812 3.71354 75.304C1.50554 70.704 0.401539 65.506 0.401539 59.71C0.401539 53.914 1.73554 48.67 4.40354 43.978C7.07154 39.194 10.7055 35.422 15.3055 32.662C19.9055 29.81 24.9655 28.384 30.4855 28.384C34.4415 28.384 37.9835 29.258 41.1115 31.006C44.2395 32.662 46.7235 34.916 48.5635 37.768C50.4955 40.62 51.4615 43.84 51.4615 47.428C51.4615 50.924 50.0355 52.672 47.1835 52.672H19.5835C18.2955 52.672 17.3295 53.04 16.6855 53.776C16.1335 54.512 15.8575 55.754 15.8575 57.502C15.8575 60.998 16.6395 64.218 18.2035 67.162C19.7675 70.014 21.8835 72.268 24.5515 73.924C27.2195 75.58 30.3015 76.408 33.7975 76.408C36.4655 76.408 38.9035 75.902 41.1115 74.89C43.4115 73.878 45.6655 72.498 47.8735 70.75C48.2415 70.474 48.5635 70.244 48.8395 70.06C49.2075 69.784 49.5295 69.646 49.8055 69.646C50.7255 69.646 51.1855 70.244 51.1855 71.44C51.1855 72.452 50.8175 73.832 50.0815 75.58C49.1615 77.88 47.5975 80.18 45.3895 82.48C43.2735 84.688 40.6055 86.482 37.3855 87.862C34.1655 89.242 30.4855 89.932 26.3455 89.932ZM19.5835 46.876H27.8635C30.4395 46.876 32.2335 46.83 33.2455 46.738C34.2575 46.646 35.1775 46.462 36.0055 46.186C36.4655 46.002 36.8335 45.542 37.1095 44.806C37.3855 44.07 37.5235 43.242 37.5235 42.322C37.5235 39.838 36.6495 37.814 34.9015 36.25C33.2455 34.686 31.1755 33.904 28.6915 33.904C26.7595 33.904 24.9195 34.456 23.1715 35.56C21.5155 36.572 20.1355 37.952 19.0315 39.7C18.0195 41.356 17.5595 43.104 17.6515 44.944C17.6515 46.232 18.2955 46.876 19.5835 46.876ZM42.6295 19.828C39.9615 19.828 37.6155 18.862 35.5915 16.93C33.6595 14.998 32.6935 12.698 32.6935 10.03C32.6935 7.27 33.6595 4.92399 35.5915 2.99199C37.6155 1.06 39.9615 0.0939966 42.6295 0.0939966C45.4815 0.0939966 47.8735 1.06 49.8055 2.99199C51.8295 4.92399 52.8415 7.27 52.8415 10.03C52.8415 12.698 51.8295 14.998 49.8055 16.93C47.8735 18.862 45.4815 19.828 42.6295 19.828ZM15.7195 19.828C13.0515 19.828 10.7515 18.862 8.81954 16.93C6.88754 14.998 5.92154 12.698 5.92154 10.03C5.92154 7.27 6.88754 4.92399 8.81954 2.99199C10.7515 1.06 13.0515 0.0939966 15.7195 0.0939966C18.6635 0.0939966 21.1015 1.06 23.0335 2.99199C25.0575 4.92399 26.0695 7.27 26.0695 10.03C26.0695 12.698 25.0575 14.998 23.0335 16.93C21.1015 18.862 18.6635 19.828 15.7195 19.828Z" fill="#FDF8F2"/>
</svg>
