<svg width="132" height="126" viewBox="0 0 132 126" fill="none" xmlns="http://www.w3.org/2000/svg">
<path d="M15.9151 125.365C12.5131 125.729 9.05033 125.911 5.52683 125.911C4.06883 125.911 2.85383 125.668 1.88183 125.182C0.909828 124.818 0.423828 124.15 0.423828 123.178C0.423828 122.084 0.849078 121.234 1.69958 120.626C2.67158 120.019 3.88658 119.472 5.34458 118.986C8.86808 118.014 11.9056 116.556 14.4571 114.612C17.1301 112.546 19.2563 109.752 20.8358 106.228C23.8733 99.0598 26.7893 92.1951 29.5838 85.6341C32.3783 78.9516 35.0513 72.3298 37.6028 65.7688C40.1543 59.2078 42.7058 52.5253 45.2573 45.7213C47.9303 38.9173 50.6033 31.7488 53.2763 24.2158C54.6128 20.4493 55.5241 17.5333 56.0101 15.4678C56.4961 13.4023 56.9213 11.8836 57.2858 10.9116L57.2858 10.9115H80.0797C82.2826 17.9989 84.5262 25.1674 86.8103 32.4171C89.7263 41.1651 92.5816 49.8523 95.3761 58.4788C98.1706 66.9838 100.844 75.1851 103.395 83.0826C106.068 90.8586 108.498 98.0271 110.685 104.588C111.779 107.869 113.115 110.481 114.695 112.425C116.396 114.369 118.218 115.888 120.162 116.981C122.228 117.953 124.475 118.743 126.905 119.35C128.485 119.715 129.7 120.201 130.55 120.808C131.401 121.416 131.826 122.266 131.826 123.36C131.826 124.089 131.401 124.636 130.55 125C129.821 125.365 128.849 125.547 127.634 125.547C125.447 125.547 122.653 125.486 119.251 125.365C115.97 125.243 112.568 125.122 109.045 125C105.521 124.757 102.362 124.636 99.5678 124.636C97.1378 124.636 94.4041 124.696 91.3666 124.818C88.4506 124.939 85.4738 125.061 82.4363 125.182C79.5203 125.304 77.0296 125.365 74.9641 125.365C73.7491 125.365 72.6556 125.182 71.6836 124.818C70.8331 124.332 70.4078 123.664 70.4078 122.813C70.4078 121.841 70.8938 121.051 71.8658 120.444C72.8378 119.715 73.9921 119.229 75.3286 118.986C79.7026 118.257 82.8616 117.163 84.8056 115.705C86.7496 114.126 87.4786 111.878 86.9926 108.962C86.6281 106.897 86.0813 104.467 85.3523 101.672C84.6233 98.7561 83.8336 95.7793 82.9831 92.7418C82.2541 89.5828 81.4643 86.7276 80.6138 84.1761C80.3708 83.2041 80.0063 82.5358 79.5203 82.1713C79.0343 81.6853 78.1231 81.4423 76.7866 81.4423H43.9816C43.1311 81.4423 42.4628 81.7461 41.9768 82.3536C41.4908 82.8396 41.1263 83.6293 40.8833 84.7228C40.3973 86.3023 39.7898 88.1248 39.0608 90.1903C38.4533 92.1343 37.7851 94.1998 37.0561 96.3868C36.4486 98.4523 35.8411 100.396 35.2336 102.219C34.7476 104.041 34.3831 105.621 34.1401 106.957C33.5326 110.238 34.0793 112.85 35.7803 114.794C37.6028 116.617 40.7011 118.075 45.0751 119.168C48.3556 120.019 49.9958 121.294 49.9958 122.995C49.9958 123.724 49.5706 124.332 48.7201 124.818C47.9911 125.182 46.8976 125.365 45.4396 125.365C42.6451 125.365 39.7291 125.243 36.6916 125C33.6541 124.879 30.3128 124.818 26.6678 124.818C23.0228 124.818 19.4386 125 15.9151 125.365ZM48.9023 73.0588H74.2351C75.9361 73.0588 76.7866 72.6943 76.7866 71.9653C76.7866 71.6008 76.7258 71.2971 76.6043 71.0541C76.6043 70.8111 76.5436 70.4466 76.4221 69.9606L63.6646 27.8608C63.1786 26.1598 62.7533 25.3093 62.3888 25.3093C62.1458 25.3093 61.7206 26.099 61.1131 27.6785L45.8041 69.9606C45.5611 70.5681 45.4396 71.0541 45.4396 71.4186C45.4396 72.0261 45.7433 72.4513 46.3508 72.6943C47.0798 72.9373 47.9303 73.0588 48.9023 73.0588Z" fill="white"/>
<path d="M80.0797 10.9115H57.2858C59.1083 10.4255 60.8093 9.93955 62.3888 9.45356C63.9683 8.96755 65.7301 8.36005 67.6741 7.63105C69.3751 6.78055 70.8331 5.68705 72.0481 4.35055C73.2631 3.01405 74.1743 1.9813 74.7818 1.2523C75.1463 1.0093 75.5108 0.887796 75.8753 0.887796C76.2398 0.766298 76.6043 1.0093 76.9688 1.6168C77.3333 2.3458 77.6371 3.0748 77.8801 3.8038C78.1231 4.5328 78.3661 5.32255 78.6091 6.17305C79.0972 7.7485 79.5874 9.328 80.0797 10.9115Z" fill="#FF4B4B"/>
</svg>
