<svg width="103" height="121" viewBox="0 0 103 121" fill="none" xmlns="http://www.w3.org/2000/svg">
<path d="M4.42245 120.911C3.08595 120.911 1.99245 120.668 1.14195 120.182C0.412946 119.696 0.0484455 119.089 0.0484455 118.36C0.0484455 116.78 1.62795 115.626 4.78695 114.897C9.03945 113.803 12.1377 112.467 14.0817 110.887C16.1472 109.186 17.1799 106.331 17.1799 102.322V19.7625C17.1799 15.6315 16.3294 12.6547 14.6284 10.8322C13.0489 9.00975 10.0722 7.734 5.6982 7.005C3.9972 6.762 2.7822 6.27599 2.0532 5.547C1.3242 4.818 0.959696 4.089 0.959696 3.35999C0.959696 2.5095 1.3242 1.902 2.0532 1.53749C2.9037 1.05149 3.9972 0.808492 5.3337 0.808492C8.9787 0.808492 11.9554 0.869241 14.2639 0.99074C16.5724 1.11225 18.7594 1.2945 20.8249 1.53749C22.8904 1.65899 25.3204 1.71974 28.1149 1.71974C30.7879 1.71974 33.1572 1.59824 35.2227 1.35525C37.4097 1.11224 39.7789 0.869241 42.3304 0.626244C44.8819 0.383247 48.1624 0.261749 52.1719 0.261749C66.5089 0.261749 77.3225 2.32725 84.6125 6.45825C92.024 10.4677 95.7297 17.454 95.7297 27.417C95.7297 31.305 94.8792 34.8892 93.1782 38.1697C91.5987 41.4502 89.7155 44.0017 87.5284 45.8242C85.5845 47.6467 83.6405 49.1047 81.6965 50.1982C79.7525 51.2917 77.3832 52.2637 74.5887 53.1142C74.1027 53.2357 73.8597 53.5395 73.8597 54.0255C73.8597 54.5115 74.1027 54.8152 74.5887 54.9367C77.6262 55.6657 80.7245 56.6377 83.8835 57.8527C87.1639 59.0677 90.2014 60.7687 92.9959 62.9557C95.9119 65.1427 98.2204 67.998 99.9214 71.5215C101.744 74.9235 102.655 79.2975 102.655 84.6435C102.655 91.4475 101.562 96.8542 99.3747 100.864C97.3092 104.752 94.7577 107.728 91.7202 109.794C88.8042 111.859 86.0704 113.56 83.5189 114.897C79.6309 116.841 75.1354 118.299 70.0324 119.271C65.0509 120.243 59.0367 120.729 51.9897 120.729C48.7092 120.729 45.1857 120.608 41.4192 120.365C37.6527 120.122 33.7039 120 29.5729 120C26.7784 120 23.9839 120.061 21.1894 120.182C18.5164 120.304 15.7827 120.425 12.9882 120.547C10.1937 120.79 7.33845 120.911 4.42245 120.911ZM52.9009 111.616C57.1534 111.616 61.1022 110.462 64.7472 108.154C68.3922 105.845 71.3082 102.747 73.4952 98.859C75.6822 94.971 76.7757 90.6577 76.7757 85.9192C76.7757 81.4237 76.1682 77.7787 74.9532 74.9842C73.7382 72.0682 72.2802 69.7597 70.5792 68.0587C68.9997 66.2362 67.5417 64.8997 66.2052 64.0492C64.9902 63.1987 62.9854 62.2875 60.1909 61.3155C57.5179 60.3435 54.0552 59.8575 49.8027 59.8575C47.1297 59.8575 44.9427 60.465 43.2417 61.68C41.5407 62.895 40.6902 64.2922 40.6902 65.8717V99.588C40.6902 103.84 41.7229 106.939 43.7884 108.883C45.9754 110.705 49.0129 111.616 52.9009 111.616ZM48.3447 52.7497C51.3822 52.7497 54.3589 52.3852 57.275 51.6562C60.1909 50.9272 63.1069 49.5907 66.0229 47.6467C67.1164 46.7962 68.4529 45.0345 70.0324 42.3615C71.7334 39.6885 72.5839 35.8005 72.5839 30.6975C72.5839 26.202 71.9157 22.1925 70.5792 18.669C69.3642 15.1455 67.1772 12.4117 64.0182 10.4677C60.9807 8.40225 56.7282 7.36949 51.2607 7.36949C47.2512 7.36949 44.4567 8.03774 42.8772 9.37424C41.4192 10.7107 40.6902 12.7155 40.6902 15.3885V46.1887C40.6902 48.7402 41.6014 50.502 43.4239 51.474C45.2464 52.3245 46.8867 52.7497 48.3447 52.7497Z" fill="white"/>
</svg>
