<svg width="131" height="123" viewBox="0 0 131 123" fill="none" xmlns="http://www.w3.org/2000/svg">
<path d="M65.9702 122.276C62.6897 122.276 58.741 122.154 54.124 121.911C49.507 121.668 44.8292 121.425 40.0907 121.182C35.4737 121.061 31.6465 121 28.609 121C26.179 121 23.6882 121 21.1367 121C18.7067 121.122 16.1552 121.243 13.4822 121.365C10.8092 121.608 7.95396 121.729 4.91646 121.729C3.82296 121.729 2.85096 121.486 2.00046 121C1.14996 120.635 0.724711 120.028 0.724711 119.177C0.724711 118.084 1.08921 117.294 1.81821 116.808C2.66871 116.322 3.88371 115.958 5.46321 115.715C10.0802 114.743 13.2392 113.406 14.9402 111.705C16.6412 110.004 17.4917 107.149 17.4917 103.139V20.7625C17.4917 16.6315 16.6412 13.7155 14.9402 12.0145C13.3607 10.3135 10.2017 8.97699 5.46321 8.005C3.88371 7.762 2.66871 7.39749 1.81821 6.91149C1.08921 6.30399 0.724711 5.45349 0.724711 4.35999C0.724711 3.5095 1.14996 2.902 2.00046 2.53749C2.85096 2.05149 3.82296 1.80849 4.91646 1.80849C7.83246 1.80849 10.627 1.86924 13.3 1.99074C15.973 1.99074 18.5852 2.11224 21.1367 2.35525C23.8097 2.47674 26.4827 2.53749 29.1557 2.53749C30.9782 2.53749 33.4082 2.47674 36.4457 2.35525C39.6047 2.11224 42.946 1.92999 46.4695 1.80849C50.1145 1.5655 53.5165 1.38325 56.6755 1.26175C59.8345 1.01874 62.386 0.897243 64.33 0.897243C74.536 0.897243 83.7092 2.35524 91.8497 5.27124C99.9902 8.18725 106.916 12.2575 112.626 17.482C118.458 22.7065 122.893 28.903 125.93 36.0715C128.968 43.24 130.487 51.016 130.487 59.3995C130.487 67.783 128.968 75.7412 125.93 83.2742C122.893 90.8072 118.519 97.4897 112.808 103.322C107.219 109.154 100.415 113.771 92.3965 117.173C84.499 120.575 75.6902 122.276 65.9702 122.276ZM63.2365 113.892C71.9845 113.892 79.396 111.827 85.471 107.696C91.6675 103.443 96.3452 97.5505 99.5042 90.0175C102.663 82.363 104.243 73.5542 104.243 63.5912C104.243 55.3292 103.149 47.857 100.962 41.1745C98.8967 34.3705 95.92 28.66 92.032 24.043C88.2655 19.3045 83.7092 15.6595 78.3632 13.108C73.1387 10.5565 67.4282 9.28074 61.2317 9.28074C56.8577 9.28074 53.152 9.40225 50.1145 9.64525C47.1985 9.88825 44.9507 10.6172 43.3712 11.8322C41.9132 12.9257 41.1842 14.809 41.1842 17.482V97.672C41.1842 101.924 42.0955 105.266 43.918 107.696C45.862 110.004 48.4742 111.644 51.7547 112.616C55.1567 113.467 58.984 113.892 63.2365 113.892Z" fill="white"/>
</svg>
