<svg width="97" height="121" viewBox="0 0 97 121" fill="none" xmlns="http://www.w3.org/2000/svg">
<path d="M4.53352 120.911C3.19702 120.911 2.10352 120.668 1.25302 120.182C0.524022 119.696 0.159522 119.089 0.159522 118.36C0.159522 116.78 1.73902 115.626 4.89802 114.897C9.27202 113.803 12.3703 112.467 14.1928 110.887C16.1368 109.186 17.1088 106.331 17.1088 102.322V19.7625C17.1088 15.6315 16.2583 12.7155 14.5573 11.0145C12.9778 9.31349 9.94027 7.97699 5.44477 7.005C3.74377 6.6405 2.52877 6.1545 1.79977 5.547C1.07077 4.818 0.706272 4.089 0.706272 3.35999C0.706272 2.5095 1.07077 1.902 1.79977 1.53749C2.65027 1.05149 3.74377 0.808492 5.08027 0.808492C8.60377 0.808492 11.945 0.869241 15.104 0.99074C18.3845 1.11225 21.5435 1.23375 24.581 1.35525C27.6185 1.47674 30.7775 1.53749 34.058 1.53749C39.647 1.53749 45.5398 1.47674 51.7363 1.35525C58.0543 1.23375 63.704 1.173 68.6855 1.173C72.695 1.05149 75.9755 0.869241 78.527 0.626244C81.2 0.383247 82.7795 0.261749 83.2655 0.261749C84.116 0.261749 84.9665 0.443997 85.817 0.808492C86.789 1.17299 87.3358 1.902 87.4573 2.9955C87.9433 7.005 88.5508 10.9537 89.2798 14.8417C90.0088 18.7297 90.3733 22.1317 90.3733 25.0477C90.3733 26.1412 90.0695 26.9917 89.462 27.5992C88.976 28.0852 88.4293 28.3282 87.8218 28.3282C87.2143 28.3282 86.6675 28.146 86.1815 27.7815C85.6955 27.2955 85.2703 26.6272 84.9058 25.7767C83.9338 22.9822 83.0225 20.5522 82.172 18.4867C81.3215 16.4212 80.3495 14.8417 79.256 13.7482C77.6765 12.0472 75.854 10.7107 73.7885 9.73875C71.723 8.76674 69.2323 8.28074 66.3163 8.28074H49.367C47.18 8.28074 45.1753 8.94899 43.3528 10.2855C41.5303 11.5005 40.619 13.2622 40.619 15.5707V51.2917C40.619 52.6282 40.9835 53.661 41.7125 54.39C42.563 55.119 43.535 55.4835 44.6285 55.4835H61.3955C64.676 55.4835 66.9845 54.5722 68.321 52.7497C69.779 50.9272 70.994 48.4365 71.966 45.2775C72.8165 42.8475 73.9708 41.6325 75.4288 41.6325C76.0363 41.6325 76.583 41.997 77.069 42.726C77.555 43.3335 77.798 44.184 77.798 45.2775C77.6765 46.4925 77.555 47.9505 77.4335 49.6515C77.312 51.3525 77.1905 53.0535 77.069 54.7545C77.069 56.4555 77.069 57.9742 77.069 59.3107C77.069 60.7687 77.069 62.409 77.069 64.2315C77.1905 66.054 77.2513 67.8765 77.2513 69.699C77.3728 71.4 77.4943 72.858 77.6158 74.073C77.7373 75.4095 77.6158 76.4422 77.2513 77.1712C77.0083 77.9002 76.5223 78.2647 75.7933 78.2647C73.8493 78.2647 72.452 76.5637 71.6015 73.1618C70.6295 69.7597 69.4753 67.2082 68.1388 65.5072C66.8023 63.8062 64.9798 62.9557 62.6713 62.9557H45.5398C43.9603 62.9557 42.7453 63.2595 41.8948 63.867C41.0443 64.4745 40.619 65.6287 40.619 67.3297V101.957C40.619 105.967 41.4695 108.761 43.1705 110.341C44.8715 111.92 47.4838 112.71 51.0073 112.71H65.9518C68.9893 112.71 71.723 112.406 74.153 111.799C76.7045 111.191 78.8915 110.219 80.714 108.883C82.7795 107.425 84.602 105.481 86.1815 103.051C87.8825 100.499 89.5228 97.7047 91.1023 94.6672C91.5883 93.6952 92.0743 93.0877 92.5603 92.8447C93.0463 92.4802 93.6538 92.298 94.3828 92.298C94.9903 92.4195 95.4155 92.784 95.6585 93.3915C96.023 93.999 96.2053 94.6672 96.2053 95.3962C96.2053 97.0972 95.9015 99.2842 95.294 101.957C94.6865 104.63 93.8968 107.425 92.9248 110.341C92.0743 113.135 91.2845 115.747 90.5555 118.177C90.191 119.028 89.705 119.635 89.0975 120C88.49 120.486 87.761 120.729 86.9105 120.729C83.9945 120.729 80.228 120.668 75.611 120.547C71.1155 120.547 66.1948 120.486 60.8488 120.365C55.5028 120.243 50.0353 120.122 44.4463 120C38.8573 120 33.5113 120 28.4083 120C25.8568 120 23.2445 120.061 20.5715 120.182C18.02 120.304 15.4078 120.425 12.7348 120.547C10.0618 120.79 7.32802 120.911 4.53352 120.911Z" fill="white"/>
</svg>
