<svg width="133" height="122" viewBox="0 0 133 122" fill="none" xmlns="http://www.w3.org/2000/svg">
<path d="M5.81965 121.094C4.48315 121.094 3.26815 120.79 2.17465 120.182C1.08115 119.696 0.534403 119.089 0.534403 118.36C0.534403 116.537 2.29615 115.322 5.81965 114.715C10.4367 113.743 13.4742 112.406 14.9322 110.705C16.5117 109.004 17.3014 106.088 17.3014 101.957V19.5803C17.3014 15.5707 16.4509 12.7155 14.7499 11.0145C13.1704 9.31349 10.0114 7.97699 5.2729 7.005C2.1139 6.3975 0.534403 5.12175 0.534403 3.17774C0.534403 2.44875 0.959653 1.902 1.81015 1.53749C2.66065 1.05149 3.63265 0.808492 4.72615 0.808492C7.64215 0.808492 10.4974 0.869241 13.2919 0.99074C16.0864 0.99074 18.7594 1.11224 21.3109 1.35525C23.8624 1.47674 26.4139 1.53749 28.9654 1.53749C31.3954 1.53749 33.8254 1.47674 36.2554 1.35525C38.8069 1.23375 41.4192 1.11225 44.0922 0.99074C46.7652 0.869241 49.5597 0.808492 52.4757 0.808492C53.6907 0.808492 54.6627 1.05149 55.3917 1.53749C56.1207 1.902 56.4852 2.5095 56.4852 3.35999C56.4852 4.33199 56.0599 5.12174 55.2094 5.72924C54.4804 6.21524 53.3262 6.6405 51.7467 7.005C47.0082 8.22 43.9707 9.73875 42.6342 11.5612C41.4192 13.3837 40.8117 16.1175 40.8117 19.7625V55.848C40.8117 56.577 40.9332 57.2452 41.1762 57.8527C41.5407 58.4602 41.9659 58.764 42.4519 58.764C43.0594 58.764 43.7277 58.521 44.4567 58.035C45.3072 57.4275 46.1577 56.6985 47.0082 55.848L82.5469 18.3045C83.5189 17.211 84.2479 16.239 84.7339 15.3885C85.3414 14.4165 85.6452 13.5052 85.6452 12.6547C85.6452 10.2247 83.5797 8.52374 79.4487 7.55174C77.9907 7.18725 76.8972 6.70125 76.1682 6.09375C75.4392 5.48624 75.0747 4.69649 75.0747 3.7245C75.0747 2.99549 75.4999 2.44874 76.3504 2.08425C77.2009 1.59825 78.1729 1.35525 79.2664 1.35525H90.9304C94.8184 1.35525 98.7672 1.35525 102.777 1.35525C106.786 1.23375 110.674 1.11225 114.441 0.99074C118.329 0.869241 121.791 0.808492 124.829 0.808492C126.044 0.808492 127.077 0.990743 127.927 1.35525C128.899 1.71975 129.385 2.32725 129.385 3.17774C129.385 4.14975 128.778 4.9395 127.563 5.547C126.469 6.1545 125.193 6.57974 123.735 6.82274C118.146 7.67324 113.043 9.07049 108.426 11.0145C103.809 12.9585 99.5569 15.4492 95.6689 18.4867C91.7809 21.5242 88.0752 24.6832 84.5517 27.9638C81.1497 31.2442 77.6869 34.707 74.1634 38.352C70.6399 41.8755 66.9342 45.5812 63.0462 49.4692C61.7097 50.6842 61.8312 52.2637 63.4107 54.2077L107.333 102.322C109.277 104.509 111.039 106.392 112.618 107.972C114.319 109.429 116.202 110.705 118.268 111.799C120.455 112.771 123.189 113.743 126.469 114.715C127.927 115.079 129.264 115.504 130.479 115.99C131.694 116.476 132.301 117.205 132.301 118.177C132.301 119.028 131.694 119.696 130.479 120.182C129.385 120.668 127.806 120.911 125.74 120.911C122.095 120.911 118.632 120.79 115.352 120.547C112.193 120.304 109.034 120.122 105.875 120C102.716 119.878 99.3139 119.818 95.6689 119.818C92.1454 119.818 88.9257 119.878 86.0097 120C83.2152 120.243 79.6917 120.365 75.4392 120.365C74.3457 120.365 73.3737 120.182 72.5232 119.818C71.6727 119.332 71.2474 118.724 71.2474 117.995C71.2474 116.294 72.6447 115.079 75.4392 114.35C79.6917 113.5 81.8787 111.981 82.0002 109.794C82.0002 108.943 81.6964 108.093 81.0889 107.242C80.6029 106.392 79.9347 105.42 79.0842 104.326L46.4614 67.1475C45.7324 66.297 44.9427 65.568 44.0922 64.9605C43.3632 64.353 42.7557 64.0492 42.2697 64.0492C41.7837 64.0492 41.4192 64.4137 41.1762 65.1427C40.9332 65.8717 40.8117 66.6615 40.8117 67.512C40.8117 73.101 40.8724 78.5685 40.9939 83.9145C41.1154 89.139 41.2977 94.9102 41.5407 101.228C41.6622 103.537 41.9659 105.602 42.4519 107.425C43.0594 109.126 44.0922 110.584 45.5502 111.799C47.0082 112.892 49.3167 113.864 52.4757 114.715C54.0552 115.079 55.3309 115.504 56.3029 115.99C57.2749 116.476 57.7609 117.205 57.7609 118.177C57.7609 119.028 57.2142 119.635 56.1207 120C55.0272 120.486 53.8122 120.729 52.4757 120.729C48.8307 120.729 45.7932 120.608 43.3632 120.365C40.9332 120.122 38.6854 119.939 36.6199 119.818C34.6759 119.575 32.4889 119.453 30.0589 119.453C27.5074 119.453 25.0774 119.575 22.7689 119.818C20.4604 120.061 17.9697 120.304 15.2967 120.547C12.7452 120.911 9.58615 121.094 5.81965 121.094Z" fill="white"/>
</svg>
