<svg width="101" height="122" viewBox="0 0 101 122" fill="none" xmlns="http://www.w3.org/2000/svg">
<path d="M13.8021 121.365C10.8861 121.608 7.97005 121.729 5.05406 121.729C3.96055 121.729 2.98855 121.486 2.13805 121C1.28755 120.636 0.862305 120.089 0.862305 119.36C0.862305 117.537 2.38105 116.322 5.41856 115.715C10.0356 114.743 13.3161 113.406 15.2601 111.705C17.2041 110.004 18.1761 107.149 18.1761 103.14V22.9497C18.1761 18.3327 17.3863 14.9307 15.8068 12.7437C14.3488 10.5567 11.4328 8.97721 7.0588 8.00522C5.3578 7.64071 4.1428 7.15471 3.4138 6.54721C2.6848 5.81822 2.3203 5.08921 2.3203 4.36021C2.3203 3.50971 2.6848 2.90221 3.4138 2.53771C4.2643 2.05171 5.3578 1.80871 6.6943 1.80871C9.61031 1.80871 12.2833 1.86946 14.7133 1.99096C17.2648 1.99096 19.6948 2.05171 22.0033 2.17322C24.3118 2.29471 26.6811 2.35546 29.1111 2.35546C31.7841 2.35546 34.2748 2.23396 36.5833 1.99096C39.0133 1.74796 41.4433 1.50496 43.8733 1.26197C46.4248 1.01896 49.3408 0.897461 52.6213 0.897461C67.0798 0.897461 78.6223 3.93496 87.2488 10.01C95.8753 16.085 100.189 24.4685 100.189 35.1605C100.189 42.6935 98.6091 49.6797 95.4501 56.1192C92.4126 62.4372 87.6741 67.5402 81.2346 71.4282C74.9166 75.3162 66.8976 77.2602 57.1776 77.2602V70.6808C57.7359 70.6931 58.3434 70.6992 59.0001 70.6992C64.7106 70.6992 69.0238 67.7832 71.9398 61.9512C74.9773 56.1192 76.4961 48.3432 76.4961 38.6232C76.4961 27.9312 74.3091 20.1552 69.9351 15.2952C65.6826 10.3137 59.9113 7.82296 52.6213 7.82296C49.2193 7.82296 46.5463 8.55196 44.6023 10.01C42.7798 11.3465 41.8686 13.5335 41.8686 16.571L41.6863 102.046C41.6863 106.056 42.6583 109.093 44.6023 111.159C46.6678 113.103 50.1306 114.621 54.9906 115.715C56.5701 115.958 57.7243 116.383 58.4533 116.991C59.1823 117.477 59.5468 118.206 59.5468 119.178C59.5468 120.028 59.1823 120.636 58.4533 121C57.8458 121.365 56.8738 121.547 55.5373 121.547C52.7428 121.547 49.8876 121.425 46.9716 121.182C44.0556 121.061 41.2003 120.939 38.4058 120.818C35.7328 120.696 33.1813 120.636 30.7513 120.636C28.0783 120.636 25.2838 120.696 22.3678 120.818C19.5733 120.939 16.7181 121.122 13.8021 121.365Z" fill="white"/>
<path d="M54.2616 70.5168C55.0074 70.5997 55.9794 70.6543 57.1776 70.6807L57.1776 77.2601C54.1401 77.2601 51.8316 76.8348 50.2521 75.9843C48.6726 75.0123 47.8828 73.9796 47.8828 72.8861C47.8828 72.1571 48.2473 71.5496 48.9763 71.0636C49.8268 70.4561 50.5558 70.1523 51.1633 70.1523C52.2568 70.1523 53.2896 70.2738 54.2616 70.5168Z" fill="#FF4B4B"/>
</svg>
