<svg width="155" height="168" viewBox="0 0 155 168" fill="none" xmlns="http://www.w3.org/2000/svg">
<path d="M140.969 165.74C136.959 166.712 132.585 167.198 127.847 167.198C120.071 167.198 112.599 165.923 105.43 163.371C98.2617 160.941 91.64 157.539 85.565 153.165C80.948 149.885 76.6955 146.786 72.8075 143.87C68.9195 141.076 64.5455 137.613 59.6855 133.482C58.2514 132.22 56.7631 130.985 55.2207 129.777L91.3862 129.777C92.4759 130.784 93.573 131.776 94.6775 132.753C97.8365 135.548 101.664 138.707 106.159 142.23C112.113 146.969 117.702 150.31 122.926 152.254C128.151 154.198 133.618 155.17 139.329 155.17C140.908 155.17 142.366 155.048 143.703 154.805C145.161 154.684 146.254 154.502 146.983 154.259C147.712 154.137 148.38 154.016 148.988 153.894C149.595 153.773 150.203 153.712 150.81 153.712C153.483 153.712 154.82 154.745 154.82 156.81C154.82 157.904 154.577 158.754 154.091 159.362C153.605 160.091 152.694 160.88 151.357 161.731C148.563 163.553 145.1 164.89 140.969 165.74Z" fill="#FF4B4B"/>
<path d="M85.3822 124.005C87.3577 125.981 89.3589 127.905 91.3857 129.777H55.2202C53.4957 128.427 51.7034 127.11 49.8435 125.828C46.4415 123.519 42.7965 121.575 38.9085 119.996C34.656 118.295 30.2212 115.986 25.6042 113.07C21.1087 110.033 16.917 106.327 13.029 101.953C9.26248 97.4573 6.16423 92.1721 3.73423 86.0971C1.42573 79.9006 0.271484 72.7321 0.271484 64.5916C0.271484 56.3296 1.60798 48.4321 4.28098 40.8991C7.07548 33.2446 11.1457 26.4406 16.4917 20.4871C21.9592 14.5336 28.6417 9.79508 36.5392 6.27158C44.5582 2.74808 53.7922 0.986328 64.2412 0.986328C72.5032 0.986328 80.34 2.44433 87.7515 5.36033C95.2845 8.15483 101.967 12.2251 107.799 17.5711C113.631 22.7956 118.187 29.1136 121.468 36.5251C124.87 43.8151 126.571 51.9556 126.571 60.9466C126.571 69.5731 125.052 77.8958 122.014 85.9148C118.977 93.8123 114.481 100.799 108.528 106.874C102.574 112.949 95.163 117.505 86.2935 120.542C85.0785 120.907 84.471 121.454 84.471 122.183C84.471 122.79 84.7747 123.398 85.3822 124.005ZM65.6992 116.351C77.2417 116.351 85.929 112.22 91.761 103.958C97.593 95.5741 100.509 84.3353 100.509 70.2413C100.509 62.2223 99.7192 54.6286 98.1397 47.4601C96.5602 40.1701 94.1302 33.6698 90.8497 27.9593C87.5692 22.2488 83.4382 17.7533 78.4567 14.4728C73.5967 11.1923 67.7647 9.55208 60.9607 9.55208C49.4182 9.55208 40.731 13.6831 34.899 21.9451C29.1885 30.2071 26.3332 41.3243 26.3332 55.2968C26.3332 63.3158 27.123 70.9703 28.7025 78.2603C30.282 85.4288 32.6512 91.9291 35.8102 97.7611C39.0907 103.472 43.161 108.028 48.021 111.43C53.0025 114.71 58.8952 116.351 65.6992 116.351Z" fill="white"/>
</svg>
