<svg width="77" height="125" viewBox="0 0 77 125" fill="none" xmlns="http://www.w3.org/2000/svg">
<path d="M34.4449 124.734C29.2204 124.734 24.2389 124.066 19.5004 122.729C14.8834 121.392 10.6309 119.388 6.74286 116.715C6.01386 116.107 5.34561 115.5 4.73811 114.892C4.13061 114.163 3.64461 113.373 3.28011 112.523C2.30811 109.485 1.63986 105.78 1.27536 101.406C0.91086 96.9102 0.78936 92.597 0.91086 88.466C0.91086 87.6155 1.21461 87.008 1.82211 86.6435C2.55111 86.279 3.40161 86.0967 4.37361 86.0967C5.34561 86.0967 6.07461 86.279 6.56061 86.6435C7.16811 86.8865 7.59336 87.4332 7.83636 88.2837C10.5094 97.3962 14.3974 104.504 19.5004 109.607C24.6034 114.71 30.3746 117.261 36.8141 117.261C40.8236 117.261 44.2256 116.35 47.0201 114.528C49.8146 112.705 51.9409 110.336 53.3989 107.42C54.8569 104.504 55.5859 101.345 55.5859 97.943C55.5859 93.6905 54.7961 90.167 53.2166 87.3725C51.7586 84.578 49.5109 82.0872 46.4734 79.9002C43.4359 77.5917 39.6086 75.1617 34.9916 72.6102C30.0101 69.6942 25.1501 66.6567 20.4116 63.4977C15.6731 60.2172 11.7851 56.39 8.74761 52.016C5.71011 47.5205 4.19136 41.9922 4.19136 35.4312C4.19136 28.6272 5.89236 22.6737 9.29436 17.5707C12.8179 12.3462 17.6779 8.27599 23.8744 5.35999C30.0709 2.44399 37.2394 0.985994 45.3799 0.985994C49.8754 0.985994 54.0671 1.47199 57.9551 2.444C61.8431 3.416 64.9414 4.388 67.2499 5.35999C68.5864 5.84599 69.5584 6.45349 70.1659 7.18249C70.8949 7.9115 71.4416 9.06575 71.8061 10.6452C72.5351 13.1967 73.1426 16.2342 73.6286 19.7577C74.2361 23.2812 74.5399 26.987 74.5399 30.875C74.5399 32.333 73.4464 33.062 71.2594 33.062C70.2874 33.062 69.3154 32.819 68.3434 32.333C67.3714 31.847 66.7639 31.1787 66.5209 30.3282C64.3339 23.2812 61.2964 17.9352 57.4084 14.2902C53.6419 10.6452 48.9641 8.82274 43.3751 8.82274C39.6086 8.82274 36.3889 9.49099 33.7159 10.8275C31.0429 12.0425 28.9166 13.9865 27.3371 16.6595C25.7576 19.211 24.9679 22.5522 24.9679 26.6832C24.9679 29.8422 26.0006 32.7582 28.0661 35.4312C30.2531 38.1042 33.2299 40.7165 36.9964 43.268C40.8844 45.8195 45.1976 48.614 49.9361 51.6515C55.7681 55.0535 60.6281 58.5162 64.5161 62.0397C68.5256 65.4417 71.5631 69.269 73.6286 73.5215C75.6941 77.6525 76.7269 82.5732 76.7269 88.2837C76.7269 96.3027 74.9651 103.046 71.4416 108.513C67.9181 113.859 62.9974 117.93 56.6794 120.724C50.3614 123.397 42.9499 124.734 34.4449 124.734Z" fill="white"/>
</svg>
