<svg width="128" height="123" viewBox="0 0 128 123" fill="none" xmlns="http://www.w3.org/2000/svg">
<path d="M45.9271 9.73885C44.1046 10.7108 43.1934 12.2296 43.1934 14.2951L43.1934 1.14751C44.4916 1.09529 45.7673 1.04306 47.0206 0.990841C50.0581 0.869343 52.6096 0.808594 54.6751 0.808594C55.8901 0.808594 57.0444 1.05159 58.1379 1.5376C59.2314 1.9021 59.7781 2.5096 59.7781 3.36009C59.7781 4.3321 59.2314 5.1826 58.1379 5.91159C57.0444 6.51909 55.7079 6.94434 54.1284 7.18735C50.6049 7.79485 47.8711 8.64535 45.9271 9.73885Z" fill="#FF4B4B"/>
<path d="M65.0633 120.365C64.6988 121.216 64.2735 121.823 63.7875 122.188C63.3015 122.552 62.5725 122.734 61.6005 122.734C60.1425 122.734 59.1097 121.945 58.5023 120.365C57.7733 118.786 56.862 116.599 55.7685 113.804C54.675 111.01 53.703 108.458 52.8525 106.15L18.0428 19.9455C16.8278 16.908 15.1875 14.2957 13.122 12.1087C11.0565 9.80021 8.32275 8.15996 4.92075 7.18796C3.46275 6.70195 2.24775 6.21595 1.27575 5.72995C0.42525 5.12245 0 4.3327 0 3.3607C0 2.5102 0.42525 1.9027 1.27575 1.5382C2.12625 1.0522 3.159 0.809201 4.374 0.809201C6.561 0.809201 9.1125 0.86995 12.0285 0.991448L21.141 1.35595C24.1785 1.47745 26.973 1.5382 29.5245 1.5382C31.9545 1.5382 34.749 1.47745 37.908 1.35595C39.7093 1.28668 41.471 1.2174 43.1933 1.14812V14.2957C43.1933 15.5107 43.3755 16.6649 43.74 17.7584C44.1045 18.8519 44.3475 19.824 44.469 20.6745L69.0728 87.7425C69.3158 88.35 69.5587 88.7145 69.8018 88.836C70.1663 88.9575 70.5308 88.5322 70.8953 87.5602L93.312 28.5112C95.742 22.1932 96.1065 17.2725 94.4055 13.749V1.28083C94.8308 1.30256 95.256 1.3276 95.6813 1.35595H101.878C105.401 1.35595 108.864 1.23445 112.266 0.991448C115.79 0.748452 119.07 0.626953 122.108 0.626953C123.566 0.626953 124.841 0.809204 125.935 1.17371C127.028 1.5382 127.575 2.20645 127.575 3.17845C127.575 4.27195 127.028 5.0617 125.935 5.54771C124.963 6.03371 123.748 6.45895 122.29 6.82345C118.28 7.79545 114.939 9.73945 112.266 12.6555C109.715 15.5715 107.467 19.338 105.523 23.955L75.6338 95.7615C74.2972 99.042 72.9608 102.14 71.6243 105.056C70.4093 107.972 69.255 110.706 68.1615 113.257C67.1895 115.809 66.1568 118.178 65.0633 120.365Z" fill="white"/>
<path d="M94.4053 1.27961L94.4053 13.7478C92.8258 10.1027 89.6061 7.91574 84.7461 7.18674C83.1666 6.94374 81.7693 6.51849 80.5543 5.91099C79.4608 5.18199 78.9141 4.33149 78.9141 3.35949C78.9141 2.50899 79.4608 1.90149 80.5543 1.53699C81.6478 1.17249 82.8628 0.990234 84.1993 0.990234C86.3863 0.990234 88.3911 1.05099 90.2136 1.17249C91.6108 1.17249 93.0081 1.2082 94.4053 1.27961Z" fill="#FF4B4B"/>
</svg>
