<svg width="135" height="122" viewBox="0 0 135 122" fill="none" xmlns="http://www.w3.org/2000/svg">
<path d="M132.563 115.808C131.226 115.079 129.768 114.593 128.189 114.35C125.516 113.5 122.843 111.981 120.17 109.794C117.497 107.485 115.067 104.752 112.88 101.593L83.1729 59.3105C82.0794 57.488 81.5933 56.03 81.7148 54.9365L61.8496 70.4277C62.8216 70.6707 63.9151 71.7642 65.1301 73.7082L84.6309 101.41C85.3599 102.382 85.8459 103.233 86.0889 103.962C86.3319 104.691 86.4534 105.481 86.4534 106.331C86.4534 108.518 85.3599 110.219 83.1729 111.434C81.1074 112.528 78.9811 113.378 76.7941 113.986C75.7006 114.229 74.4856 114.715 73.1491 115.444C71.9341 116.051 71.3266 116.841 71.3266 117.813C71.3266 118.542 71.8734 119.149 72.9669 119.635C74.0604 120 75.2146 120.182 76.4296 120.182C79.5886 120.182 82.8691 120.121 86.2711 120C89.7946 119.878 93.3789 119.818 97.0239 119.818C100.669 119.696 104.253 119.757 107.777 120C111.422 120.243 115.067 120.425 118.712 120.547C122.478 120.79 126.123 120.911 129.647 120.911C131.105 120.911 132.259 120.668 133.109 120.182C134.081 119.818 134.567 119.271 134.567 118.542C134.567 117.448 133.899 116.537 132.563 115.808Z" fill="white"/>
<path d="M81.7145 54.9372L61.8492 70.4285L54.377 63.1385L75.7001 48.0117L81.7145 54.9372Z" fill="#FF4B4B"/>
<path d="M16.2868 120.547C12.8848 120.912 9.48278 121.094 6.08078 121.094C4.62278 121.094 3.34703 120.912 2.25353 120.547C1.16003 120.183 0.613281 119.515 0.613281 118.543C0.613281 117.449 1.09928 116.659 2.07128 116.173C3.16478 115.687 4.44053 115.201 5.89853 114.715C8.20703 113.986 10.637 112.954 13.1885 111.617C15.8615 110.281 18.5953 108.458 21.3898 106.15C24.1843 103.72 26.918 100.804 29.591 97.4017L52.0078 68.7884C53.4658 66.966 54.2555 65.0827 54.377 63.1387L61.8493 70.4287C60.8773 70.1857 59.723 71.0362 58.3865 72.9802L38.7035 99.7709C37.4885 101.593 36.6988 103.173 36.3343 104.509C36.0913 105.846 36.0305 106.879 36.152 107.608C36.2735 109.187 37.0633 110.584 38.5213 111.799C39.9793 113.014 41.984 113.865 44.5355 114.351C46.115 114.594 47.4515 115.08 48.545 115.809C49.6385 116.416 50.1853 117.206 50.1853 118.178C50.1853 119.029 49.6385 119.636 48.545 120.001C47.573 120.365 46.358 120.547 44.9 120.547C41.984 120.547 38.8858 120.426 35.6053 120.183C32.4463 120.061 29.591 120.001 27.0395 120.001C23.273 120.001 19.6888 120.183 16.2868 120.547Z" fill="white"/>
<path d="M84.2669 50.5627C82.8089 52.2637 81.9584 53.7217 81.7154 54.9367L75.7012 48.0112C76.5517 48.0112 77.5237 47.2822 78.6172 45.8242L95.2019 23.4075C96.7814 21.342 97.9357 19.5195 98.6647 17.94C99.3937 16.239 99.7582 14.781 99.7582 13.566C99.7582 12.108 99.0899 10.893 97.7534 9.92096C96.5384 8.82746 94.4729 7.91621 91.5569 7.18722C90.3419 6.94421 89.0662 6.51896 87.7297 5.91146C86.5147 5.18246 85.9072 4.33196 85.9072 3.35996C85.9072 2.50947 86.3932 1.90197 87.3652 1.53746C88.4587 1.17296 89.7952 0.990709 91.3747 0.990709C93.5617 0.990709 95.4449 1.05146 97.0244 1.17297C98.6039 1.17297 100.183 1.23372 101.763 1.35522C103.342 1.47671 105.226 1.53746 107.413 1.53746C110.936 1.53746 114.217 1.35521 117.254 0.990709C120.413 0.504716 123.572 0.261719 126.731 0.261719C128.189 0.261719 129.465 0.504716 130.558 0.990709C131.773 1.35521 132.381 2.02346 132.381 2.99547C132.381 3.96747 131.834 4.69647 130.741 5.18246C129.647 5.66846 128.311 6.15446 126.731 6.64046C123.815 7.49097 120.656 9.37422 117.254 12.2902C113.852 15.0847 110.754 18.183 107.959 21.585L84.2669 50.5627Z" fill="white"/>
<path d="M21.2082 14.1128C23.0307 15.9353 24.9139 18.2438 26.8579 21.0383L52.1907 56.7594C53.8917 59.0678 54.6207 61.1941 54.3777 63.1381L75.7009 48.0113C74.8504 47.8898 73.8176 47.0393 72.6027 45.4599L55.6534 21.7673C52.9804 18.1223 51.6439 15.4494 51.6439 13.7484C51.6439 11.9258 52.4944 10.5893 54.1954 9.73885C55.8964 8.88834 58.4479 8.03784 61.8499 7.18735C63.4294 6.70135 64.7052 6.21535 65.6772 5.72935C66.7707 5.12185 67.3174 4.3321 67.3174 3.36009C67.3174 2.5096 66.7707 1.9021 65.6772 1.5376C64.7052 1.05159 63.6117 0.808594 62.3967 0.808594C59.1162 0.808594 55.6534 0.990845 52.0084 1.35535C48.3634 1.59834 44.5969 1.71984 40.7089 1.71984C35.4844 1.84135 30.0777 1.71985 24.4887 1.35535C18.8997 0.990845 13.7967 0.808594 9.17967 0.808594C7.96466 0.808594 6.93191 0.990845 6.08141 1.35535C5.23091 1.71985 4.80566 2.32735 4.80566 3.17785C4.80566 4.14985 5.23091 4.9396 6.08141 5.5471C7.05341 6.0331 8.26841 6.5191 9.72641 7.0051C12.0349 7.6126 14.1004 8.4631 15.9229 9.5566C17.7454 10.6501 19.5072 12.1688 21.2082 14.1128Z" fill="white"/>
</svg>
