<svg width="104" height="126" viewBox="0 0 104 126" fill="none" xmlns="http://www.w3.org/2000/svg">
<path d="M92.3011 125.729C89.6281 125.729 86.4084 125.668 82.6419 125.547C78.8754 125.547 74.7444 125.486 70.2489 125.365C65.7534 125.365 61.0756 125.304 56.2156 125.182C51.3556 125.182 46.6171 125.182 42.0001 125.182C37.8691 125.182 33.6774 125.182 29.4249 125.182C25.2939 125.304 21.2236 125.425 17.2141 125.547L3.18087 125.729C2.20887 125.729 1.54062 125.061 1.17612 123.724C0.933123 122.388 0.872373 121.598 0.993873 121.355C1.72287 120.018 2.63412 118.378 3.72762 116.434C4.94262 114.49 6.21837 112.425 7.55487 110.238C9.01287 108.051 10.3494 106.046 11.5644 104.223C16.5459 96.6905 21.3451 89.4005 25.9621 82.3535C30.5791 75.3065 35.1354 68.381 39.6309 61.577C44.2479 54.773 48.8649 47.8475 53.4819 40.8005C58.0989 33.7535 62.7766 26.4027 67.5151 18.7482C67.7581 18.3837 68.0011 18.0192 68.2441 17.6547C68.4871 17.1687 68.6086 16.7435 68.6086 16.379C68.6086 15.893 68.3656 15.5285 67.8796 15.2855C67.5151 14.921 66.7254 14.678 65.5104 14.5565C62.9589 14.5565 60.0429 14.5565 56.7624 14.5565C53.6034 14.435 50.3836 14.3742 47.1031 14.3742C44.4301 14.3742 41.8179 14.3742 39.2664 14.3742C36.8364 14.3742 34.5279 14.435 32.3409 14.5565C28.0884 14.678 24.0181 16.0145 20.1301 18.566C16.2421 21.1175 13.1439 24.7017 10.8354 29.3187C10.1064 30.6552 9.19512 32.0525 8.10162 33.5105C7.12962 34.847 5.79312 35.5152 4.09212 35.5152C3.24162 35.5152 2.63412 35.2722 2.26962 34.7862C1.90512 34.1787 1.72287 33.5105 1.72287 32.7815C1.72287 32.0525 1.84437 31.2627 2.08737 30.4122C2.45187 29.4402 2.75562 28.5897 2.99862 27.8607C4.09212 25.4307 4.94262 23.0615 5.55012 20.753C6.27912 18.4445 6.82587 16.0145 7.19037 13.463C7.67637 10.79 8.04087 7.93475 8.28387 4.89724C8.52687 3.19624 8.89137 2.04199 9.37737 1.43449C9.98487 0.826995 10.7746 0.523245 11.7466 0.523245C12.7186 0.523245 13.9336 1.07 15.3916 2.1635C16.9711 3.257 18.4899 4.1075 19.9479 4.715C21.8919 5.44399 24.1396 5.99074 26.6911 6.35525C29.3641 6.71975 32.3409 6.902 35.6214 6.902C38.9019 6.902 42.4254 6.902 46.1919 6.902C49.9584 6.902 53.7856 6.902 57.6736 6.902C60.3466 6.902 63.5056 6.902 67.1506 6.902C70.7956 6.78049 74.5621 6.71974 78.4501 6.71974C82.4596 6.59824 86.2261 6.47674 89.7496 6.35525C93.3946 6.23375 96.5536 6.173 99.2266 6.173C99.9556 6.173 100.624 6.71975 101.231 7.81325C101.96 8.90675 102.203 9.6965 101.96 10.1825L89.9319 28.2252C85.0719 35.2722 80.3941 42.1977 75.8986 49.0017C71.5246 55.8057 67.2114 62.549 62.9589 69.2315C58.8279 75.914 54.6361 82.6572 50.3836 89.4612C46.1311 96.1437 41.7571 102.948 37.2616 109.873C36.2896 111.453 35.8036 112.789 35.8036 113.883C35.8036 114.612 36.1074 115.219 36.7149 115.705C37.3224 116.07 38.1729 116.313 39.2664 116.434C41.2104 116.556 43.7011 116.677 46.7386 116.799C49.7761 116.92 52.6314 116.981 55.3044 116.981C60.0429 116.981 64.4169 116.859 68.4264 116.616C72.4359 116.252 76.2024 115.644 79.7259 114.794C87.1374 112.85 92.9086 106.714 97.0396 96.3867C97.4041 95.5362 97.8901 94.868 98.4976 94.382C99.2266 93.7745 99.9556 93.4707 100.685 93.4707C102.264 93.4707 103.054 94.3212 103.054 96.0222C103.054 97.1157 102.811 98.8167 102.325 101.125C101.839 103.312 101.231 105.742 100.502 108.415C99.8949 111.088 99.2266 113.7 98.4976 116.252C97.7686 118.682 97.1611 120.747 96.6751 122.448C96.3106 123.42 95.7639 124.21 95.0349 124.818C94.3059 125.425 93.3946 125.729 92.3011 125.729Z" fill="white"/>
</svg>
