<svg width="325" height="393" viewBox="0 0 325 393" fill="none" xmlns="http://www.w3.org/2000/svg">
<path d="M90.769 390.875C86.9969 391.043 83.1824 391.211 79.3255 391.378C71.6965 392.042 63.9017 392.373 55.941 392.373C52.2924 392.373 49.3071 391.71 46.9853 390.383C44.9951 389.056 44 387.398 44 385.408C44 381.096 48.312 377.945 56.9361 375.954C68.5454 372.969 77.0037 369.321 82.3108 365.009C87.9496 360.365 90.769 352.57 90.769 341.624V390.875Z" fill="#FF4B4B"/>
<path d="M101.715 390.383C98.1069 390.547 94.4582 390.711 90.769 390.875L90.769 341.624V116.237V65.5112C94.1935 65.7813 97.5104 66.1052 100.72 66.4828C106.359 66.8145 112.993 66.9803 120.622 66.9803C127.919 66.9803 134.387 66.6486 140.026 65.9852C145.996 65.3218 152.464 64.6585 159.43 63.9951C166.396 63.3317 175.351 63 186.297 63C225.437 63 254.958 68.6388 274.86 79.9164C295.093 90.8624 305.21 109.935 305.21 137.134C305.21 147.748 302.888 157.533 298.244 166.489C293.932 175.445 288.791 182.41 282.82 187.386C277.513 192.361 272.206 196.341 266.899 199.327C261.592 202.312 255.124 204.965 247.495 207.287C246.168 207.619 245.505 208.448 245.505 209.775C245.505 211.102 246.168 211.931 247.495 212.263C255.787 214.253 264.246 216.906 272.87 220.223C281.825 223.54 290.118 228.184 297.747 234.155C305.707 240.125 312.01 247.92 316.653 257.539C321.629 266.827 324.116 278.768 324.116 293.362C324.116 311.937 321.131 326.698 315.161 337.643C309.522 348.258 302.556 356.384 294.264 362.023C286.303 367.662 278.84 372.306 271.875 375.954C261.26 381.261 248.988 385.242 235.056 387.895C221.457 390.549 205.038 391.876 185.8 391.876C176.844 391.876 167.225 391.544 156.942 390.881C146.66 390.217 135.88 389.885 124.602 389.885C116.973 389.885 109.344 390.051 101.715 390.383ZM188.287 366.998C199.897 366.998 210.677 363.847 220.628 357.545C230.578 351.243 238.539 342.785 244.51 332.17C250.48 321.556 253.465 309.781 253.465 296.845C253.465 284.572 251.807 274.621 248.49 266.992C245.173 259.032 241.193 252.73 236.549 248.086C232.237 243.11 228.257 239.462 224.608 237.14C221.291 234.818 215.818 232.33 208.189 229.677C200.892 227.023 191.438 225.696 179.829 225.696C172.532 225.696 166.561 227.355 161.918 230.672C157.274 233.989 154.952 237.803 154.952 242.115V334.161C154.952 345.77 157.771 354.228 163.41 359.535C169.381 364.511 177.673 366.998 188.287 366.998ZM175.849 206.292C184.141 206.292 192.268 205.297 200.228 203.307C208.189 201.317 216.15 197.668 224.11 192.361C227.096 190.039 230.744 185.23 235.056 177.932C239.7 170.635 242.022 160.021 242.022 146.09C242.022 133.817 240.198 122.871 236.549 113.252C233.232 103.633 227.262 96.1695 218.637 90.8624C210.345 85.2236 198.736 82.4041 183.809 82.4041C172.864 82.4041 165.235 84.2285 160.923 87.8771C156.942 91.5258 154.952 96.9987 154.952 104.296V188.381C154.952 195.346 157.44 200.156 162.415 202.809C167.391 205.131 171.868 206.292 175.849 206.292Z" fill="white"/>
<path d="M90.7691 116.237C90.7691 104.959 88.4472 96.8324 83.8035 91.857C79.4914 86.8816 71.3649 83.3988 59.4239 81.4087C54.7802 80.7453 51.4632 79.4185 49.473 77.4283C47.4829 75.4381 46.4878 73.448 46.4878 71.4578C46.4878 69.1359 47.4829 67.4775 49.473 66.4824C51.7949 65.1556 54.7802 64.4922 58.4288 64.4922C68.3797 64.4922 76.5062 64.658 82.8084 64.9897C85.5235 65.1326 88.1771 65.3063 90.7691 65.5108L90.7691 116.237Z" fill="#3881FF"/>
<path d="M44.2813 340C44.2813 351.277 41.9594 359.404 37.3157 364.379C33.0037 369.355 24.8771 372.838 12.9361 374.828C8.29237 375.491 4.97543 376.818 2.98525 378.808C0.995085 380.798 0 382.788 0 384.779C0 387.1 0.995085 388.759 2.98525 389.754C5.30712 391.081 8.29238 391.744 11.941 391.744C21.8919 391.744 30.0184 391.578 36.3206 391.247C39.0357 391.104 41.6893 390.93 44.2813 390.726L44.2813 340Z" fill="#3881FF"/>
<circle cx="22.5" cy="22.5" r="22.5" transform="matrix(-1 0 0 1 240 10)" fill="white"/>
<circle cx="22.5" cy="22.5" r="22.5" transform="matrix(-1 0 0 1 180 10)" fill="white"/>
<circle cx="16" cy="16" r="16" transform="matrix(-1 0 0 1 227 17)" fill="black"/>
<circle cx="16" cy="16" r="16" transform="matrix(-1 0 0 1 167 17)" fill="black"/>
<path d="M146 12.5C143.167 12.8333 137.4 11.9 137 5.5" stroke="black" stroke-width="2" stroke-linecap="round"/>
<path d="M209 10.5C206.167 10.8333 200.4 9.9 200 3.5" stroke="black" stroke-width="2" stroke-linecap="round"/>
<path d="M155 10C152.167 10.3333 146.4 9.4 146 3" stroke="black" stroke-width="2" stroke-linecap="round"/>
<path d="M218 8C215.167 8.33333 209.4 7.4 209 1" stroke="black" stroke-width="2" stroke-linecap="round"/>
</svg>
