<svg width="115" height="125" viewBox="0 0 115 125" fill="none" xmlns="http://www.w3.org/2000/svg">
<path d="M96.5684 16.8418L111.51 16.8418C111.735 18.968 111.918 21.0943 112.06 23.2205C112.303 26.744 112.424 30.2675 112.424 33.791C112.546 35.006 112.12 35.9173 111.148 36.5248C110.176 37.0108 109.144 37.0715 108.05 36.707C106.957 36.221 106.167 35.3098 105.681 33.9733C104.709 30.5713 103.555 27.4123 102.218 24.4963C101.003 21.4588 99.1199 18.9073 96.5684 16.8418Z" fill="#FF4B4B"/>
<path d="M112.059 105.962L98.8145 105.962C102.146 102.54 105.103 98.2873 107.685 93.2044C108.657 91.2604 109.993 90.3492 111.694 90.4707C113.395 90.4707 114.246 91.4427 114.246 93.3867C114.246 94.8447 114.064 96.6672 113.699 98.8542C113.335 101.041 112.788 103.41 112.059 105.962Z" fill="#FF4B4B"/>
<path d="M68.3198 124.552C59.2073 124.552 50.5808 123.155 42.4403 120.36C34.2998 117.444 27.0706 113.313 20.7526 107.967C14.5561 102.621 9.63533 96.2423 5.99033 88.8308C2.46683 81.2978 0.705078 72.9751 0.705078 63.8626C0.705078 55.3576 2.46683 47.3386 5.99033 39.8056C9.51383 32.2726 14.4953 25.5901 20.9348 19.7581C27.3743 13.9261 35.0288 9.36983 43.8983 6.08933C52.8893 2.68733 62.7308 0.986328 73.4228 0.986328C77.5538 0.986328 81.4418 1.29008 85.0868 1.89758C88.8533 2.38358 92.4983 3.05183 96.0218 3.90233C99.5453 4.63133 103.008 5.60333 106.41 6.81833C107.747 7.30433 108.779 7.97258 109.508 8.82307C110.359 9.67358 110.845 10.8278 110.966 12.2858C111.169 13.8046 111.35 15.3233 111.511 16.8421H96.5686C93.7741 14.5336 90.2506 12.7111 85.9981 11.3746C81.7456 9.91658 76.7641 9.18758 71.0536 9.18758C64.4926 9.18758 58.5391 10.5241 53.1931 13.1971C47.8471 15.8701 43.2301 19.5758 39.3421 24.3143C35.5756 29.0528 32.6596 34.3988 30.5941 40.3523C28.5286 46.3058 27.4958 52.5631 27.4958 59.1241C27.4958 66.9001 28.4071 74.2508 30.2296 81.1763C32.1736 88.1018 35.0288 94.2376 38.7953 99.5836C42.6833 104.808 47.3611 108.939 52.8286 111.977C58.2961 114.893 64.5533 116.351 71.6003 116.351C80.5913 116.351 87.8813 114.407 93.4703 110.519C95.348 109.212 97.1297 107.694 98.8154 105.962L112.06 105.962C111.452 108.392 110.723 110.822 109.873 113.252C109.387 114.71 108.779 115.804 108.05 116.533C107.321 117.262 106.228 117.93 104.77 118.538C100.153 120.482 94.6853 121.94 88.3673 122.912C82.1708 124.005 75.4883 124.552 68.3198 124.552Z" fill="white"/>
</svg>
