<svg width="308" height="383" viewBox="0 0 308 383" fill="none" xmlns="http://www.w3.org/2000/svg">
<path d="M206.715 381.248L206.715 356.187C212.021 354.534 216.681 352.236 220.696 349.292C226.354 345.297 231.348 339.971 235.675 333.314C240.335 326.324 244.829 318.667 249.156 310.346C250.488 307.683 251.819 306.018 253.151 305.352C254.482 304.354 256.147 303.854 258.144 303.854C259.808 304.187 260.973 305.186 261.639 306.85C262.638 308.515 263.137 310.346 263.137 312.343C263.137 317.003 262.305 322.995 260.641 330.318C258.976 337.641 256.813 345.297 254.15 353.286C251.819 360.942 249.656 368.099 247.658 374.757C246.66 377.087 245.328 378.751 243.664 379.75C242 381.081 240.002 381.747 237.672 381.747C229.683 381.747 219.364 381.581 206.715 381.248Z" fill="#FF4B4B"/>
<path d="M55.9229 380.249C48.9326 380.582 41.7757 380.915 34.4525 381.248C27.1293 381.914 19.6396 382.247 11.9835 382.247C8.32186 382.247 5.32599 381.581 2.99587 380.249C0.998623 378.918 0 377.253 0 375.256C0 370.929 4.32737 367.767 12.9821 365.769C24.9656 362.773 33.4539 359.112 38.447 354.784C43.773 350.124 46.436 342.302 46.436 331.317V105.129C46.436 93.8109 44.1059 85.8219 39.4456 81.1616C35.1183 76.5014 26.7964 72.8398 14.48 70.1768C9.8198 69.1782 6.49105 67.8467 4.49381 66.1823C2.49656 64.1851 1.49794 62.1878 1.49794 60.1906C1.49794 57.8604 2.49656 56.1961 4.49381 55.1974C6.82393 53.8659 9.8198 53.2002 13.4814 53.2002C23.1348 53.2002 32.2888 53.3666 40.9436 53.6995C49.9312 54.0324 58.5859 54.3653 66.9078 54.6981C75.2296 55.031 83.8844 55.1974 92.872 55.1974C108.184 55.1974 124.329 55.031 141.305 54.6981C158.615 54.3653 174.093 54.1988 187.741 54.1988C193.234 54.0324 198.227 53.8243 202.72 53.5747L202.721 78.1502C202.39 77.9855 202.057 77.8242 201.722 77.6665C196.063 75.0035 189.239 73.672 181.25 73.672H134.814C128.822 73.672 123.33 75.5028 118.337 79.1644C113.344 82.4932 110.847 87.3198 110.847 93.6445V191.51C110.847 195.171 111.846 198.001 113.843 199.998C116.173 201.995 118.836 202.994 121.832 202.994H167.769C176.756 202.994 183.081 200.497 186.743 195.504C190.737 190.511 194.066 183.687 196.729 175.032C199.059 168.375 202.221 165.046 206.216 165.046C207.88 165.046 209.378 166.045 210.71 168.042C212.041 169.706 212.707 172.036 212.707 175.032C212.374 178.361 212.041 182.356 211.708 187.016C211.375 191.676 211.042 196.336 210.71 200.996C210.71 205.657 210.71 209.818 210.71 213.479C210.71 217.474 210.71 221.968 210.71 226.961C211.042 231.954 211.209 236.947 211.209 241.94C211.542 246.6 211.875 250.595 212.207 253.924C212.54 257.585 212.207 260.415 211.209 262.412C210.543 264.409 209.212 265.408 207.214 265.408C201.888 265.408 198.06 260.747 195.73 251.427C193.067 242.106 189.905 235.116 186.243 230.456C182.582 225.796 177.589 223.465 171.264 223.465H124.329C120.001 223.465 116.673 224.298 114.342 225.962C112.012 227.626 110.847 230.789 110.847 235.449V330.318C110.847 341.303 113.177 348.959 117.838 353.287C122.498 357.614 129.655 359.778 139.308 359.778H180.252C188.573 359.778 196.063 358.945 202.721 357.281C204.09 356.955 205.422 356.59 206.715 356.188V381.248C194.399 381.248 180.917 381.082 166.271 380.749C151.624 380.416 136.645 380.083 121.333 379.75C106.021 379.75 91.374 379.75 77.3933 379.75C70.403 379.75 63.2462 379.916 55.9229 380.249Z" fill="white"/>
<path d="M232.18 121.606C229.517 113.95 227.021 107.292 224.69 101.633C222.36 95.9744 219.697 91.6471 216.701 88.6512C212.63 84.267 207.97 80.7667 202.721 78.1501L202.721 53.5746C207.215 53.3249 211.209 53.0336 214.704 52.7008C222.027 52.035 226.355 51.7021 227.686 51.7021C230.016 51.7021 232.347 52.2015 234.677 53.2001C237.34 54.1987 238.838 56.1959 239.171 59.1918C240.502 70.1767 242.166 80.9951 244.164 91.6471C246.161 102.299 247.16 111.62 247.16 119.609C247.16 122.604 246.327 124.935 244.663 126.599C243.331 127.93 241.834 128.596 240.169 128.596C238.505 128.596 237.007 128.097 235.675 127.098C234.344 125.767 233.179 123.936 232.18 121.606Z" fill="#3881FF"/>
<path d="M292.459 310.99C289.796 318.647 287.3 325.304 284.97 330.963C282.64 336.622 279.977 340.949 276.981 343.945C272.91 348.329 268.25 351.83 263 354.446L263 379.022C267.494 379.271 271.488 379.563 274.984 379.895C282.307 380.561 286.634 380.894 287.966 380.894C290.296 380.894 292.626 380.395 294.956 379.396C297.619 378.397 299.117 376.4 299.45 373.404C300.781 362.42 302.446 351.601 304.443 340.949C306.44 330.297 307.439 320.977 307.439 312.988C307.439 309.992 306.607 307.662 304.942 305.997C303.611 304.666 302.113 304 300.448 304C298.784 304 297.286 304.499 295.955 305.498C294.623 306.83 293.458 308.66 292.459 310.99Z" fill="#3881FF"/>
<circle cx="100.5" cy="22.5" r="22.5" fill="white"/>
<circle cx="160.5" cy="22.5" r="22.5" fill="white"/>
<circle cx="107" cy="23" r="16" fill="black"/>
<circle cx="167" cy="23" r="16" fill="black"/>
</svg>
