<svg width="90" height="122" viewBox="0 0 90 122" fill="none" xmlns="http://www.w3.org/2000/svg">
<path d="M4.38973 121.729C3.29623 121.729 2.32423 121.486 1.47373 121C0.623227 120.635 0.197977 120.089 0.197977 119.36C0.197977 117.537 1.71673 116.322 4.75423 115.715C9.37123 114.743 12.5302 113.406 14.2312 111.705C16.0537 110.004 16.965 107.149 16.965 103.139V22.9495C16.965 18.3325 16.1752 14.9305 14.5957 12.7435C13.1377 10.5565 10.2217 8.97699 5.84773 8.005C4.14673 7.6405 2.93173 7.1545 2.20273 6.547C1.47373 5.818 1.10923 5.089 1.10923 4.35999C1.10923 3.5095 1.47373 2.902 2.20273 2.53749C3.05323 2.05149 4.14673 1.80849 5.48323 1.80849C8.88523 1.80849 12.1657 1.86924 15.3247 1.99074C18.4837 2.11225 21.582 2.23375 24.6195 2.35525C27.657 2.47674 30.7552 2.53749 33.9142 2.53749C38.2882 2.53749 43.0267 2.53749 48.1297 2.53749C53.3542 2.53749 58.275 2.53749 62.892 2.53749C67.509 2.53749 71.64 2.23374 75.285 1.62624C79.0515 0.897246 82.2105 0.532748 84.762 0.532748C85.491 0.532748 86.2807 0.775748 87.1312 1.26175C88.1032 1.62624 88.65 2.35524 88.7715 3.44874C89.0145 5.75724 89.1967 8.36949 89.3182 11.2855C89.4397 14.2015 89.5005 16.996 89.5005 19.669C89.622 22.342 89.6827 24.4682 89.6827 26.0477C89.6827 28.4777 89.0145 29.6927 87.678 29.6927C87.0705 29.6927 86.4022 29.4497 85.6732 28.9638C85.0657 28.4777 84.6405 27.8095 84.3975 26.959C83.6685 24.286 82.818 21.9167 81.846 19.8512C80.9955 17.6642 79.902 15.9632 78.5655 14.7482C76.986 12.9257 75.1027 11.65 72.9157 10.921C70.8502 10.192 68.4202 9.8275 65.6257 9.8275H49.041C46.125 9.8275 43.938 10.678 42.48 12.379C41.1435 13.9585 40.4752 16.024 40.4752 18.5755C40.4752 20.7625 40.4752 23.3747 40.4752 26.4122C40.4752 29.4497 40.4752 32.305 40.4752 34.978C40.4752 37.7725 40.4752 40.7492 40.4752 43.9082C40.4752 47.0672 40.4752 49.9225 40.4752 52.474C40.4752 53.689 40.7182 54.7217 41.2042 55.5722C41.8117 56.3012 42.723 56.6657 43.938 56.6657C47.2185 56.6657 50.499 56.605 53.7795 56.4835C57.1815 56.362 60.1582 56.3012 62.7097 56.3012C65.6257 56.3012 67.8735 55.4507 69.453 53.7497C71.154 52.0487 72.4905 49.9832 73.4625 47.5532C73.9485 46.7027 74.4952 45.9737 75.1027 45.3662C75.8317 44.7587 76.5 44.455 77.1075 44.455C77.715 44.455 78.2617 44.7587 78.7477 45.3662C79.3552 45.9737 79.5982 46.885 79.4767 48.1C79.2337 50.4085 78.9907 52.5955 78.7477 54.661C78.6262 56.605 78.5655 58.4275 78.5655 60.1285C78.5655 62.3155 78.6262 64.2595 78.7477 65.9605C78.8692 67.6615 79.0515 69.9092 79.2945 72.7037C79.416 74.0402 79.2945 75.073 78.93 75.802C78.687 76.531 78.201 76.8955 77.472 76.8955C76.5 76.8955 75.5887 76.4095 74.7382 75.4375C74.0092 74.4655 73.5232 73.4935 73.2802 72.5215C72.3082 69.241 71.0325 66.9932 69.453 65.7782C67.995 64.5632 66.294 63.9557 64.35 63.9557C62.892 63.9557 61.3732 63.9557 59.7937 63.9557C58.3357 63.8342 56.9385 63.7735 55.602 63.7735C53.7795 63.7735 51.8962 63.7735 49.9522 63.7735C48.1297 63.7735 46.3072 63.8342 44.4847 63.9557C43.1482 64.0772 42.1155 64.5025 41.3865 65.2315C40.6575 65.839 40.293 66.8717 40.293 68.3297C40.293 73.9187 40.293 79.6292 40.293 85.4612C40.4145 91.2932 40.536 97.1252 40.6575 102.957C40.779 106.724 41.8117 109.518 43.7557 111.341C45.6997 113.163 49.1017 114.621 53.9617 115.715C55.5412 115.958 56.6955 116.383 57.4245 116.99C58.1535 117.476 58.518 118.205 58.518 119.177C58.518 120.028 58.1535 120.635 57.4245 121C56.817 121.365 55.845 121.547 54.5085 121.547C51.714 121.547 48.798 121.425 45.7605 121.182C42.8445 121.061 39.9892 120.939 37.1947 120.818C34.5217 120.696 32.031 120.635 29.7225 120.635C27.0495 120.635 24.3157 120.696 21.5212 120.818C18.7267 120.939 15.8715 121.122 12.9555 121.365C10.161 121.608 7.30573 121.729 4.38973 121.729Z" fill="white"/>
</svg>
