<svg width="121" height="125" viewBox="0 0 121 125" fill="none" xmlns="http://www.w3.org/2000/svg">
<path d="M63.9963 124.552C55.3698 124.552 47.2293 123.094 39.5748 120.177C31.9203 117.261 25.1163 113.191 19.1628 107.967C13.3308 102.621 8.71383 96.3027 5.31183 89.0127C2.03133 81.7227 0.39108 73.7037 0.39108 64.9557C0.39108 56.3292 2.03133 48.1887 5.31183 40.5342C8.71383 32.8797 13.4523 26.1365 19.5273 20.3045C25.6023 14.351 32.7708 9.67324 41.0328 6.27124C49.4163 2.74774 58.6503 0.985994 68.7348 0.985994C71.0433 0.985994 73.8986 1.22899 77.3006 1.715C80.7026 2.0795 84.2261 2.5655 87.8711 3.173C91.5161 3.7805 94.8573 4.44875 97.8948 5.17774C101.054 5.90674 103.484 6.63574 105.185 7.36475C106.035 7.72924 106.704 8.21524 107.19 8.82274C107.676 9.30874 107.979 10.0377 108.101 11.0097C108.708 15.0192 109.194 18.8465 109.559 22.4915C109.923 26.1365 110.106 29.2955 110.106 31.9685C110.106 32.9405 109.802 33.791 109.194 34.52C108.708 35.249 108.04 35.6135 107.19 35.6135C105.853 35.6135 104.881 35.1882 104.274 34.3377C103.666 33.3657 103.119 32.333 102.633 31.2395C101.661 29.0525 100.568 26.9262 99.3528 24.8607C98.1378 22.6737 96.6191 20.6082 94.7966 18.6642C93.5816 17.4492 91.8806 16.1735 89.6936 14.837C87.6281 13.379 84.9551 12.164 81.6746 11.192C78.3941 10.22 74.3846 9.73399 69.6461 9.73399C62.9636 9.73399 56.9493 11.1312 51.6033 13.9257C46.2573 16.5987 41.7618 20.3652 38.1168 25.2252C34.4718 30.0852 31.6773 35.6135 29.7333 41.81C27.7893 47.885 26.8173 54.2637 26.8173 60.9462C26.8173 69.3297 27.7893 76.9235 29.7333 83.7275C31.6773 90.41 34.4111 96.1812 37.9346 101.041C41.4581 105.78 45.6498 109.425 50.5098 111.976C55.3698 114.528 60.8373 115.803 66.9123 115.803C71.2863 115.803 74.6883 115.196 77.1183 113.981C79.6698 112.644 81.4923 111.49 82.5858 110.518C83.9223 109.425 85.0158 107.784 85.8663 105.597C86.7168 103.41 87.2028 100.859 87.3243 97.943C87.3243 96.8495 87.3243 95.4522 87.3243 93.7512C87.4458 92.0502 87.5066 90.3492 87.5066 88.6482C87.6281 86.9472 87.6888 85.55 87.6888 84.4565C87.6888 83.12 87.4458 81.9657 86.9598 80.9937C86.5953 79.9002 85.8056 79.0497 84.5906 78.4422C83.4971 77.5917 82.0998 76.8627 80.3988 76.2552C78.6978 75.5262 76.9361 75.0402 75.1136 74.7972C73.4126 74.4327 72.0153 74.1897 70.9218 74.0682C70.0713 73.9467 69.1601 73.5822 68.1881 72.9747C67.2161 72.2457 66.7301 71.3952 66.7301 70.4232C66.7301 69.4512 67.1553 68.7222 68.0058 68.2362C68.9778 67.7502 69.8283 67.5072 70.5573 67.5072C73.3518 67.5072 76.2071 67.568 79.1231 67.6895C82.1606 67.811 85.1373 67.9325 88.0533 68.054C91.0908 68.1755 94.0068 68.2362 96.8013 68.2362C100.203 68.2362 103.545 68.1147 106.825 67.8717C110.227 67.6287 113.69 67.5072 117.213 67.5072C117.942 67.5072 118.671 67.7502 119.4 68.2362C120.251 68.6007 120.676 69.3297 120.676 70.4232C120.676 71.3952 120.251 72.185 119.4 72.7925C118.55 73.4 117.76 73.7645 117.031 73.886C113.751 74.7365 111.503 75.83 110.288 77.1665C109.194 78.503 108.465 80.3862 108.101 82.8162C107.615 85.4892 107.25 87.8585 107.007 89.924C106.886 91.9895 106.825 94.1765 106.825 96.485V102.135C106.825 102.742 107.007 103.289 107.372 103.775C107.858 104.261 108.344 104.808 108.83 105.415C109.316 106.023 109.741 106.63 110.106 107.238C110.592 107.845 110.835 108.453 110.835 109.06C110.835 109.789 110.592 110.579 110.106 111.429C109.741 112.158 108.891 112.644 107.554 112.887C106.704 113.009 105.063 113.677 102.633 114.892C100.203 116.107 97.1051 117.504 93.3386 119.084C89.6936 120.542 85.3803 121.818 80.3988 122.911C75.5388 124.005 70.0713 124.552 63.9963 124.552Z" fill="white"/>
</svg>
