<svg width="139" height="121" viewBox="0 0 139 121" fill="none" xmlns="http://www.w3.org/2000/svg">
<path d="M4.99238 120.729C3.89888 120.729 2.92688 120.486 2.07639 120C1.22588 119.514 0.800635 118.906 0.800635 118.177C0.800635 116.476 2.31938 115.322 5.35688 114.715C9.73089 113.743 12.6469 112.406 14.1049 110.705C15.5629 109.004 16.2919 106.149 16.2919 102.139V19.5803C16.2919 15.5707 15.6844 12.7155 14.4694 11.0145C13.2544 9.31349 10.3991 7.97699 5.90364 7.005C2.86614 6.3975 1.34738 5.1825 1.34738 3.35999C1.34738 2.5095 1.71188 1.902 2.44089 1.53749C3.29139 1.05149 4.32414 0.808492 5.53914 0.808492C8.45514 0.808492 11.1889 0.869241 13.7404 0.99074C16.2919 1.11225 18.7826 1.23375 21.2126 1.35525C23.6426 1.47674 26.0726 1.53749 28.5026 1.53749C30.9326 1.53749 33.4234 1.47674 35.9749 1.35525C38.6479 1.23375 41.3816 1.11225 44.1761 0.99074C46.9706 0.869241 49.7651 0.808492 52.5596 0.808492C55.2326 0.808492 56.5691 1.71974 56.5691 3.54224C56.5691 4.51424 56.2046 5.24324 55.4756 5.72924C54.7466 6.21524 53.5924 6.6405 52.0129 7.005C47.2744 8.22 44.0546 9.73875 42.3536 11.5612C40.7741 13.3837 39.9844 16.1175 39.9844 19.7625V53.661C39.9844 54.5115 40.2274 55.119 40.7134 55.4835C41.3209 55.7265 41.9891 55.848 42.7181 55.848H97.2109C98.5474 55.848 99.2156 54.9975 99.2156 53.2965V19.5803C99.2156 16.0567 98.4259 13.3837 96.8464 11.5612C95.2669 9.73875 92.1079 8.22 87.3694 7.005C85.7899 6.6405 84.5749 6.21524 83.7244 5.72924C82.9954 5.24324 82.6309 4.51424 82.6309 3.54224C82.6309 1.71974 83.9674 0.808492 86.6404 0.808492C89.5564 0.808492 92.4724 0.869241 95.3884 0.99074C98.3044 1.11225 101.099 1.23375 103.772 1.35525C106.566 1.47674 109.239 1.53749 111.791 1.53749C114.099 1.53749 116.347 1.47674 118.534 1.35525C120.721 1.23375 123.03 1.11225 125.46 0.99074C128.011 0.869241 130.745 0.808492 133.661 0.808492C134.754 0.808492 135.726 1.05149 136.577 1.53749C137.427 1.902 137.853 2.5095 137.853 3.35999C137.853 5.1825 136.273 6.3975 133.114 7.005C128.862 7.97699 126.067 9.37424 124.731 11.1967C123.516 13.0192 122.908 15.8137 122.908 19.5803V102.139C122.908 106.149 123.576 109.004 124.913 110.705C126.249 112.406 129.105 113.743 133.479 114.715C136.516 115.322 138.035 116.476 138.035 118.177C138.035 118.906 137.61 119.514 136.759 120C135.909 120.486 134.937 120.729 133.843 120.729C131.049 120.729 128.376 120.608 125.824 120.365C123.273 120.243 120.721 120.122 118.17 120C115.74 119.878 113.31 119.818 110.88 119.818C108.45 119.818 105.898 119.878 103.225 120C100.552 120.122 97.8184 120.243 95.0239 120.365C92.2294 120.486 89.3741 120.547 86.4581 120.547C85.3646 120.547 84.4534 120.365 83.7244 120C82.9954 119.514 82.6309 118.846 82.6309 117.995C82.6309 117.023 82.9954 116.355 83.7244 115.99C84.4534 115.504 85.5469 115.079 87.0049 114.715C91.3789 113.621 94.4771 112.163 96.2996 110.341C98.2436 108.518 99.2156 105.784 99.2156 102.139V67.512C99.2156 66.783 99.0941 66.1147 98.8511 65.5072C98.7296 64.8997 98.2436 64.596 97.3931 64.596H41.9891C40.6526 64.596 39.9844 65.5072 39.9844 67.3297V101.41C39.9844 105.055 41.0171 107.911 43.0826 109.976C45.2696 112.042 48.5501 113.621 52.9241 114.715C54.5036 115.079 55.6579 115.504 56.3869 115.99C57.1159 116.355 57.4804 117.023 57.4804 117.995C57.4804 118.846 57.1159 119.514 56.3869 120C55.7794 120.365 54.8074 120.547 53.4709 120.547C50.6764 120.547 47.8211 120.486 44.9051 120.365C41.9891 120.243 39.1339 120.122 36.3394 120C33.6664 119.878 31.0541 119.818 28.5026 119.818C25.9511 119.818 23.3996 119.878 20.8481 120C18.2966 120.122 15.6844 120.243 13.0114 120.365C10.3384 120.608 7.66538 120.729 4.99238 120.729Z" fill="white"/>
</svg>
