<svg width="60" height="121" viewBox="0 0 60 121" fill="none" xmlns="http://www.w3.org/2000/svg">
<path d="M5.04855 120.729C3.95505 120.729 2.98305 120.486 2.13254 120C1.28205 119.635 0.856795 119.089 0.856795 118.36C0.856795 116.537 2.37555 115.322 5.41305 114.715C10.03 113.743 13.3713 112.406 15.4368 110.705C17.5023 109.004 18.535 106.21 18.535 102.322V19.5803C18.535 15.5707 17.6845 12.7155 15.9835 11.0145C14.2825 9.31349 11.0628 7.97699 6.3243 7.005C3.2868 6.3975 1.76805 5.12175 1.76805 3.17774C1.76805 2.44875 2.1933 1.902 3.0438 1.53749C3.8943 1.05149 4.8663 0.808492 5.9598 0.808492C8.8758 0.808492 11.731 0.869241 14.5255 0.99074C17.32 1.11225 19.993 1.23375 22.5445 1.35525C25.2175 1.47674 27.8905 1.53749 30.5635 1.53749C33.115 1.53749 35.6665 1.47674 38.218 1.35525C40.891 1.23375 43.6248 1.11225 46.4193 0.99074C49.2138 0.869241 52.069 0.808492 54.985 0.808492C56.2 0.808492 57.172 1.05149 57.901 1.53749C58.63 1.902 58.9945 2.5095 58.9945 3.35999C58.9945 4.33199 58.5693 5.12174 57.7188 5.72924C56.9898 6.21524 55.8963 6.6405 54.4383 7.005C49.5783 8.22 46.2978 9.678 44.5968 11.379C42.8958 13.08 42.0453 15.8745 42.0453 19.7625V102.139C42.0453 105.906 43.0173 108.64 44.9613 110.341C47.0268 112.042 50.368 113.5 54.985 114.715C56.5645 115.079 57.7188 115.504 58.4478 115.99C59.2983 116.476 59.7235 117.205 59.7235 118.177C59.7235 119.028 59.359 119.635 58.63 120C57.901 120.365 56.929 120.547 55.714 120.547C52.798 120.547 49.882 120.486 46.966 120.365C44.05 120.243 41.1948 120.122 38.4003 120C35.7273 119.878 33.115 119.818 30.5635 119.818C27.8905 119.818 25.1568 119.878 22.3623 120C19.5678 120.122 16.7125 120.243 13.7965 120.365C10.8805 120.608 7.96455 120.729 5.04855 120.729Z" fill="white"/>
</svg>
