<svg width="123" height="129" viewBox="0 0 123 129" fill="none" xmlns="http://www.w3.org/2000/svg">
<path d="M105.405 19.9258C102.854 17.9818 98.8445 17.0098 93.377 17.0098L119.962 17.0098C119.561 18.4516 119.204 19.8488 118.892 21.2015C118.649 22.6595 118.527 24.3605 118.527 26.3045V29.4028C118.527 31.1038 118.284 32.5618 117.798 33.7768C117.312 34.9918 116.523 35.5993 115.429 35.5993C114.457 35.5993 113.607 35.0525 112.878 33.959C112.27 32.744 111.602 30.9215 110.873 28.4915C109.779 24.6035 107.957 21.7483 105.405 19.9258Z" fill="#FF4B4B"/>
<path d="M52.1879 128C49.3934 128.121 46.4774 128.243 43.4399 128.364C40.5239 128.607 37.6079 128.729 34.6919 128.729C33.4769 128.729 32.3834 128.486 31.4114 128C30.5609 127.635 30.1357 127.089 30.1357 126.36C30.1357 125.388 30.5609 124.598 31.4114 123.99C32.2619 123.383 33.4769 122.958 35.0564 122.715C39.6734 121.743 43.0754 120.406 45.2624 118.705C47.4494 116.883 48.5429 113.967 48.5429 109.957V36.1459C48.5429 31.1644 48.4214 27.3979 48.1784 24.8464C47.9354 22.2949 47.5709 20.5939 47.0849 19.7434C46.7204 18.7714 46.1129 18.2247 45.2624 18.1032C44.0474 17.6172 42.5287 17.3134 40.7062 17.1919C38.8837 17.0704 37.1219 17.0097 35.4209 17.0097H29.7712L6.08203 17.0097C6.14359 16.8255 6.20322 16.6433 6.26093 16.4629C7.35443 13.3039 8.08343 9.59818 8.44793 5.34568C8.69093 3.52318 9.17693 2.36893 9.90593 1.88293C10.7564 1.27543 11.6069 0.97168 12.4574 0.97168C13.1864 0.97168 14.0369 1.76143 15.0089 3.34093C16.1024 4.79893 17.0744 6.01393 17.9249 6.98593C19.0184 8.07943 20.9624 8.92993 23.7569 9.53743C26.5514 10.0234 28.9207 10.2664 30.8647 10.2664L98.1149 10.0842C101.517 10.0842 104.372 9.84118 106.681 9.35518C108.989 8.74768 110.812 8.14018 112.148 7.53268C113.971 6.43918 115.429 5.34568 116.522 4.25218C117.616 3.03718 118.891 2.42968 120.349 2.42968C120.957 2.42968 121.382 2.79418 121.625 3.52318C121.99 4.13068 122.172 4.92043 122.172 5.89243C122.172 6.49993 122.111 7.22893 121.99 8.07942C121.868 8.80843 121.747 9.47668 121.625 10.0842C121.139 12.3927 120.653 14.4582 120.167 16.2807C120.097 16.5249 120.029 16.7679 119.962 17.0097H93.3764H80.9834C78.6749 17.0097 76.8524 17.4349 75.5159 18.2854C74.3009 19.1359 73.3897 21.0192 72.7822 23.9352C72.2962 26.7297 72.0532 31.1037 72.0532 37.0572V109.775C72.0532 113.663 73.1467 116.518 75.3337 118.341C77.5207 120.042 80.9834 121.5 85.7219 122.715C87.1799 123.079 88.3342 123.504 89.1847 123.99C90.0352 124.476 90.4604 125.205 90.4604 126.177C90.4604 127.028 90.0352 127.635 89.1847 128C88.4557 128.364 87.4837 128.547 86.2687 128.547C83.3527 128.547 80.4367 128.486 77.5207 128.364L68.7727 128C65.9782 127.878 63.2444 127.818 60.5714 127.818C57.8984 127.818 55.1039 127.878 52.1879 128Z" fill="white"/>
<path d="M1.70483 27.2158C3.6477 23.33 5.10682 19.928 6.08218 17.0098L29.7713 17.0098C26.2478 17.0098 22.8458 17.8603 19.5653 19.5613C16.2848 21.1408 13.7333 23.3278 11.9108 26.1223C11.4248 26.8513 10.6351 27.884 9.54158 29.2205C8.56958 30.557 7.47608 31.772 6.26108 32.8655C5.16758 33.959 4.01333 34.5058 2.79833 34.5058C1.94783 34.5058 1.34033 34.202 0.975828 33.5945C0.732828 32.987 0.611328 32.3188 0.611328 31.5898C0.611328 30.1318 0.975828 28.6738 1.70483 27.2158Z" fill="#FF4B4B"/>
</svg>
