<svg width="122" height="122" viewBox="0 0 122 122" fill="none" xmlns="http://www.w3.org/2000/svg">
<circle cx="61" cy="61" r="61" fill="black"/>
<path d="M63.394 83.1945C62.98 83.1945 62.566 83.091 62.152 82.884C61.738 82.608 61.531 82.263 61.531 81.849C61.531 81.297 61.7035 80.8485 62.0485 80.5035C62.3935 80.1585 62.842 79.917 63.394 79.779C65.119 79.365 66.361 78.9165 67.12 78.4335C67.879 77.9505 68.2585 77.1225 68.2585 75.9495V66.4275C68.2585 65.8065 68.155 65.358 67.948 65.082C67.81 64.806 67.5685 64.7715 67.2235 64.9785C65.4985 65.8065 63.463 66.462 61.117 66.945C58.84 67.359 56.4595 67.566 53.9755 67.566C51.6295 67.566 49.3525 67.1175 47.1445 66.2205C45.0055 65.3235 43.246 63.978 41.866 62.184C40.555 60.321 39.8995 57.975 39.8995 55.146V46.3485C39.8995 45.1755 39.6235 44.3475 39.0715 43.8645C38.5885 43.3815 37.519 42.8985 35.863 42.4155C35.311 42.2775 34.8625 42.036 34.5175 41.691C34.1725 41.346 34 40.932 34 40.449C34 39.966 34.1725 39.621 34.5175 39.414C34.9315 39.138 35.3455 39 35.7595 39C37.0705 39 38.3125 39.0345 39.4855 39.1035C40.6585 39.1725 41.8315 39.276 43.0045 39.414C44.1775 39.483 45.3505 39.5175 46.5235 39.5175C47.7655 39.5175 49.0075 39.483 50.2495 39.414C51.5605 39.345 52.837 39.276 54.079 39.207C55.39 39.138 56.6665 39.1035 57.9085 39.1035C58.3915 39.1035 58.8055 39.207 59.1505 39.414C59.4955 39.621 59.668 39.966 59.668 40.449C59.668 41.001 59.461 41.415 59.047 41.691C58.702 41.967 58.2535 42.2085 57.7015 42.4155C55.9075 42.9675 54.7345 43.5195 54.1825 44.0715C53.6995 44.6235 53.458 45.3825 53.458 46.3485V54.6285C53.458 57.0435 53.9755 58.9065 55.0105 60.2175C56.0455 61.5285 57.6325 62.184 59.7715 62.184C61.3585 62.184 62.6695 62.0805 63.7045 61.8735C64.8085 61.6665 65.8435 61.149 66.8095 60.321C67.3615 59.838 67.741 59.424 67.948 59.079C68.155 58.734 68.2585 58.389 68.2585 58.044V46.3485C68.2585 45.1755 67.9825 44.3475 67.4305 43.8645C66.9475 43.3815 65.8435 42.8985 64.1185 42.4155C63.5665 42.2775 63.118 42.036 62.773 41.691C62.428 41.346 62.2555 40.932 62.2555 40.449C62.2555 39.966 62.428 39.621 62.773 39.414C63.187 39.138 63.601 39 64.015 39C65.395 39 66.6715 39.0345 67.8445 39.1035C69.0865 39.1725 70.294 39.276 71.467 39.414C72.64 39.483 73.813 39.5175 74.986 39.5175C76.228 39.5175 77.5045 39.483 78.8155 39.414C80.1955 39.345 81.5755 39.276 82.9555 39.207C84.3355 39.138 85.681 39.1035 86.992 39.1035C87.475 39.1035 87.889 39.207 88.234 39.414C88.579 39.621 88.7515 39.966 88.7515 40.449C88.7515 41.001 88.5445 41.415 88.1305 41.691C87.7855 41.967 87.337 42.2085 86.785 42.4155C84.991 42.9675 83.7145 43.5195 82.9555 44.0715C82.2655 44.6235 81.9205 45.3825 81.9205 46.3485V75.846C81.9205 76.812 82.3 77.571 83.059 78.123C83.818 78.675 85.06 79.227 86.785 79.779C87.337 79.986 87.7855 80.2275 88.1305 80.5035C88.5445 80.7795 88.7515 81.1935 88.7515 81.7455C88.7515 82.2285 88.579 82.5735 88.234 82.7805C87.889 82.9875 87.5095 83.091 87.0955 83.091C85.7845 83.091 84.4045 83.0565 82.9555 82.9875C81.5755 82.9185 80.1955 82.8495 78.8155 82.7805C77.5045 82.7115 76.228 82.677 74.986 82.677C73.813 82.677 72.571 82.7115 71.26 82.7805C70.018 82.8495 68.7415 82.9185 67.4305 82.9875C66.1195 83.1255 64.774 83.1945 63.394 83.1945Z" fill="white"/>
</svg>
