<svg width="152" height="262" viewBox="0 0 152 262" fill="none" xmlns="http://www.w3.org/2000/svg">
<path d="M8.72973 12.3303C4.62162 12.7411 1.1982 17.9789 0 20.5465L2.05405 29.7898C6.98378 43.7574 18.4865 37.3214 23.6216 32.3574L26.1892 62.1412L32.8649 95.5195V154.574V212.601C30.8108 232.73 33.7207 246.664 35.4324 251.114C38.3081 261.795 60.2523 262.411 70.8649 261.384L142.757 251.114C147.276 251.114 150.802 242.213 152 237.763C152 227.082 142.072 222.357 137.108 221.33C136.286 139.99 133.514 69.8439 122.73 23.6276C116.978 35.952 112.459 32.5285 110.919 29.2763C107.222 23.5249 104.243 19.6907 103.216 18.4924C103.216 3.29244 99.7928 -0.165218 98.0811 0.00595314L8.72973 12.3303Z" fill="white"/>
<path d="M79.1191 235.737C79.2203 236.889 79.146 237.845 78.8962 238.606C78.6465 239.367 78.2304 240.037 77.648 240.615C77.0633 241.168 76.3454 241.706 75.4943 242.229C74.6432 242.753 73.68 243.352 72.6048 244.027C72.3044 244.211 72.0683 244.377 71.8965 244.524C71.6986 244.674 71.5553 244.845 71.4667 245.037C71.3757 245.203 71.3452 245.457 71.3751 245.797C71.4004 246.085 71.5309 246.219 71.7665 246.198L76.7544 245.76C77.1471 245.725 77.4356 245.555 77.6197 245.248C77.7777 244.944 77.9315 244.443 78.0812 243.744C78.1413 243.527 78.218 243.349 78.3112 243.209C78.4044 243.069 78.5558 242.989 78.7652 242.971C78.9485 242.955 79.0852 243.009 79.1752 243.133C79.2653 243.257 79.3172 243.397 79.331 243.555C79.3747 244.052 79.4076 244.577 79.4298 245.129C79.4496 245.655 79.4694 246.181 79.4892 246.707C79.5068 247.207 79.5362 247.692 79.5776 248.163C79.6167 248.609 79.6712 249.079 79.7411 249.574C79.8087 250.043 79.8775 250.525 79.9474 251.02C80.0434 251.513 80.1145 252.021 80.1605 252.545C80.1743 252.702 80.1488 252.863 80.0841 253.027C79.9908 253.167 79.8657 253.244 79.7086 253.257C79.4991 253.276 79.3232 253.225 79.1808 253.106C79.0383 252.986 78.9317 252.824 78.861 252.619C78.6464 251.979 78.4479 251.521 78.2655 251.247C78.0569 250.975 77.73 250.859 77.2849 250.898L66.0525 251.885C65.6074 251.924 65.2928 252.097 65.1086 252.403C64.9222 252.683 64.7792 253.157 64.6796 253.826C64.6456 254.04 64.5689 254.218 64.4495 254.361C64.3039 254.505 64.1395 254.586 63.9562 254.602C63.7991 254.616 63.6755 254.56 63.5855 254.436C63.4669 254.289 63.4008 254.136 63.387 253.979C63.341 253.455 63.3092 252.944 63.2917 252.444C63.2742 251.944 63.2709 251.456 63.2818 250.98C63.2666 250.507 63.2394 250.047 63.2003 249.602C63.1589 249.131 63.1033 248.648 63.0334 248.153C62.9635 247.657 62.8925 247.149 62.8203 246.628C62.7458 246.08 62.6867 245.558 62.643 245.06C62.6292 244.903 62.6558 244.756 62.7228 244.618C62.7899 244.48 62.915 244.403 63.0983 244.387C63.3078 244.369 63.4718 244.433 63.5903 244.581C63.7066 244.703 63.8131 244.865 63.9101 245.068C64.1794 245.73 64.4433 246.182 64.702 246.423C64.9344 246.666 65.247 246.771 65.6398 246.736L69.2923 246.415C69.4756 246.399 69.6019 246.335 69.6712 246.224C69.7406 246.112 69.7683 245.978 69.7545 245.821C69.6556 244.695 69.3441 243.852 68.8199 243.291C68.2957 242.73 67.6748 242.27 66.9572 241.911C66.3752 241.593 65.7716 241.329 65.1464 241.12C64.5188 240.885 63.9414 240.619 63.414 240.322C62.8605 240.028 62.4036 239.633 62.0434 239.137C61.657 238.643 61.427 237.977 61.3534 237.139C61.2982 236.511 61.4463 235.944 61.7976 235.438C62.1489 234.932 62.665 234.65 63.3457 234.59C63.9741 234.535 64.4842 234.635 64.8761 234.891C65.2418 235.149 65.4419 235.474 65.4764 235.867C65.5109 236.26 65.4429 236.688 65.2726 237.151C65.1022 237.615 65.0332 238.03 65.0654 238.396C65.0907 238.684 65.1768 238.914 65.3238 239.086C65.4424 239.234 65.7203 239.394 66.1576 239.567C66.3501 239.656 66.5842 239.767 66.8598 239.901C67.1069 240.011 67.3683 240.133 67.644 240.267C67.8911 240.378 68.1417 240.527 68.3958 240.716C68.5621 240.807 68.6714 240.85 68.7238 240.845C68.7738 240.815 68.862 240.767 68.9883 240.703C69.5129 240.367 70.1614 239.941 70.934 239.424C71.7065 238.908 72.4899 238.364 73.284 237.793C74.2476 237.049 75.1185 236.299 75.8965 235.545C76.646 234.767 77.0621 234.097 77.1447 233.536C77.1479 233.272 77.2081 233.055 77.3252 232.887C77.4138 232.694 77.589 232.586 77.8508 232.563C78.1127 232.54 78.3628 232.835 78.6013 233.447C78.866 234.057 79.0386 234.82 79.1191 235.737Z" fill="black"/>
<path d="M78.2429 230.719C78.2567 230.876 78.2324 231.05 78.1699 231.24C78.0813 231.432 77.9453 231.537 77.7621 231.553C77.5526 231.571 77.3874 231.493 77.2666 231.319C77.1173 231.121 76.9942 230.921 76.8972 230.718C76.7318 230.337 76.5579 230.009 76.3755 229.735C76.1646 229.437 75.7842 229.312 75.2344 229.361L64.1984 230.33C63.6747 230.376 63.3339 230.551 63.1759 230.855C63.0179 231.159 62.9038 231.512 62.8336 231.914C62.7735 232.131 62.6872 232.349 62.5746 232.57C62.4598 232.765 62.2977 232.872 62.0882 232.89C61.9311 232.904 61.7922 232.824 61.6713 232.65C61.5505 232.476 61.4832 232.31 61.4694 232.153C61.4234 231.629 61.3928 231.131 61.3775 230.657C61.3623 230.184 61.3613 229.722 61.3746 229.272C61.3594 228.799 61.3322 228.339 61.2931 227.894C61.2517 227.423 61.2006 226.992 61.1399 226.602C61.0531 226.213 60.9781 225.811 60.9152 225.394C60.8499 224.952 60.7942 224.468 60.7482 223.945C60.7344 223.788 60.7741 223.639 60.8674 223.499C60.9583 223.333 61.0823 223.243 61.2394 223.229C61.4227 223.213 61.5998 223.276 61.7707 223.42C61.9154 223.565 62.0362 223.739 62.1332 223.942C62.2963 224.297 62.469 224.611 62.6514 224.886C62.8315 225.134 63.1834 225.235 63.7071 225.189L70.3837 224.602C70.6455 224.579 70.8111 224.512 70.8804 224.4C70.9498 224.289 70.8728 224.163 70.6496 224.025L63.7221 219.053C63.6127 219.01 63.5153 218.952 63.4299 218.881C63.3445 218.809 63.2494 218.778 63.1446 218.787C62.621 218.833 62.2921 218.994 62.158 219.269C61.9954 219.521 61.879 219.848 61.8088 220.25C61.7487 220.466 61.66 220.659 61.5429 220.827C61.4258 220.996 61.2625 221.09 61.0531 221.108C60.896 221.122 60.7593 221.068 60.6431 220.946C60.5245 220.798 60.4584 220.646 60.4446 220.489C60.3986 219.965 60.3691 219.479 60.3562 219.032C60.3432 218.585 60.3446 218.149 60.3601 217.726C60.3495 217.304 60.3246 216.871 60.2855 216.426C60.2441 215.955 60.1919 215.511 60.1289 215.094C60.0375 214.654 59.9591 214.212 59.8938 213.769C59.8262 213.3 59.7694 212.804 59.7234 212.28C59.7096 212.123 59.7482 211.962 59.8391 211.795C59.93 211.629 60.054 211.539 60.2111 211.525C60.4206 211.507 60.5988 211.583 60.7458 211.755C60.8906 211.901 61.0114 212.075 61.1083 212.277C61.2476 212.661 61.4226 213.002 61.6335 213.3C61.8159 213.574 62.169 213.688 62.6926 213.642L73.8072 212.666C74.3308 212.62 74.6705 212.431 74.8262 212.101C74.9557 211.773 75.0686 211.407 75.165 211.003C75.2252 210.786 75.3138 210.594 75.4309 210.425C75.5218 210.259 75.672 210.167 75.8815 210.148C76.0648 210.132 76.2157 210.198 76.3342 210.346C76.4266 210.496 76.4785 210.637 76.49 210.768C76.536 211.291 76.5535 211.791 76.5426 212.267C76.5578 212.741 76.5719 213.201 76.5848 213.648C76.5954 214.07 76.6214 214.516 76.6628 214.987C76.7019 215.432 76.7541 215.876 76.8194 216.319C76.8824 216.736 76.9477 217.179 77.0153 217.648C77.1068 218.088 77.1755 218.57 77.2215 219.094C77.233 219.225 77.2064 219.372 77.1416 219.536C77.0484 219.676 76.9102 219.754 76.7269 219.77C76.5174 219.789 76.3546 219.737 76.2383 219.615C76.0936 219.47 75.9728 219.296 75.8758 219.093C75.7104 218.712 75.5377 218.397 75.3576 218.149C75.149 217.877 74.7829 217.764 74.2592 217.811L66.6793 218.476C66.496 218.493 66.3947 218.541 66.3755 218.622C66.3539 218.677 66.3858 218.74 66.4713 218.811L73.6413 223.841C74.0093 224.125 74.4027 224.249 74.8216 224.212C75.3453 224.166 75.6861 223.991 75.8441 223.687C75.9759 223.385 76.0911 223.045 76.1898 222.667C76.25 222.451 76.3386 222.258 76.4557 222.09C76.5467 221.923 76.6968 221.831 76.9063 221.813C77.0634 221.799 77.2012 221.866 77.3198 222.014C77.436 222.136 77.501 222.275 77.5148 222.432C77.5608 222.956 77.5772 223.442 77.5639 223.892C77.5769 224.34 77.5875 224.761 77.5958 225.156C77.6041 225.551 77.629 225.984 77.6704 226.455C77.7095 226.9 77.7629 227.357 77.8304 227.826C77.8957 228.269 77.9633 228.738 78.0332 229.233C78.127 229.7 78.1969 230.195 78.2429 230.719Z" fill="black"/>
<path d="M86.4069 206.971C86.423 207.154 86.3868 207.342 86.2982 207.535C86.2334 207.699 86.1094 207.789 85.9261 207.805C85.7167 207.823 85.5396 207.76 85.3948 207.614C85.274 207.44 85.1628 207.225 85.0613 206.971C84.8297 206.437 84.6 206.074 84.3721 205.883C84.1681 205.664 83.8567 205.572 83.4377 205.609L64.6254 207.262C64.2851 207.292 63.9635 207.386 63.6608 207.545C63.3581 207.703 63.0993 207.911 62.8844 208.167C62.6433 208.426 62.5126 208.741 62.4925 209.112C62.4539 209.273 62.3988 209.397 62.3271 209.482C62.2293 209.57 62.0626 209.624 61.8269 209.645C61.6175 209.664 61.4569 209.638 61.3453 209.569C61.2337 209.499 61.159 209.4 61.1213 209.272C60.8313 208.374 60.4702 207.416 60.0378 206.399C59.6054 205.381 59.1725 204.509 58.7393 203.782C58.6777 203.682 58.6161 203.582 58.5546 203.482C58.4645 203.358 58.4149 203.243 58.4057 203.138C58.3919 202.981 58.4362 202.885 58.5386 202.85C58.6126 202.79 58.715 202.755 58.8459 202.744C59.0554 202.725 59.4123 202.733 59.9167 202.768C60.3926 202.779 60.8007 202.77 61.1411 202.74C61.4029 202.717 61.5577 202.677 61.6055 202.62C61.3206 202.381 60.9269 201.954 60.4243 201.338C59.9194 200.697 59.4588 199.959 59.0425 199.125C58.6262 198.291 58.3824 197.468 58.3111 196.656C58.1869 195.242 58.4619 194.017 59.136 192.982C59.7817 191.923 60.6707 191.079 61.8029 190.452C62.909 189.827 64.1034 189.459 65.3864 189.346C66.617 189.238 67.829 189.369 69.0225 189.739C70.2136 190.083 71.3173 190.632 72.3335 191.387C73.3235 192.145 74.1417 193.049 74.7882 194.1C75.4346 195.152 75.813 196.306 75.9235 197.562C75.9488 197.85 75.9405 198.207 75.8988 198.633C75.8548 199.033 75.7857 199.448 75.6916 199.878C75.5952 200.283 75.4965 200.661 75.3955 201.012C75.3978 201.039 75.4393 201.061 75.5202 201.081C75.601 201.1 75.695 201.118 75.802 201.135C75.9067 201.126 76.0115 201.117 76.1162 201.107L82.6357 200.535C82.9761 200.505 83.2572 200.401 83.479 200.223C83.6986 200.019 83.86 199.754 83.9633 199.429C84.0928 199.101 84.2034 198.708 84.2952 198.252C84.3508 197.983 84.424 197.765 84.515 197.599C84.6321 197.431 84.7954 197.337 85.0048 197.319C85.1619 197.305 85.2997 197.372 85.4183 197.52C85.5345 197.642 85.5995 197.781 85.6133 197.938C85.6823 198.723 85.7155 199.552 85.7129 200.423C85.7341 201.265 85.7746 202.027 85.8345 202.707C85.8736 203.153 85.9269 203.61 85.9945 204.079C86.0598 204.521 86.1274 204.99 86.1973 205.486C86.291 205.952 86.3609 206.447 86.4069 206.971ZM74.1272 197.839C74.1019 197.551 73.9673 197.22 73.7233 196.845C73.4508 196.447 73.0486 196.074 72.5167 195.725C71.9824 195.349 71.2848 195.068 70.424 194.879C69.5608 194.665 68.5139 194.612 67.2833 194.72C65.8433 194.847 64.717 195.091 63.9045 195.452C63.0657 195.816 62.4553 196.226 62.0732 196.682C61.6911 197.137 61.4541 197.594 61.3623 198.05C61.242 198.483 61.1957 198.856 61.2233 199.171C61.2647 199.642 61.412 200.117 61.6651 200.596C61.9183 201.075 62.2027 201.459 62.5183 201.748C62.8339 202.037 63.1096 202.171 63.3452 202.15C63.5547 202.132 63.9605 202.096 64.5627 202.043C65.1649 201.99 65.8337 201.945 66.5691 201.907C67.3022 201.842 67.9711 201.797 68.5756 201.77C69.1778 201.717 69.5967 201.68 69.8323 201.66C70.4345 201.607 71.0907 201.417 71.8008 201.091C72.4824 200.741 73.0632 200.294 73.5432 199.75C73.9946 199.183 74.1893 198.546 74.1272 197.839Z" fill="black"/>
<path d="M74.3172 186.037C74.331 186.194 74.3067 186.368 74.2442 186.558C74.1556 186.75 74.0196 186.855 73.8364 186.871C73.6269 186.889 73.4618 186.811 73.3409 186.637C73.1916 186.439 73.0685 186.239 72.9715 186.036C72.8061 185.655 72.6322 185.327 72.4498 185.053C72.2389 184.755 71.8585 184.63 71.3087 184.679L60.2727 185.648C59.749 185.694 59.4082 185.869 59.2502 186.173C59.0923 186.477 58.9782 186.831 58.9079 187.232C58.8478 187.449 58.7615 187.667 58.649 187.888C58.5341 188.083 58.372 188.19 58.1625 188.208C58.0054 188.222 57.8665 188.142 57.7456 187.968C57.6248 187.794 57.5575 187.628 57.5437 187.471C57.4977 186.947 57.4671 186.449 57.4518 185.975C57.4366 185.502 57.4356 185.04 57.4489 184.59C57.4337 184.117 57.4065 183.657 57.3674 183.212C57.326 182.741 57.275 182.31 57.2143 181.92C57.1274 181.531 57.0525 181.129 56.9895 180.712C56.9242 180.27 56.8685 179.786 56.8225 179.263C56.8087 179.106 56.8484 178.957 56.9417 178.817C57.0326 178.651 57.1566 178.561 57.3137 178.547C57.497 178.531 57.6741 178.594 57.845 178.738C57.9897 178.883 58.1105 179.057 58.2075 179.26C58.3706 179.615 58.5434 179.929 58.7258 180.204C58.9059 180.452 59.2577 180.553 59.7814 180.507L66.458 179.92C66.7198 179.897 66.8854 179.83 66.9547 179.718C67.0241 179.607 66.9471 179.481 66.7239 179.343L59.7964 174.371C59.6871 174.328 59.5897 174.27 59.5042 174.199C59.4188 174.127 59.3237 174.096 59.2189 174.105C58.6953 174.151 58.3664 174.312 58.2323 174.588C58.0697 174.839 57.9533 175.166 57.8831 175.568C57.823 175.784 57.7343 175.977 57.6172 176.145C57.5001 176.314 57.3368 176.408 57.1274 176.426C56.9703 176.44 56.8336 176.386 56.7174 176.264C56.5988 176.116 56.5327 175.964 56.5189 175.807C56.4729 175.283 56.4434 174.797 56.4305 174.35C56.4176 173.903 56.4189 173.467 56.4344 173.044C56.4238 172.622 56.3989 172.189 56.3598 171.744C56.3184 171.273 56.2662 170.829 56.2032 170.412C56.1118 169.972 56.0334 169.53 55.9681 169.087C55.9005 168.618 55.8437 168.122 55.7977 167.598C55.7839 167.441 55.8225 167.28 55.9134 167.113C56.0043 166.947 56.1283 166.857 56.2854 166.843C56.4949 166.825 56.6731 166.901 56.8202 167.073C56.9649 167.219 57.0857 167.393 57.1827 167.595C57.3219 167.979 57.497 168.32 57.7078 168.618C57.8902 168.892 58.2433 169.006 58.7669 168.96L69.8815 167.984C70.4051 167.938 70.7448 167.749 70.9005 167.419C71.03 167.091 71.1429 166.725 71.2393 166.321C71.2995 166.104 71.3881 165.912 71.5052 165.743C71.5961 165.577 71.7463 165.485 71.9558 165.466C72.1391 165.45 72.29 165.516 72.4085 165.664C72.5009 165.814 72.5528 165.955 72.5643 166.086C72.6103 166.609 72.6278 167.109 72.6169 167.585C72.6321 168.059 72.6462 168.519 72.6591 168.966C72.6697 169.388 72.6957 169.834 72.7371 170.305C72.7763 170.75 72.8284 171.194 72.8937 171.637C72.9567 172.054 73.022 172.497 73.0896 172.966C73.1811 173.406 73.2498 173.888 73.2958 174.412C73.3073 174.543 73.2807 174.69 73.216 174.854C73.1227 174.994 72.9845 175.072 72.8012 175.088C72.5917 175.107 72.4289 175.055 72.3127 174.934C72.1679 174.788 72.0471 174.614 71.9502 174.411C71.7847 174.03 71.612 173.715 71.4319 173.467C71.2233 173.195 70.8572 173.083 70.3335 173.129L62.7536 173.794C62.5703 173.811 62.4691 173.859 62.4498 173.94C62.4282 173.995 62.4601 174.058 62.5456 174.129L69.7156 179.159C70.0836 179.443 70.477 179.567 70.896 179.53C71.4196 179.484 71.7604 179.309 71.9184 179.005C72.0502 178.703 72.1654 178.363 72.2642 177.985C72.3243 177.769 72.4129 177.576 72.53 177.408C72.621 177.241 72.7712 177.149 72.9806 177.131C73.1377 177.117 73.2755 177.184 73.3941 177.332C73.5103 177.454 73.5753 177.593 73.5891 177.75C73.6351 178.274 73.6515 178.76 73.6382 179.21C73.6512 179.658 73.6618 180.079 73.6701 180.474C73.6784 180.869 73.7033 181.302 73.7447 181.773C73.7838 182.218 73.8372 182.675 73.9048 183.144C73.97 183.587 74.0376 184.056 74.1075 184.551C74.2013 185.018 74.2712 185.513 74.3172 186.037Z" fill="black"/>
<path d="M72.548 160.945C72.6401 161.993 72.4495 162.827 71.9765 163.449C71.475 164.048 70.8707 164.378 70.1638 164.44C69.614 164.488 69.1027 164.375 68.63 164.1C68.1288 163.801 67.8529 163.363 67.8023 162.787C67.7747 162.473 67.8137 162.166 67.9193 161.867C68.0226 161.541 68.1698 161.264 68.3608 161.036C68.5519 160.808 68.7179 160.596 68.8589 160.399C68.9999 160.202 69.0624 160.012 69.0462 159.828C69.0163 159.488 68.6364 159.218 67.9065 159.018C67.1742 158.792 66.2502 158.636 65.1345 158.549C64.0164 158.437 62.8636 158.379 61.6762 158.378C60.4626 158.379 59.3583 158.424 58.3634 158.511C57.6826 158.571 57.2417 158.807 57.0405 159.221C56.8371 159.608 56.6941 160.082 56.6115 160.644C56.5582 160.939 56.4873 161.182 56.3987 161.375C56.31 161.567 56.1348 161.675 55.873 161.698C55.7159 161.712 55.5769 161.632 55.4561 161.458C55.3068 161.26 55.2264 161.095 55.2149 160.964C55.1505 160.231 55.1276 159.521 55.1464 158.833C55.1389 158.148 55.1076 157.491 55.0524 156.863L54.4382 149.872C54.3807 149.217 54.297 148.565 54.1871 147.915C54.051 147.267 53.9508 146.577 53.8864 145.844C53.8749 145.713 53.9277 145.563 54.0448 145.395C54.1357 145.228 54.2598 145.138 54.4168 145.124C54.6263 145.106 54.8034 145.17 54.9481 145.315C55.0928 145.461 55.2125 145.622 55.3072 145.798C55.451 146.234 55.6403 146.587 55.8751 146.856C56.0837 147.128 56.5021 147.237 57.1305 147.182L67.9702 146.229C68.4938 146.183 68.8346 146.008 68.9926 145.704C69.1244 145.402 69.2385 145.049 69.3349 144.645C69.3951 144.429 69.4837 144.236 69.6008 144.067C69.6894 143.875 69.8385 143.77 70.0479 143.751C70.2312 143.735 70.3821 143.801 70.5007 143.949C70.593 144.099 70.6461 144.253 70.6599 144.41C70.7059 144.933 70.7234 145.433 70.7125 145.909C70.7254 146.356 70.7372 146.791 70.7478 147.212C70.7584 147.633 70.7844 148.079 70.8258 148.551C70.8649 148.996 70.9171 149.44 70.9824 149.883C71.0454 150.299 71.1107 150.742 71.1783 151.211C71.2698 151.652 71.3374 152.121 71.3811 152.618C71.3949 152.775 71.3694 152.936 71.3046 153.1C71.2114 153.24 71.0732 153.318 70.8899 153.334C70.6804 153.352 70.5164 153.288 70.3979 153.14C70.2532 152.994 70.1323 152.82 70.0354 152.618C69.87 152.236 69.6972 151.922 69.5171 151.674C69.3108 151.428 68.9459 151.328 68.4222 151.374L57.7396 152.313C57.2684 152.354 56.9503 152.488 56.7854 152.713C56.5943 152.941 56.5161 153.251 56.5506 153.644L56.7438 155.843C56.7806 156.262 56.9761 156.535 57.3303 156.663C57.656 156.766 57.9497 156.806 58.2116 156.783C59.2589 156.691 60.4024 156.643 61.6422 156.64C62.8797 156.61 64.1241 156.659 65.3754 156.787C66.6267 156.914 67.7813 157.143 68.8392 157.472C69.8971 157.801 70.7679 158.252 71.4515 158.825C72.1066 159.375 72.4721 160.081 72.548 160.945Z" fill="black"/>
<path d="M70.6408 139.237C70.7328 140.285 70.5423 141.119 70.0693 141.741C69.5677 142.339 68.9635 142.67 68.2566 142.732C67.7067 142.78 67.1954 142.667 66.7227 142.392C66.2215 142.093 65.9456 141.655 65.895 141.079C65.8674 140.765 65.9064 140.458 66.012 140.158C66.1153 139.833 66.2625 139.556 66.4536 139.328C66.6446 139.1 66.8107 138.888 66.9517 138.691C67.0927 138.494 67.1551 138.303 67.139 138.12C67.1091 137.78 66.7292 137.51 65.9992 137.31C65.267 137.084 64.343 136.928 63.2272 136.841C62.1091 136.728 60.9564 136.671 59.769 136.67C58.5554 136.671 57.4511 136.715 56.4561 136.803C55.7754 136.863 55.3344 137.099 55.1333 137.513C54.9299 137.9 54.7868 138.374 54.7042 138.936C54.651 139.231 54.5801 139.474 54.4914 139.667C54.4028 139.859 54.2276 139.967 53.9657 139.99C53.8086 140.004 53.6697 139.924 53.5488 139.75C53.3995 139.552 53.3191 139.387 53.3076 139.256C53.2432 138.523 53.2204 137.813 53.2391 137.125C53.2317 136.44 53.2003 135.783 53.1451 135.154L52.5309 128.164C52.4734 127.509 52.3897 126.857 52.2799 126.207C52.1438 125.559 52.0436 124.869 51.9792 124.136C51.9676 124.005 52.0205 123.855 52.1376 123.686C52.2285 123.52 52.3525 123.43 52.5096 123.416C52.7191 123.398 52.8962 123.461 53.0409 123.607C53.1856 123.753 53.3053 123.914 53.3999 124.09C53.5438 124.526 53.7331 124.879 53.9678 125.148C54.1764 125.42 54.5949 125.529 55.2233 125.473L66.0629 124.521C66.5866 124.475 66.9274 124.3 67.0854 123.996C67.2172 123.694 67.3313 123.341 67.4277 122.937C67.4878 122.72 67.5765 122.528 67.6936 122.359C67.7822 122.167 67.9312 122.061 68.1407 122.043C68.324 122.027 68.4749 122.093 68.5934 122.241C68.6858 122.391 68.7388 122.545 68.7526 122.702C68.7987 123.225 68.8162 123.725 68.8052 124.201C68.8181 124.648 68.8299 125.083 68.8405 125.504C68.8512 125.925 68.8772 126.371 68.9186 126.843C68.9577 127.288 69.0099 127.732 69.0752 128.174C69.1382 128.591 69.2035 129.034 69.271 129.503C69.3625 129.943 69.4301 130.412 69.4738 130.91C69.4876 131.067 69.4621 131.228 69.3974 131.392C69.3042 131.532 69.1659 131.61 68.9826 131.626C68.7732 131.644 68.6092 131.58 68.4906 131.432C68.3459 131.286 68.2251 131.112 68.1281 130.909C67.9627 130.528 67.79 130.214 67.6099 129.965C67.4036 129.72 67.0386 129.62 66.515 129.666L55.8324 130.604C55.3611 130.646 55.043 130.779 54.8782 131.005C54.6871 131.233 54.6088 131.543 54.6433 131.936L54.8366 134.135C54.8734 134.554 55.0689 134.827 55.423 134.954C55.7487 135.058 56.0425 135.098 56.3043 135.075C57.3516 134.983 58.4952 134.935 59.735 134.932C60.9725 134.902 62.2168 134.951 63.4681 135.079C64.7194 135.206 65.874 135.435 66.932 135.764C67.9899 136.093 68.8607 136.544 69.5443 137.117C70.1994 137.667 70.5649 138.373 70.6408 139.237Z" fill="black"/>
<path d="M68.4775 119.57C68.4913 119.727 68.467 119.901 68.4046 120.091C68.3159 120.284 68.18 120.388 67.9967 120.404C67.7872 120.422 67.6221 120.344 67.5012 120.17C67.3519 119.972 67.2288 119.772 67.1318 119.57C66.9664 119.188 66.7925 118.861 66.6101 118.586C66.3992 118.288 66.0189 118.163 65.469 118.212L54.433 119.181C53.9094 119.227 53.5685 119.402 53.4106 119.707C53.2526 120.011 53.1385 120.364 53.0683 120.766C53.0081 120.982 52.9218 121.201 52.8093 121.422C52.6945 121.616 52.5323 121.723 52.3229 121.741C52.1658 121.755 52.0268 121.675 51.906 121.501C51.7851 121.327 51.7178 121.161 51.704 121.004C51.658 120.481 51.6274 119.982 51.6122 119.508C51.597 119.035 51.596 118.573 51.6092 118.123C51.594 117.65 51.5668 117.19 51.5277 116.745C51.4863 116.274 51.4353 115.843 51.3746 115.453C51.2877 115.065 51.2128 114.662 51.1498 114.246C51.0845 113.803 51.0289 113.32 50.9829 112.796C50.9691 112.639 51.0088 112.49 51.102 112.35C51.1929 112.184 51.3169 112.094 51.474 112.08C51.6573 112.064 51.8344 112.127 52.0053 112.271C52.15 112.416 52.2709 112.59 52.3678 112.793C52.5309 113.148 52.7037 113.463 52.8861 113.737C53.0662 113.985 53.4181 114.086 53.9417 114.04L60.6183 113.453C60.8801 113.43 61.0457 113.363 61.1151 113.251C61.1844 113.14 61.1075 113.015 60.8842 112.876L53.9567 107.904C53.8474 107.861 53.75 107.804 53.6645 107.732C53.5791 107.66 53.484 107.629 53.3793 107.638C52.8556 107.684 52.5267 107.845 52.3927 108.121C52.2301 108.372 52.1137 108.699 52.0434 109.101C51.9833 109.318 51.8947 109.51 51.7776 109.679C51.6605 109.847 51.4972 109.941 51.2877 109.959C51.1306 109.973 50.9939 109.919 50.8777 109.797C50.7592 109.649 50.693 109.497 50.6792 109.34C50.6332 108.816 50.6037 108.331 50.5908 107.883C50.5779 107.436 50.5792 107 50.5948 106.577C50.5841 106.156 50.5593 105.722 50.5202 105.277C50.4788 104.806 50.4266 104.362 50.3636 103.945C50.2721 103.505 50.1937 103.063 50.1284 102.62C50.0608 102.152 50.004 101.655 49.958 101.132C49.9442 100.974 49.9828 100.813 50.0737 100.646C50.1647 100.48 50.2887 100.39 50.4458 100.376C50.6552 100.358 50.8335 100.435 50.9805 100.606C51.1252 100.752 51.246 100.926 51.343 101.129C51.4822 101.512 51.6573 101.853 51.8682 102.151C52.0506 102.425 52.4036 102.539 52.9272 102.493L64.0418 101.517C64.5655 101.471 64.9051 101.283 65.0608 100.952C65.1903 100.624 65.3033 100.258 65.3997 99.854C65.4598 99.6376 65.5484 99.4452 65.6656 99.2766C65.7565 99.1103 65.9067 99.0179 66.1161 98.9995C66.2994 98.9834 66.4503 99.0493 66.5689 99.1972C66.6612 99.3474 66.7131 99.488 66.7246 99.6189C66.7706 100.143 66.7882 100.642 66.7772 101.118C66.7924 101.592 66.8065 102.052 66.8194 102.5C66.8301 102.921 66.8561 103.367 66.8975 103.838C66.9366 104.284 66.9888 104.728 67.0541 105.17C67.1171 105.587 67.1823 106.03 67.2499 106.499C67.3414 106.939 67.4101 107.421 67.4562 107.945C67.4677 108.076 67.441 108.223 67.3763 108.387C67.2831 108.527 67.1448 108.606 66.9615 108.622C66.7521 108.64 66.5892 108.588 66.473 108.467C66.3283 108.321 66.2074 108.147 66.1105 107.944C65.9451 107.563 65.7723 107.249 65.5922 107.001C65.3836 106.729 65.0175 106.616 64.4938 106.662L56.9139 107.328C56.7307 107.344 56.6294 107.392 56.6101 107.473C56.5885 107.528 56.6205 107.591 56.7059 107.663L63.8759 112.692C64.2439 112.976 64.6374 113.1 65.0563 113.063C65.5799 113.017 65.9208 112.842 66.0787 112.538C66.2105 112.236 66.3258 111.896 66.4245 111.518C66.4846 111.302 66.5733 111.11 66.6904 110.941C66.7813 110.775 66.9315 110.682 67.141 110.664C67.298 110.65 67.4359 110.717 67.5544 110.865C67.6706 110.987 67.7356 111.126 67.7495 111.283C67.7955 111.807 67.8118 112.294 67.7986 112.743C67.8115 113.191 67.8221 113.612 67.8304 114.007C67.8388 114.402 67.8636 114.835 67.905 115.306C67.9441 115.752 67.9975 116.209 68.0651 116.678C68.1304 117.12 68.198 117.589 68.2679 118.085C68.3616 118.551 68.4315 119.046 68.4775 119.57Z" fill="black"/>
<path d="M70.8443 77.1366C70.8673 77.3984 70.7536 77.6063 70.5033 77.7602C70.253 77.9142 69.9468 78.0334 69.5849 78.118C69.0442 78.271 68.6453 78.3852 68.3881 78.4606C68.1547 78.5075 67.8036 78.5647 67.3346 78.6323C66.4012 78.8198 65.7565 79.1403 65.4006 79.5938C65.0686 80.0187 64.929 80.5323 64.9819 81.1345L65.9722 92.4062C66.009 92.8251 66.0458 93.244 66.0826 93.6629C66.1456 94.0795 66.2109 94.5224 66.2785 94.9913C66.3438 95.4341 66.3994 95.9174 66.4454 96.441C66.4592 96.5981 66.4361 96.7849 66.3759 97.0012C66.2873 97.1937 66.1513 97.298 65.9681 97.3141C65.7586 97.3325 65.5934 97.2547 65.4726 97.0806C65.3233 96.8826 65.2002 96.6824 65.1032 96.4798C64.9378 96.0986 64.7639 95.7708 64.5815 95.4966C64.3729 95.2247 64.0068 95.1118 63.4831 95.1578L52.4078 96.1308C51.8842 96.1768 51.5434 96.3519 51.3854 96.656C51.2274 96.9601 51.1133 97.3132 51.0431 97.7151C50.9829 97.9315 50.8966 98.1501 50.7841 98.3711C50.6693 98.5659 50.5072 98.6725 50.2977 98.6909C50.1144 98.707 49.9754 98.6268 49.8808 98.4505C49.7577 98.2502 49.6892 98.0715 49.6754 97.9144C49.6294 97.3908 49.5988 96.8921 49.5835 96.4185C49.5683 95.945 49.5673 95.4833 49.5806 95.0336C49.5677 94.5862 49.5417 94.1399 49.5026 93.6948C49.4611 93.2236 49.4101 92.7927 49.3494 92.4022C49.2625 92.0141 49.1876 91.6117 49.1246 91.1951C49.0593 90.7523 49.0037 90.2691 48.9577 89.7454C48.9439 89.5883 48.9836 89.4397 49.0768 89.2996C49.1677 89.1333 49.2918 89.0432 49.4489 89.0294C49.6321 89.0133 49.8092 89.0769 49.9801 89.2202C50.1225 89.3396 50.2422 89.5006 50.3392 89.7032C50.5046 90.0844 50.6785 90.4121 50.8609 90.6864C51.041 90.9344 51.3929 91.0354 51.9165 90.9894L62.5205 90.0577C62.9918 90.0163 63.323 89.8817 63.5141 89.6538C63.6766 89.4021 63.7418 89.0929 63.7096 88.7264L63.4508 85.7808C63.4163 85.3881 63.2982 85.095 63.0965 84.9017C62.8687 84.7106 62.5191 84.6358 62.0478 84.6772L51.4438 85.6088C50.9201 85.6548 50.5913 85.8157 50.4572 86.0913C50.2969 86.3692 50.1817 86.7091 50.1114 87.1111C50.0513 87.3275 49.9627 87.5199 49.8455 87.6885C49.7284 87.8571 49.5651 87.9506 49.3557 87.969C49.1724 87.9851 49.0357 87.9312 48.9457 87.8072C48.8272 87.6593 48.761 87.5068 48.7472 87.3497C48.7012 86.826 48.6717 86.3405 48.6588 85.8931C48.6459 85.4457 48.6472 85.0102 48.6627 84.5867C48.6498 84.1393 48.6238 83.693 48.5847 83.2479C48.5433 82.7766 48.4911 82.3327 48.4281 81.9161C48.3389 81.5017 48.2617 81.0732 48.1964 80.6304C48.1288 80.1614 48.072 79.665 48.026 79.1414C48.0122 78.9843 48.0508 78.8226 48.1417 78.6563C48.2065 78.4923 48.3305 78.4023 48.5137 78.3862C48.7232 78.3678 48.9015 78.4444 49.0485 78.6162C49.1932 78.7618 49.314 78.9359 49.411 79.1384C49.5502 79.522 49.7241 79.8497 49.9327 80.1216C50.1151 80.3958 50.4681 80.5099 50.9918 80.4639L62.3027 79.4702C62.4598 79.4564 62.5792 79.3139 62.661 79.0429C62.7142 78.748 62.7213 78.378 62.6822 77.9329C62.6569 77.6449 62.6077 77.3853 62.5346 77.1543C62.4354 76.9256 62.3754 76.6934 62.3547 76.4577C62.3225 76.0912 62.398 75.8998 62.5813 75.8837C62.6075 75.8814 62.6729 75.8757 62.7777 75.8665C62.8824 75.8573 62.9621 75.8635 63.0168 75.885C63.2809 75.8882 63.746 75.9265 64.412 75.9999C65.0496 76.0494 65.8073 76.1148 66.6852 76.196C67.5607 76.251 68.4459 76.2656 69.3407 76.2397C69.8143 76.2245 70.1781 76.3113 70.4322 76.5C70.6839 76.6626 70.8213 76.8748 70.8443 77.1366Z" fill="black"/>
<path d="M64.5623 70.0517C64.6244 70.7586 64.5117 71.4281 64.2242 72.0602C63.9368 72.6923 63.5342 73.2158 63.0166 73.6307C62.4966 74.0194 61.9094 74.2425 61.2548 74.3C60.3646 74.3782 59.5942 74.1688 58.9437 73.6719C58.2909 73.1488 57.6806 72.3581 57.1127 71.2999L55.2739 67.939C54.9922 67.4361 54.7552 67.1403 54.5627 67.0517C54.3679 66.9368 54.0218 66.9013 53.5243 66.945L51.2822 67.1024C50.5468 67.1406 49.9823 67.3222 49.5887 67.647C49.1689 67.9741 48.9843 68.4257 49.0349 69.0017C49.0648 69.3421 49.1732 69.6755 49.3602 70.0021C49.521 70.331 49.7011 70.579 49.9005 70.7462C50.0122 70.8155 50.1488 70.8695 50.3105 70.908C50.4437 70.9227 50.5889 70.9232 50.746 70.9094C50.9031 70.8956 51.0983 70.8652 51.3317 70.8183C51.5388 70.7737 51.7209 70.7445 51.878 70.7307C52.0351 70.7169 52.263 70.908 52.5616 71.3039C52.8341 71.7021 53.0992 72.167 53.357 72.6984C53.5886 73.2321 53.7216 73.6954 53.7561 74.0881C53.7722 74.2714 53.7086 74.4485 53.5653 74.6194C53.4197 74.7641 53.2291 74.8468 52.9935 74.8675C52.5745 74.9043 52.156 74.796 51.738 74.5425C51.2938 74.2913 50.7811 73.8614 50.1999 73.2528C49.5641 72.6227 48.988 71.9213 48.4715 71.1488C47.9551 70.3762 47.5315 69.6087 47.2007 68.8462C46.8675 68.0575 46.6768 67.3883 46.6285 66.8385C46.5043 65.4246 46.8635 64.2585 47.7063 63.3401C48.5229 62.4241 49.6797 61.9267 51.1768 61.8479L59.1274 61.3473C59.7319 61.3205 60.2332 61.1709 60.6315 60.8985C61.0297 60.626 61.2138 60.3196 61.1839 59.9792C61.1402 59.4818 60.9321 59.0647 60.5595 58.7281C60.4741 58.6564 60.4279 58.5813 60.421 58.5028C60.4095 58.3719 60.4396 58.2637 60.5112 58.1782C60.5805 58.0666 60.6807 58.005 60.8116 57.9935C61.1258 57.9659 61.5523 58.1659 62.0912 58.5935C62.6062 59.0496 63.0057 59.5422 63.2896 60.0713C63.5998 60.5981 63.7813 61.1626 63.8342 61.7648C63.963 63.2311 63.3238 64.5141 61.9165 65.614L61.9234 65.6926C62.7848 66.4876 63.4167 67.2236 63.8192 67.9006C64.2456 68.5492 64.4932 69.2662 64.5623 70.0517ZM61.8024 67.9195C61.7771 67.6315 61.7171 67.3993 61.6225 67.2229C61.5016 67.0489 61.3284 66.8794 61.1029 66.7145C60.9912 66.6452 60.8546 66.5912 60.6929 66.5526C60.505 66.5164 60.2932 66.5086 60.0576 66.5293L57.2195 66.6599C56.9577 66.6829 56.7909 66.7372 56.7193 66.8226C56.6477 66.9081 56.6164 67.0031 56.6256 67.1079C56.6302 67.1602 56.6491 67.2245 56.6822 67.3008C56.7152 67.377 56.7626 67.4652 56.8241 67.5654C57.2574 68.2925 57.6865 68.822 58.1115 69.1541C58.5102 69.4884 59.1285 69.6188 59.9664 69.5452C60.7257 69.4785 61.2355 69.2754 61.4959 68.9359C61.7302 68.5987 61.8323 68.2599 61.8024 67.9195Z" fill="black"/>
<path d="M62.1159 47.1621C62.1297 47.3192 62.1019 47.4536 62.0326 47.5652C61.937 47.6792 61.8369 47.7407 61.7322 47.7499C61.6012 47.7614 61.4788 47.7194 61.3649 47.6239C61.2225 47.5045 61.1313 47.3674 61.0913 47.2126C60.8312 46.655 60.6254 46.2641 60.4738 46.0399C60.3198 45.7896 59.9811 45.6875 59.4574 45.7335L47.9501 46.7445C47.4264 46.7905 47.0702 46.9405 46.8815 47.1946C46.6927 47.4486 46.5343 47.8979 46.4062 48.5424C46.3723 48.7564 46.3075 48.9204 46.212 49.0344C46.1142 49.1221 46.0129 49.1706 45.9081 49.1798C45.7772 49.1913 45.6679 49.1481 45.5802 49.0503C45.4901 48.9263 45.4382 48.7857 45.4244 48.6286C45.3669 47.9741 45.3328 47.4362 45.3222 47.0149C45.3116 46.5937 45.3152 46.1844 45.333 45.7871C45.3509 45.3898 45.338 44.9423 45.2943 44.4449C45.2529 43.9736 45.1899 43.557 45.1053 43.195C45.0184 42.8069 44.9423 42.3914 44.8771 41.9486C44.7833 41.4819 44.7042 40.882 44.6398 40.1489C44.4235 37.6877 44.6194 35.8631 45.2275 34.6752C45.8355 33.4872 46.6893 32.8449 47.789 32.7483C48.7054 32.6678 49.5458 32.9237 50.3103 33.5162C51.0724 34.0825 51.578 34.8824 51.8271 35.9159C51.8317 35.9682 51.8745 36.0041 51.9553 36.0233C52.01 36.0449 52.0458 36.0022 52.0628 35.8952C52.1247 35.0982 52.2697 34.3467 52.4979 33.6406C52.7261 32.9346 53.0967 32.3479 53.6098 31.8807C54.0966 31.4158 54.7721 31.1453 55.6361 31.0694C56.6834 30.9774 57.612 31.1861 58.4219 31.6954C59.2056 32.207 59.8599 33.0466 60.3846 34.2142C60.8809 35.3579 61.2107 36.8592 61.374 38.7182C61.443 39.5037 61.4801 40.226 61.4852 40.8852C61.4904 41.5444 61.5275 42.2667 61.5965 43.0522C61.631 43.4449 61.6866 43.9281 61.7634 44.5019C61.8402 45.0756 61.9135 45.61 61.9834 46.1052C62.0533 46.6004 62.0975 46.9527 62.1159 47.1621ZM59.6783 38.788C59.6093 38.0026 59.253 37.4006 58.6094 36.9822C57.9373 36.54 57.1692 36.3568 56.3052 36.4327C55.2841 36.5224 54.537 36.8783 54.0639 37.5003C53.5647 38.1247 53.3576 38.9212 53.4428 39.89C53.4681 40.178 53.5303 40.4364 53.6296 40.6651C53.7265 40.8677 53.9583 40.9528 54.3249 40.9206L57.8203 40.6135C58.4486 40.5583 58.9335 40.3706 59.2747 40.0504C59.5898 39.7325 59.7243 39.3117 59.6783 38.788ZM52.0427 40.1713C51.9507 39.124 51.6102 38.4019 51.0213 38.0051C50.4061 37.6106 49.6927 37.449 48.8811 37.5203C47.8599 37.6101 47.1595 37.8959 46.7797 38.3778C46.3737 38.862 46.2063 39.5099 46.2776 40.3216C46.3213 40.8191 46.4429 41.1514 46.6423 41.3186C46.8155 41.488 47.0853 41.5567 47.4519 41.5245L51.2222 41.1932C51.5102 41.1679 51.7259 41.0698 51.8692 40.8989C52.0125 40.728 52.0703 40.4855 52.0427 40.1713Z" fill="black"/>
<path d="M119.079 249.007C119.102 249.269 119.055 249.484 118.938 249.652C118.845 249.793 118.719 249.87 118.562 249.883C118.17 249.918 117.869 249.654 117.662 249.092C117.348 248.222 117.018 247.618 116.671 247.279C116.323 246.914 115.729 246.768 114.891 246.842L97.0218 248.412C96.1839 248.485 95.5967 248.708 95.26 249.081C94.9234 249.454 94.6917 250.12 94.5651 251.081C94.5164 251.429 94.4324 251.674 94.313 251.816C94.1674 251.961 94.003 252.041 93.8197 252.057C93.6626 252.071 93.5248 252.004 93.4062 251.856C93.2615 251.71 93.1777 251.507 93.1547 251.245C93.0971 250.59 93.0516 249.922 93.0179 249.238C92.9843 248.555 92.9649 247.884 92.9598 247.225C92.9285 246.568 92.8863 245.939 92.8334 245.337C92.7138 243.975 92.5731 242.523 92.4112 240.981C92.2492 239.438 92.1023 238.066 91.9703 236.864C91.8967 236.026 91.7964 235.335 91.6696 234.793C91.5166 234.252 91.4354 233.929 91.4262 233.824C91.4101 233.641 91.4583 233.439 91.5708 233.218C91.6549 232.973 91.8266 232.826 92.0862 232.777C93.0196 232.589 93.9244 232.378 94.8009 232.143C95.6773 231.907 96.4559 231.76 97.1366 231.7C97.3722 231.679 97.5601 231.716 97.7002 231.809C97.8404 231.902 97.9162 232.014 97.9277 232.145C97.9392 232.276 97.8995 232.425 97.8085 232.591C97.7153 232.731 97.5674 232.85 97.3648 232.947C96.7333 233.266 96.191 233.551 95.7382 233.802C95.2853 234.053 94.9263 234.322 94.6613 234.609C94.4009 234.948 94.1594 235.352 93.9366 235.82C93.7139 236.288 93.6325 236.863 93.6923 237.544L93.9511 240.489C94.0017 241.065 94.2025 241.549 94.5535 241.94C94.8783 242.334 95.3156 242.506 95.8655 242.458L103.288 241.806C103.602 241.778 103.83 241.666 103.971 241.469C104.112 241.272 104.17 241.029 104.145 240.741L103.841 237.285C103.781 236.604 103.516 236.14 103.046 235.891C102.547 235.618 101.96 235.392 101.284 235.214C100.771 235.075 100.499 234.835 100.469 234.494C100.458 234.363 100.526 234.239 100.674 234.12C100.795 234.004 101.001 233.946 101.292 233.947C101.608 233.946 101.951 233.942 102.32 233.936C102.689 233.93 103.057 233.924 103.426 233.918C103.793 233.886 104.146 233.855 104.487 233.825C104.801 233.797 105.141 233.767 105.508 233.735C105.872 233.677 106.238 233.631 106.604 233.599C106.968 233.541 107.32 233.483 107.658 233.427C108.02 233.343 108.296 233.332 108.486 233.394C108.65 233.459 108.739 233.57 108.753 233.727C108.789 234.146 108.475 234.477 107.811 234.72C107.046 235.025 106.467 235.339 106.073 235.664C105.68 235.989 105.506 236.413 105.552 236.937L105.873 240.589C105.9 240.904 106.001 241.145 106.174 241.315C106.319 241.461 106.548 241.52 106.862 241.492L114.324 240.836C115.11 240.767 115.645 240.549 115.929 240.181C116.213 239.813 116.324 239.275 116.262 238.568L115.965 235.191C115.915 234.615 115.801 234.071 115.624 233.559C115.447 233.046 115.186 232.621 114.839 232.282C114.434 231.869 113.94 231.503 113.358 231.185C112.776 230.867 112.157 230.578 111.501 230.319C111.308 230.231 111.181 230.136 111.119 230.036C111.029 229.912 110.978 229.772 110.964 229.615C110.952 229.484 111.023 229.385 111.175 229.319C111.325 229.227 111.492 229.172 111.675 229.156C112.121 229.117 112.624 229.139 113.185 229.221C113.746 229.304 114.35 229.423 114.997 229.577C115.616 229.707 116.234 229.838 116.852 229.968C117.04 230.004 117.181 230.11 117.276 230.287C117.368 230.437 117.423 230.604 117.439 230.787C117.469 231.127 117.512 231.77 117.568 232.715C117.649 233.631 117.731 234.719 117.816 235.978C117.9 237.237 117.988 238.536 118.079 239.873C118.196 241.209 118.305 242.452 118.406 243.604C118.452 244.128 118.516 244.703 118.598 245.329C118.679 245.955 118.761 246.594 118.845 247.246C118.953 247.87 119.031 248.457 119.079 249.007Z" fill="black"/>
<path d="M117.108 226.574C117.129 226.809 117.081 227.011 116.963 227.18C116.87 227.32 116.745 227.397 116.588 227.411C116.195 227.445 115.895 227.182 115.687 226.619C115.373 225.75 115.043 225.146 114.697 224.807C114.348 224.441 113.755 224.296 112.917 224.369L95.0474 225.939C94.2095 226.013 93.6223 226.236 93.2856 226.609C92.9228 226.983 92.69 227.637 92.5872 228.57C92.5386 228.917 92.4546 229.162 92.3351 229.304C92.1895 229.449 92.0251 229.529 91.8418 229.545C91.6847 229.559 91.5469 229.492 91.4284 229.344C91.2837 229.199 91.201 229.008 91.1803 228.772C91.1066 227.935 91.0719 227.238 91.0759 226.684C91.08 226.13 91.0875 225.614 91.0984 225.139C91.0809 224.639 91.0434 224.062 90.9859 223.407C90.933 222.805 90.8585 222.257 90.7624 221.764C90.6402 221.274 90.5264 220.73 90.4211 220.132C90.3136 219.508 90.2207 218.751 90.1425 217.861C89.8687 214.745 90.1068 212.35 90.8567 210.674C91.5781 208.975 93.0123 208.031 95.1593 207.843C95.9709 207.771 96.7594 207.887 97.5247 208.189C98.2639 208.493 98.8944 208.913 99.4163 209.448C99.8197 209.834 100.16 210.253 100.437 210.703C100.712 211.128 100.953 211.621 101.161 212.183C101.196 212.286 101.266 212.332 101.371 212.323C101.476 212.314 101.536 212.256 101.553 212.149C101.651 211.454 101.798 210.729 101.995 209.973C102.167 209.219 102.46 208.507 102.876 207.837C103.29 207.142 103.861 206.577 104.588 206.144C105.286 205.686 106.212 205.407 107.364 205.306C108.83 205.177 110.016 205.311 110.921 205.706C111.798 206.077 112.488 206.571 112.991 207.186C113.491 207.776 113.909 208.333 114.245 208.857C114.74 209.684 115.141 210.639 115.447 211.72C115.753 212.801 115.973 214.101 116.106 215.62C116.182 216.484 116.233 217.363 116.259 218.258C116.282 219.127 116.337 220.045 116.422 221.014C116.47 221.564 116.536 222.165 116.62 222.817C116.703 223.469 116.787 224.122 116.871 224.774C116.978 225.398 117.057 225.998 117.108 226.574ZM113.943 215.77C113.874 214.985 113.573 214.272 113.042 213.633C112.509 212.967 111.832 212.473 111.012 212.149C110.164 211.801 109.229 211.672 108.208 211.762C107.318 211.84 106.582 212.024 106 212.312C105.417 212.575 104.955 212.879 104.616 213.225C104.275 213.546 104.024 213.845 103.864 214.123C103.699 214.348 103.549 214.744 103.414 215.31C103.251 215.852 103.203 216.516 103.272 217.301C103.312 217.746 103.466 218.155 103.736 218.527C103.978 218.875 104.308 219.031 104.727 218.994L111.64 218.387C112.504 218.311 113.127 218.045 113.509 217.589C113.865 217.136 114.009 216.529 113.943 215.77ZM101.526 217.692C101.471 217.064 101.355 216.493 101.178 215.981C100.975 215.471 100.639 214.96 100.172 214.447C99.9728 214.28 99.5844 214.063 99.0069 213.797C98.401 213.508 97.5613 213.41 96.4878 213.504C95.3881 213.601 94.4844 213.825 93.7766 214.178C93.0687 214.53 92.558 215.024 92.2444 215.658C91.9284 216.266 91.813 217.055 91.8981 218.024C91.9625 218.757 92.1537 219.281 92.4716 219.596C92.761 219.887 93.1807 220.008 93.7305 219.96L100.289 219.384C100.813 219.338 101.163 219.122 101.341 218.737C101.492 218.355 101.553 218.006 101.526 217.692Z" fill="black"/>
<path d="M113.303 179.206C113.468 181.091 113.324 182.898 112.869 184.627C112.385 186.332 111.624 187.876 110.584 189.26C109.543 190.618 108.268 191.72 106.759 192.565C105.25 193.41 103.54 193.916 101.628 194.084C99.8218 194.243 98.0639 194.054 96.3545 193.518C94.6429 192.956 93.0893 192.09 91.6936 190.92C90.2956 189.724 89.1496 188.241 88.2554 186.473C87.3351 184.707 86.7772 182.711 86.5816 180.485C86.5333 179.935 86.5174 179.304 86.5338 178.59C86.548 177.85 86.5871 177.094 86.6513 176.324C86.7155 175.553 86.8105 174.832 86.9363 174.161C87.0336 173.467 87.1555 172.902 87.3019 172.467C87.3598 172.224 87.4615 172.031 87.6071 171.886C87.7265 171.744 87.916 171.648 88.1755 171.599C89.0804 171.387 89.9352 171.207 90.74 171.057C91.5425 170.881 92.2186 170.769 92.7684 170.72C93.0303 170.697 93.2324 170.745 93.3748 170.865C93.5149 170.958 93.5942 171.109 93.6126 171.319C93.6402 171.633 93.5823 171.876 93.439 172.047C93.2935 172.191 93.1074 172.326 92.881 172.452C92.4042 172.731 91.9178 173.051 91.4218 173.411C90.8972 173.747 90.4308 174.145 90.0225 174.603C89.7359 174.944 89.4682 175.35 89.2193 175.821C88.9681 176.265 88.7784 176.809 88.6504 177.454C88.5223 178.098 88.4974 178.866 88.5756 179.756C88.6998 181.17 89.0982 182.401 89.7709 183.45C90.4435 184.5 91.3237 185.359 92.4116 186.028C93.4709 186.674 94.6593 187.137 95.9768 187.417C97.2658 187.673 98.6172 187.739 100.031 187.615C101.785 187.461 103.381 187.149 104.817 186.68C106.227 186.213 107.427 185.606 108.417 184.86C109.407 184.113 110.147 183.23 110.638 182.211C111.103 181.194 111.279 180.044 111.166 178.761C111.106 178.08 110.94 177.54 110.668 177.142C110.393 176.718 110.152 176.383 109.946 176.137C109.713 175.894 109.368 175.713 108.909 175.595C108.422 175.453 107.89 175.407 107.314 175.458C107.076 175.453 106.747 175.468 106.328 175.505C105.91 175.542 105.491 175.579 105.072 175.615C104.65 175.626 104.322 175.642 104.086 175.662C103.798 175.688 103.542 175.776 103.318 175.928C103.066 176.056 102.889 176.295 102.788 176.647C102.651 176.897 102.545 177.183 102.467 177.507C102.388 177.804 102.336 178.112 102.311 178.431C102.258 178.725 102.215 178.993 102.184 179.233C102.176 179.445 102.103 179.663 101.964 179.886C101.825 180.109 101.638 180.231 101.403 180.252C101.219 180.268 101.067 180.189 100.946 180.015C100.826 179.841 100.757 179.662 100.741 179.479C100.688 178.877 100.644 178.221 100.608 177.512C100.57 176.776 100.546 176.053 100.536 175.341C100.5 174.632 100.458 174.002 100.409 173.453C100.343 172.693 100.246 171.897 100.12 171.064C99.9921 170.204 99.8935 169.382 99.8245 168.596C99.8084 168.413 99.8469 168.251 99.9402 168.111C100.007 167.973 100.145 167.895 100.355 167.877C100.617 167.854 100.82 167.915 100.965 168.061C101.081 168.183 101.176 168.359 101.249 168.59C101.496 169.307 101.776 169.784 102.087 170.02C102.398 170.257 102.82 170.404 103.353 170.463C103.938 170.517 104.455 170.551 104.905 170.564C105.326 170.554 105.799 170.525 106.322 170.479L107.579 170.369C107.71 170.357 107.836 170.293 107.958 170.177C108.08 170.061 108.2 169.932 108.32 169.789C108.441 169.673 108.564 169.57 108.688 169.48C108.812 169.39 108.953 169.338 109.11 169.324C109.267 169.31 109.442 169.348 109.634 169.436C109.801 169.527 109.923 169.714 110 169.998C110.045 170.205 110.221 170.559 110.529 171.06C110.811 171.562 111.156 172.192 111.565 172.947C111.949 173.705 112.305 174.611 112.635 175.663C112.965 176.716 113.188 177.897 113.303 179.206Z" fill="black"/>
<path d="M111.685 160.796C111.747 161.503 111.635 162.173 111.347 162.805C111.06 163.437 110.657 163.961 110.14 164.376C109.62 164.764 109.032 164.987 108.378 165.045C107.488 165.123 106.717 164.914 106.067 164.417C105.414 163.894 104.803 163.103 104.236 162.045L102.397 158.684C102.115 158.181 101.878 157.885 101.686 157.796C101.491 157.682 101.145 157.646 100.647 157.69L98.4051 157.847C97.6697 157.885 97.1052 158.067 96.7116 158.392C96.2918 158.719 96.1072 159.17 96.1578 159.746C96.1877 160.087 96.2962 160.42 96.4832 160.747C96.644 161.076 96.8241 161.324 97.0235 161.491C97.1351 161.56 97.2718 161.614 97.4335 161.653C97.5667 161.668 97.7118 161.668 97.8689 161.654C98.026 161.64 98.2212 161.61 98.4546 161.563C98.6617 161.519 98.8439 161.489 99.001 161.476C99.1581 161.462 99.3859 161.653 99.6846 162.049C99.957 162.447 100.222 162.912 100.48 163.443C100.711 163.977 100.845 164.44 100.879 164.833C100.895 165.016 100.832 165.193 100.688 165.364C100.543 165.509 100.352 165.592 100.116 165.612C99.6975 165.649 99.279 165.541 98.8609 165.287C98.4167 165.036 97.904 164.606 97.3228 163.998C96.687 163.367 96.1109 162.666 95.5945 161.894C95.0781 161.121 94.6544 160.353 94.3236 159.591C93.9904 158.802 93.7997 158.133 93.7514 157.583C93.6272 156.169 93.9865 155.003 94.8293 154.085C95.6459 153.169 96.8027 152.671 98.2997 152.593L106.25 152.092C106.855 152.065 107.356 151.916 107.754 151.643C108.153 151.371 108.337 151.064 108.307 150.724C108.263 150.227 108.055 149.81 107.682 149.473C107.597 149.401 107.551 149.326 107.544 149.248C107.532 149.117 107.562 149.008 107.634 148.923C107.703 148.811 107.804 148.75 107.935 148.738C108.249 148.711 108.675 148.911 109.214 149.338C109.729 149.794 110.129 150.287 110.413 150.816C110.723 151.343 110.904 151.907 110.957 152.51C111.086 153.976 110.447 155.259 109.039 156.359L109.046 156.437C109.908 157.232 110.54 157.968 110.942 158.645C111.368 159.294 111.616 160.011 111.685 160.796ZM108.925 158.664C108.9 158.376 108.84 158.144 108.745 157.968C108.625 157.794 108.451 157.624 108.226 157.459C108.114 157.39 107.978 157.336 107.816 157.297C107.628 157.261 107.416 157.253 107.181 157.274L104.342 157.405C104.081 157.428 103.914 157.482 103.842 157.567C103.771 157.653 103.739 157.748 103.749 157.853C103.753 157.905 103.772 157.969 103.805 158.046C103.838 158.122 103.885 158.21 103.947 158.31C104.38 159.037 104.809 159.567 105.234 159.899C105.633 160.233 106.251 160.364 107.089 160.29C107.849 160.223 108.358 160.02 108.619 159.681C108.853 159.343 108.955 159.005 108.925 158.664Z" fill="black"/>
<path d="M110.04 147.031C110.059 147.24 110.036 147.427 109.971 147.591C109.88 147.757 109.743 147.848 109.56 147.864C109.35 147.883 109.186 147.818 109.068 147.67C108.923 147.524 108.799 147.311 108.695 147.03C108.461 146.47 108.231 146.108 108.006 145.943C107.778 145.752 107.467 145.673 107.075 145.708L98.0416 146.502C97.4917 146.55 97.0535 146.668 96.727 146.855C96.3719 147.018 96.1508 147.354 96.0636 147.863C96.0227 147.998 95.9676 148.122 95.8983 148.233C95.8027 148.347 95.6371 148.415 95.4015 148.435C95.0349 148.468 94.7986 148.33 94.6924 148.023C94.4094 147.203 94.0539 146.311 93.6261 145.346C93.196 144.355 92.7797 143.521 92.3773 142.844C92.261 142.722 92.1556 142.573 92.0609 142.397C91.9378 142.196 91.8728 142.057 91.8659 141.978C91.8452 141.743 91.9788 141.612 92.2668 141.587C92.3978 141.575 92.6738 141.564 93.0951 141.554C93.4878 141.519 93.8948 141.497 94.316 141.486C94.7349 141.449 95.0895 141.431 95.3799 141.432C95.6155 141.411 95.7287 141.349 95.7195 141.244C95.1352 140.9 94.5582 140.488 93.9885 140.011C93.4165 139.507 92.9328 138.956 92.5372 138.357C92.1416 137.759 91.9174 137.159 91.8644 136.556C91.7839 135.64 91.8978 134.984 92.2059 134.587C92.5118 134.164 92.9397 133.929 93.4895 133.881C93.8822 133.846 94.3246 133.926 94.8166 134.12C95.3063 134.288 95.7363 134.528 96.1066 134.838C96.4768 135.148 96.6792 135.5 96.7137 135.893C96.7344 136.128 96.7039 136.382 96.6222 136.653C96.5143 136.926 96.4064 137.2 96.2985 137.473C96.2167 137.744 96.135 138.015 96.0533 138.286C95.9431 138.533 95.8972 138.761 95.9156 138.971C95.9754 139.652 96.2759 140.219 96.8171 140.673C97.3582 141.126 98.375 141.288 99.8675 141.157L106.269 140.594C106.793 140.548 107.172 140.357 107.406 140.019C107.612 139.658 107.787 139.102 107.932 138.35C107.985 138.056 108.072 137.837 108.191 137.694C108.282 137.528 108.432 137.436 108.642 137.417C109.008 137.385 109.211 137.592 109.25 138.037C109.319 138.822 109.351 139.637 109.346 140.482C109.368 141.325 109.408 142.086 109.468 142.767C109.507 143.212 109.56 143.669 109.628 144.138C109.693 144.581 109.761 145.05 109.831 145.545C109.924 146.012 109.994 146.507 110.04 147.031Z" fill="black"/>
<path d="M108.743 127.314C108.806 128.021 108.693 128.69 108.405 129.322C108.118 129.954 107.715 130.478 107.198 130.893C106.678 131.281 106.091 131.505 105.436 131.562C104.546 131.64 103.775 131.431 103.125 130.934C102.472 130.411 101.862 129.62 101.294 128.562L99.4551 125.201C99.1734 124.698 98.9363 124.402 98.7439 124.314C98.5491 124.199 98.203 124.163 97.7055 124.207L95.4634 124.365C94.728 124.403 94.1635 124.584 93.7699 124.909C93.35 125.236 93.1655 125.688 93.2161 126.264C93.246 126.604 93.3544 126.938 93.5414 127.264C93.7022 127.593 93.8823 127.841 94.0817 128.008C94.1934 128.078 94.33 128.132 94.4917 128.17C94.6249 128.185 94.7701 128.185 94.9272 128.171C95.0843 128.158 95.2795 128.127 95.5128 128.08C95.72 128.036 95.9021 128.007 96.0592 127.993C96.2163 127.979 96.4442 128.17 96.7428 128.566C97.0153 128.964 97.2804 129.429 97.5382 129.961C97.7697 130.494 97.9028 130.957 97.9373 131.35C97.9534 131.533 97.8898 131.711 97.7465 131.881C97.6009 132.026 97.4103 132.109 97.1746 132.13C96.7557 132.166 96.3372 132.058 95.9192 131.805C95.475 131.553 94.9623 131.123 94.3811 130.515C93.7453 129.885 93.1692 129.183 92.6527 128.411C92.1363 127.638 91.7127 126.871 91.3818 126.108C91.0487 125.32 90.858 124.65 90.8097 124.101C90.6855 122.687 91.0447 121.521 91.8875 120.602C92.7041 119.686 93.8609 119.189 95.358 119.11L103.309 118.609C103.913 118.583 104.414 118.433 104.813 118.161C105.211 117.888 105.395 117.582 105.365 117.241C105.321 116.744 105.113 116.327 104.741 115.99C104.655 115.919 104.609 115.843 104.602 115.765C104.591 115.634 104.621 115.526 104.692 115.44C104.762 115.329 104.862 115.267 104.993 115.256C105.307 115.228 105.734 115.428 106.272 115.856C106.787 116.312 107.187 116.804 107.471 117.333C107.781 117.86 107.962 118.425 108.015 119.027C108.144 120.493 107.505 121.776 106.098 122.876L106.105 122.955C106.966 123.75 107.598 124.486 108 125.163C108.427 125.811 108.674 126.528 108.743 127.314ZM105.984 125.182C105.958 124.894 105.898 124.661 105.804 124.485C105.683 124.311 105.51 124.141 105.284 123.977C105.172 123.907 105.036 123.853 104.874 123.815C104.686 123.778 104.474 123.771 104.239 123.791L101.401 123.922C101.139 123.945 100.972 123.999 100.9 124.085C100.829 124.17 100.798 124.265 100.807 124.37C100.811 124.422 100.83 124.487 100.863 124.563C100.896 124.639 100.944 124.727 101.005 124.827C101.439 125.555 101.868 126.084 102.293 126.416C102.691 126.751 103.31 126.881 104.148 126.807C104.907 126.741 105.417 126.537 105.677 126.198C105.911 125.861 106.014 125.522 105.984 125.182Z" fill="black"/>
<path d="M107.102 113.587C107.118 113.77 107.095 113.957 107.033 114.147C106.942 114.314 106.805 114.405 106.621 114.421C106.412 114.439 106.247 114.361 106.126 114.187C105.979 114.016 105.856 113.815 105.756 113.587C105.591 113.205 105.417 112.878 105.235 112.603C105.024 112.305 104.657 112.179 104.133 112.225L95.1391 113.015C94.5631 113.066 94.0856 113.187 93.7067 113.379C93.3016 113.573 93.0816 113.922 93.0467 114.426C93.0297 114.533 92.9735 114.644 92.878 114.758C92.7801 114.845 92.6134 114.9 92.3778 114.92C92.0112 114.953 91.7771 114.841 91.6756 114.586C91.461 113.945 91.2179 113.281 90.9463 112.592C90.6463 111.88 90.3497 111.207 90.0565 110.573C89.7349 109.915 89.4082 109.35 89.0765 108.878C89.0434 108.802 88.9972 108.727 88.938 108.653C88.8787 108.579 88.8456 108.503 88.8387 108.424C88.818 108.188 88.9516 108.058 89.2397 108.033C89.4491 108.014 89.806 108.022 90.3104 108.057C90.8125 108.066 91.2468 108.054 91.6134 108.022C91.8752 107.999 92.03 107.959 92.0777 107.902L92.0708 107.823C91.214 107.081 90.4955 106.26 89.9152 105.361C89.3349 104.462 88.9919 103.411 88.8861 102.206C88.8148 101.394 89.0372 100.623 89.5534 99.8916C90.0434 99.1626 90.7186 98.5887 91.5789 98.1702L91.5651 98.0131C90.5535 97.3104 89.7434 96.4977 89.1346 95.5749C88.4973 94.6283 88.1246 93.5397 88.0165 92.3091C87.9452 91.4974 88.1165 90.7436 88.5302 90.0476C88.9178 89.3539 89.5133 88.7739 90.3166 88.3076C91.12 87.8412 92.0977 87.5574 93.2497 87.4562L101.89 86.6971C102.414 86.6511 102.754 86.476 102.912 86.1719C103.042 85.8439 103.155 85.4778 103.251 85.0736C103.311 84.8572 103.4 84.6647 103.517 84.4961C103.608 84.3298 103.758 84.2375 103.968 84.2191C104.151 84.203 104.301 84.2558 104.417 84.3775C104.507 84.5015 104.56 84.6551 104.576 84.8384C104.622 85.3621 104.64 85.8619 104.629 86.3377C104.642 86.7852 104.655 87.2326 104.668 87.68C104.678 88.1012 104.704 88.5474 104.746 89.0187C104.785 89.4638 104.835 89.8816 104.895 90.2721C104.956 90.6625 105.017 91.0529 105.077 91.4434C105.164 91.8315 105.231 92.2874 105.277 92.8111C105.293 92.9944 105.267 93.1549 105.2 93.2927C105.107 93.4328 104.969 93.5109 104.786 93.527C104.576 93.5454 104.4 93.4949 104.258 93.3755C104.113 93.2299 104.004 93.0416 103.931 92.8106C103.796 92.4794 103.643 92.2291 103.469 92.0596C103.27 91.8924 102.974 91.8261 102.581 91.8606L94.5299 92.5679C93.8754 92.6255 93.3205 92.7666 92.8653 92.9912C92.4101 93.2159 92.0666 93.51 91.8346 93.8733C91.5742 94.2128 91.4624 94.592 91.4992 95.011C91.5292 95.3513 91.6411 95.7241 91.835 96.1292C92.0004 96.5105 92.2705 96.8825 92.6454 97.2453C92.9918 97.5843 93.5577 97.7193 94.3432 97.6502L102.787 96.9084C103.311 96.8624 103.655 96.7266 103.82 96.501C103.959 96.2778 104.076 95.964 104.173 95.5598C104.207 95.3457 104.282 95.1544 104.399 94.9858C104.516 94.8172 104.68 94.7237 104.889 94.7053C105.072 94.6892 105.223 94.7551 105.342 94.903C105.432 95.027 105.484 95.1675 105.498 95.3246C105.544 95.8483 105.559 96.3219 105.543 96.7454C105.554 97.1666 105.563 97.5747 105.572 97.9698C105.578 98.3386 105.601 98.7587 105.643 99.23C105.682 99.6751 105.732 100.093 105.793 100.483C105.851 100.848 105.912 101.238 105.975 101.655C106.061 102.043 106.128 102.499 106.174 103.022C106.188 103.179 106.161 103.327 106.094 103.465C106.001 103.605 105.863 103.683 105.679 103.699C105.47 103.717 105.307 103.666 105.191 103.544C105.046 103.398 104.925 103.224 104.828 103.022C104.665 102.667 104.497 102.405 104.324 102.235C104.151 102.066 103.868 101.998 103.475 102.033L95.4236 102.74C94.7691 102.797 94.2273 102.937 93.7983 103.16C93.3431 103.384 92.9984 103.665 92.7642 104.003C92.5038 104.342 92.3931 104.734 92.4322 105.18C92.4598 105.494 92.5575 105.855 92.7252 106.262C92.8906 106.643 93.15 107.043 93.5033 107.46C93.7688 107.78 94.2943 107.905 95.0798 107.836L103.681 107.08C104.152 107.039 104.486 106.931 104.681 106.755C104.848 106.556 104.98 106.254 105.077 105.85C105.137 105.633 105.227 105.454 105.346 105.311C105.437 105.145 105.587 105.053 105.797 105.034C105.954 105.021 106.09 105.075 106.207 105.196C106.323 105.318 106.388 105.457 106.402 105.614C106.448 106.138 106.463 106.612 106.447 107.035C106.456 107.43 106.464 107.825 106.472 108.22C106.478 108.589 106.502 109.009 106.543 109.481C106.583 109.926 106.635 110.37 106.7 110.812C106.763 111.229 106.828 111.672 106.896 112.141C106.987 112.581 107.056 113.063 107.102 113.587Z" fill="black"/>
<path d="M104.074 74.1713C104.212 75.7423 103.983 77.1872 103.387 78.5061C102.79 79.825 101.91 80.9181 100.746 81.7855C99.5537 82.6291 98.1721 83.1198 96.6011 83.2579C95.3443 83.3683 94.1323 83.2373 92.9651 82.8649C91.7978 82.4926 90.7453 81.9254 89.8077 81.1635C88.8701 80.4015 88.103 79.4795 87.5067 78.3973C86.9103 77.3152 86.5557 76.1326 86.443 74.8497C86.3004 73.2263 86.5512 71.7268 87.1955 70.3509C87.8398 68.9751 88.7569 67.8523 89.947 66.9826C91.1086 66.089 92.4225 65.5777 93.8887 65.4489C95.5644 65.3017 97.1545 65.5314 98.6589 66.138C100.135 66.7207 101.367 67.681 102.355 69.019C103.315 70.3331 103.888 72.0505 104.074 74.1713ZM102.277 73.5376C102.229 72.9878 102.083 72.5257 101.839 72.1514C101.567 71.7532 101.196 71.4427 100.728 71.22C100.177 70.9518 99.4515 70.8044 98.5521 70.7779C97.6242 70.7275 96.545 70.7564 95.3144 70.8645C93.9005 70.9887 92.6575 71.2562 91.5855 71.667C90.4872 72.0801 89.6361 72.6035 89.0321 73.237C88.4259 73.8443 88.1561 74.5277 88.2228 75.287C88.2596 75.7059 88.3715 76.0786 88.5585 76.4052C88.7193 76.7341 88.9422 77.0179 89.227 77.2568C89.7898 77.6559 90.5636 77.9045 91.5484 78.0027C92.531 78.0746 93.7292 78.0485 95.1431 77.9243C96.3999 77.8139 97.5905 77.551 98.7149 77.1356C99.8109 76.6963 100.701 76.1695 101.386 75.5552C102.042 74.9171 102.339 74.2446 102.277 73.5376Z" fill="black"/>
<path d="M102.583 62.1549C102.599 62.3382 102.576 62.5249 102.514 62.7151C102.423 62.8814 102.286 62.9726 102.103 62.9887C101.893 63.0071 101.728 62.9292 101.607 62.7551C101.46 62.5834 101.337 62.3831 101.238 62.1544C101.072 61.7731 100.898 61.4454 100.716 61.1712C100.505 60.8731 100.138 60.7471 99.6141 60.7931L90.6204 61.5833C90.0443 61.6339 89.568 61.7681 89.1914 61.9858C88.8124 62.1774 88.5913 62.5135 88.528 62.994C88.511 63.101 88.4547 63.2115 88.3592 63.3254C88.2614 63.4132 88.0946 63.4674 87.859 63.4881C87.4924 63.5203 87.2584 63.409 87.1568 63.154C86.8692 62.2822 86.5091 61.3376 86.0767 60.3202C85.6159 59.2789 85.1557 58.3959 84.6962 57.6711C84.6347 57.571 84.5589 57.4589 84.4688 57.3349C84.3788 57.2109 84.3291 57.0965 84.3199 56.9918C84.3061 56.8347 84.3505 56.7384 84.4529 56.703C84.5268 56.6438 84.6293 56.6084 84.7602 56.5969C84.9696 56.5785 85.3135 56.5878 85.7917 56.625C86.2414 56.6382 86.6495 56.6288 87.0161 56.5966C87.1208 56.5874 87.2386 56.577 87.3695 56.5655C87.4981 56.5278 87.5744 56.4947 87.5983 56.4663C86.656 55.652 85.909 54.8073 85.3572 53.9323C84.8054 53.0573 84.4766 52.0176 84.3708 50.8132C84.2512 49.4517 84.6616 48.2679 85.6023 47.2618C86.5144 46.2318 87.8345 45.6409 89.5625 45.4891L98.2029 44.73C98.7265 44.684 99.0673 44.5089 99.2253 44.2048C99.3548 43.8768 99.4677 43.5107 99.5641 43.1064C99.6243 42.8901 99.7129 42.6976 99.83 42.529C99.921 42.3627 100.071 42.2703 100.281 42.2519C100.464 42.2358 100.615 42.3017 100.733 42.4496C100.823 42.5736 100.875 42.7142 100.889 42.8713C100.935 43.3949 100.953 43.8947 100.942 44.3706C100.955 44.818 100.968 45.2654 100.98 45.7128C100.991 46.134 101.017 46.5803 101.059 47.0516C101.098 47.4967 101.15 47.9407 101.215 48.3835C101.28 48.8263 101.346 49.2691 101.411 49.7119C101.502 50.1524 101.571 50.6345 101.617 51.1581C101.631 51.3152 101.606 51.4758 101.541 51.6398C101.448 51.7799 101.309 51.858 101.126 51.8741C100.917 51.8925 100.753 51.8277 100.634 51.6799C100.489 51.5343 100.368 51.3602 100.272 51.1576C100.106 50.7764 99.9333 50.4617 99.7532 50.2137C99.5469 49.968 99.182 49.8681 98.6583 49.9141L90.8428 50.6008C89.8478 50.6882 89.0961 50.9917 88.5877 51.5113C88.0508 52.007 87.8026 52.6357 87.8431 53.3973C87.8937 53.9733 88.0302 54.4758 88.2526 54.9048C88.475 55.3338 88.764 55.7702 89.1196 56.2139C89.2335 56.3094 89.3583 56.3776 89.4938 56.4185C89.6293 56.4593 89.7625 56.474 89.8934 56.4625L99.1621 55.6482C99.6858 55.6022 100.027 55.4271 100.185 55.123C100.316 54.8212 100.432 54.4812 100.53 54.1032C100.641 53.5657 100.88 53.2809 101.247 53.2487C101.404 53.2349 101.541 53.2888 101.657 53.4105C101.773 53.5323 101.839 53.6848 101.855 53.868C101.901 54.3917 101.918 54.8784 101.904 55.3281C101.917 55.7755 101.928 56.1967 101.936 56.5918C101.945 56.9868 101.969 57.42 102.011 57.8912C102.05 58.3364 102.103 58.7934 102.171 59.2624C102.236 59.7052 102.304 60.1742 102.374 60.6694C102.467 61.136 102.537 61.6312 102.583 62.1549Z" fill="black"/>
<path d="M100.163 27.4047C100.17 27.4832 100.089 27.6091 99.9196 27.7823C99.774 27.927 99.6489 28.004 99.5441 28.0132C99.1468 27.9953 98.7768 27.9883 98.4341 27.992C98.0629 27.9718 97.7334 27.9744 97.4453 27.9997L97.2097 28.0204C98.0674 28.4727 98.7994 29.1472 99.4059 30.0438C100.01 30.9142 100.359 31.8861 100.454 32.9596C100.582 34.4258 100.331 35.7672 99.699 36.9836C99.0648 38.1739 98.1481 39.1515 96.9488 39.9165C95.7496 40.6815 94.4037 41.1295 92.9113 41.2607C91.1309 41.4171 89.5123 41.1635 88.0556 40.5C86.5989 39.8364 85.4157 38.8322 84.506 37.4873C83.5701 36.1448 83.0205 34.544 82.8572 32.685C82.8227 32.2923 82.8263 31.883 82.8681 31.4572C82.8813 31.0075 82.9242 30.5947 82.9967 30.219C83.0431 29.8455 83.0674 29.6719 83.0697 29.6981C83.0605 29.5933 82.8857 29.5559 82.5453 29.5858L77.8717 29.9964C76.9291 30.0793 76.2587 30.2569 75.8605 30.5293C75.4623 30.8018 75.235 31.2175 75.1786 31.7766C75.1276 32.0977 74.945 32.272 74.6309 32.2996C74.2905 32.3295 74.0815 32.2028 74.0038 31.9194C73.7092 30.969 73.36 29.9971 72.9561 29.0035C72.5237 27.9861 72.1347 27.1628 71.7892 26.5335C71.6022 26.207 71.4898 25.9794 71.4522 25.8508C71.3883 25.7244 71.3552 25.6482 71.3529 25.622C71.3276 25.334 71.4721 25.1762 71.7862 25.1486C71.7077 25.1555 71.8136 25.1594 72.1039 25.1603C72.368 25.1634 72.7238 25.1586 73.1712 25.1456C73.6186 25.1327 74.066 25.1198 74.5134 25.1069L94.3248 23.5642C95.215 23.4859 95.8508 23.3641 96.232 23.1987C96.6132 23.0333 96.7889 22.7804 96.759 22.44C96.7475 22.3091 96.7229 22.1793 96.6852 22.0507C96.6452 21.8959 96.5857 21.5186 96.5066 20.9187C96.4482 20.5544 96.563 20.3596 96.851 20.3343C97.0605 20.3159 97.29 20.3749 97.5394 20.5113C97.7888 20.6477 97.9193 20.7814 97.9308 20.9123C98.1184 21.8457 98.376 22.8257 98.7036 23.8523C99.029 24.8527 99.4175 25.8212 99.8692 26.7577C99.9615 26.9079 100.025 27.0342 100.061 27.1367C100.122 27.2368 100.157 27.3261 100.163 27.4047ZM97.607 31.1912C97.5725 30.7985 97.4252 30.3233 97.1652 29.7657C96.9028 29.1819 96.5591 28.724 96.1342 28.3919L87.4581 29.1938C86.9868 29.2352 86.5447 29.4587 86.1318 29.8644C85.6904 30.2462 85.3367 30.7258 85.0709 31.3032C84.8027 31.8545 84.6916 32.3919 84.7376 32.9156C84.7928 33.544 85.1064 34.1101 85.6784 34.6139C86.2218 35.0939 86.9798 35.4626 87.9523 35.7202C88.8963 35.9539 90.036 36.012 91.3713 35.8947C92.4448 35.8004 93.3781 35.6129 94.1714 35.3321C94.9624 35.0251 95.6286 34.65 96.1701 34.2066C96.6855 33.7656 97.0653 33.2837 97.3096 32.7609C97.5539 32.2381 97.653 31.7149 97.607 31.1912Z" fill="black"/>
</svg>
