<svg width="122" height="122" viewBox="0 0 122 122" fill="none" xmlns="http://www.w3.org/2000/svg">
<circle cx="61" cy="61" r="61" fill="black"/>
<path d="M96.8655 91.1335C96.1065 91.1335 95.52 90.7195 95.106 89.8915C94.692 89.0635 94.416 88.132 94.278 87.097C94.209 86.2 94.071 85.165 93.864 83.992C93.657 82.888 93.4155 81.646 93.1395 80.266C92.8635 78.472 92.277 77.1265 91.38 76.2295C90.552 75.3325 89.379 74.884 87.861 74.884H33.834C32.73 74.884 31.5915 74.884 30.4185 74.884C29.3145 74.953 28.1415 75.022 26.8995 75.091C25.7265 75.16 24.45 75.1945 23.07 75.1945C22.725 75.1945 22.2765 75.091 21.7245 74.884C21.2415 74.608 21 74.2285 21 73.7455C21 73.1935 21.2415 72.7795 21.7245 72.5035C22.2765 72.1585 22.8285 71.8825 23.3805 71.6755C24.4155 71.3305 25.3125 70.951 26.0715 70.537C26.8305 70.054 27.21 69.1225 27.21 67.7425V38.5555C27.21 37.1755 26.8305 36.244 26.0715 35.761C25.3125 35.278 24.4155 34.8985 23.3805 34.6225C22.8285 34.4155 22.2765 34.1395 21.7245 33.7945C21.2415 33.4495 21 33.001 21 32.449C21 31.966 21.2415 31.621 21.7245 31.414C22.2075 31.138 22.656 31 23.07 31C24.45 31 25.761 31.0345 27.003 31.1035C28.245 31.1725 29.4525 31.276 30.6255 31.414C31.8675 31.483 33.075 31.5175 34.248 31.5175C35.49 31.5175 36.594 31.483 37.56 31.414C38.526 31.276 39.5265 31.1725 40.5615 31.1035C41.6655 31.0345 42.9075 31 44.2875 31C44.7015 31 45.081 31.138 45.426 31.414C45.84 31.69 46.047 32.035 46.047 32.449C46.047 32.932 45.84 33.3805 45.426 33.7945C45.012 34.1395 44.529 34.4155 43.977 34.6225C43.011 34.9675 42.2175 35.347 41.5965 35.761C41.0445 36.175 40.7685 37.072 40.7685 38.452V66.19C40.7685 67.432 41.0445 68.329 41.5965 68.881C42.2175 69.433 43.011 69.709 43.977 69.709H50.2905C51.2565 69.709 52.0155 69.433 52.5675 68.881C53.1195 68.329 53.3955 67.432 53.3955 66.19V38.5555C53.3955 37.1755 53.154 36.244 52.671 35.761C52.188 35.278 51.429 34.8985 50.394 34.6225C49.842 34.4155 49.29 34.1395 48.738 33.7945C48.255 33.4495 48.0135 33.001 48.0135 32.449C48.0135 31.966 48.255 31.621 48.738 31.414C49.221 31.138 49.6695 31 50.0835 31C51.4635 31 52.7055 31.0345 53.8095 31.1035C54.9135 31.1725 55.983 31.276 57.018 31.414C58.122 31.483 59.2605 31.5175 60.4335 31.5175C61.6755 31.5175 62.7795 31.483 63.7455 31.414C64.7115 31.276 65.712 31.1725 66.747 31.1035C67.851 31.0345 69.093 31 70.473 31C70.887 31 71.2665 31.138 71.6115 31.414C72.0255 31.69 72.2325 32.035 72.2325 32.449C72.2325 32.932 72.0255 33.3805 71.6115 33.7945C71.1975 34.1395 70.7145 34.4155 70.1625 34.6225C69.1965 34.9675 68.4375 35.347 67.8855 35.761C67.3335 36.175 67.0575 37.072 67.0575 38.452V66.19C67.0575 67.432 67.3335 68.329 67.8855 68.881C68.5065 69.433 69.3 69.709 70.266 69.709H76.3725C77.4075 69.709 78.201 69.433 78.753 68.881C79.305 68.329 79.581 67.432 79.581 66.19V38.452C79.581 37.072 79.305 36.175 78.753 35.761C78.201 35.278 77.4075 34.8985 76.3725 34.6225C75.8205 34.4155 75.3375 34.1395 74.9235 33.7945C74.5095 33.4495 74.3025 33.001 74.3025 32.449C74.3025 31.966 74.5095 31.621 74.9235 31.414C75.3375 31.138 75.7515 31 76.1655 31C77.5455 31 78.7875 31.0345 79.8915 31.1035C80.9955 31.1725 82.065 31.276 83.1 31.414C84.135 31.483 85.239 31.5175 86.412 31.5175C87.654 31.5175 88.827 31.483 89.931 31.414C91.104 31.276 92.277 31.1725 93.45 31.1035C94.623 31.0345 95.8995 31 97.2795 31C97.6935 31 98.1075 31.138 98.5215 31.414C98.9355 31.621 99.1425 31.966 99.1425 32.449C99.1425 33.001 98.9355 33.4495 98.5215 33.7945C98.1075 34.1395 97.6245 34.4155 97.0725 34.6225C96.0375 34.8985 95.1405 35.278 94.3815 35.761C93.6225 36.175 93.243 37.072 93.243 38.452V68.1565C93.243 69.1225 94.3815 69.6055 96.6585 69.6055C97.3485 69.6055 98.004 69.5365 98.625 69.3985C99.246 69.1915 99.867 69.088 100.488 69.088C101.454 69.088 101.937 69.3295 101.937 69.8125C101.937 69.8815 101.937 70.054 101.937 70.33C101.937 70.606 101.903 70.813 101.834 70.951C101.834 71.641 101.661 72.8485 101.316 74.5735C100.971 76.2295 100.626 78.196 100.281 80.473C99.936 82.75 99.66 85.0615 99.453 87.4075C99.384 88.6495 99.108 89.581 98.625 90.202C98.142 90.823 97.5555 91.1335 96.8655 91.1335Z" fill="white"/>
</svg>
