<svg width="122" height="122" viewBox="0 0 122 122" fill="none" xmlns="http://www.w3.org/2000/svg">
<circle cx="61" cy="61" r="61" fill="black"/>
<path d="M84.6465 91.1335C83.9565 91.1335 83.439 90.7885 83.094 90.0985C82.749 89.4085 82.5075 88.5805 82.3695 87.6145C82.0935 86.1655 81.8865 85.096 81.7485 84.406C81.6795 83.785 81.6105 82.8535 81.5415 81.6115C81.2655 79.1275 80.5755 77.368 79.4715 76.333C78.4365 75.367 77.1255 74.884 75.5385 74.884H45.834C44.73 74.884 43.626 74.884 42.522 74.884C41.418 74.953 40.245 75.022 39.003 75.091C37.83 75.16 36.5535 75.1945 35.1735 75.1945C34.7595 75.1945 34.2765 75.091 33.7245 74.884C33.2415 74.608 33 74.2285 33 73.7455C33 73.1935 33.2415 72.7795 33.7245 72.5035C34.2765 72.1585 34.8285 71.8825 35.3805 71.6755C36.4155 71.3305 37.3125 70.951 38.0715 70.537C38.8305 70.054 39.21 69.1225 39.21 67.7425V38.5555C39.21 37.1755 38.8305 36.244 38.0715 35.761C37.3125 35.278 36.4155 34.8985 35.3805 34.6225C34.8285 34.4155 34.2765 34.1395 33.7245 33.7945C33.2415 33.4495 33 33.001 33 32.449C33 31.966 33.2415 31.621 33.7245 31.414C34.2765 31.138 34.7595 31 35.1735 31C36.5535 31 37.8645 31.0345 39.1065 31.1035C40.3485 31.1725 41.556 31.276 42.729 31.414C43.902 31.483 45.075 31.5175 46.248 31.5175C47.49 31.5175 48.6285 31.483 49.6635 31.414C50.6985 31.276 51.768 31.1725 52.872 31.1035C54.045 31.0345 55.3215 31 56.7015 31C57.1155 31 57.495 31.138 57.84 31.414C58.254 31.69 58.461 32.035 58.461 32.449C58.461 32.932 58.254 33.3805 57.84 33.7945C57.495 34.1395 57.0465 34.4155 56.4945 34.6225C55.4595 34.9675 54.5625 35.347 53.8035 35.761C53.1135 36.175 52.7685 37.072 52.7685 38.452V66.397C52.7685 67.639 53.0445 68.536 53.5965 69.088C54.2175 69.571 55.011 69.8125 55.977 69.8125H63.7395C64.7745 69.8125 65.568 69.571 66.12 69.088C66.672 68.536 66.948 67.639 66.948 66.397V38.452C66.948 37.072 66.603 36.175 65.913 35.761C65.223 35.278 64.3605 34.8985 63.3255 34.6225C62.7735 34.4155 62.2905 34.1395 61.8765 33.7945C61.4625 33.4495 61.2555 33.001 61.2555 32.449C61.2555 31.966 61.428 31.621 61.773 31.414C62.187 31.138 62.601 31 63.015 31C64.395 31 65.6715 31.0345 66.8445 31.1035C68.0175 31.1725 69.156 31.276 70.26 31.414C71.433 31.483 72.606 31.5175 73.779 31.5175C75.021 31.5175 76.194 31.483 77.298 31.414C78.402 31.276 79.5405 31.1725 80.7135 31.1035C81.9555 31.0345 83.2665 31 84.6465 31C85.0605 31 85.4745 31.138 85.8885 31.414C86.3025 31.621 86.5095 31.966 86.5095 32.449C86.5095 33.001 86.268 33.4495 85.785 33.7945C85.371 34.1395 84.888 34.4155 84.336 34.6225C83.301 34.8985 82.404 35.278 81.645 35.761C80.886 36.175 80.5065 37.072 80.5065 38.452V68.26C80.5065 68.674 80.8515 69.019 81.5415 69.295C82.3005 69.502 83.2665 69.6055 84.4395 69.6055C85.1985 69.6055 85.8885 69.5365 86.5095 69.3985C87.1305 69.1915 87.7515 69.088 88.3725 69.088C89.3385 69.088 89.8215 69.3295 89.8215 69.8125C89.8215 69.8815 89.8215 70.054 89.8215 70.33C89.8215 70.606 89.787 70.813 89.718 70.951C89.649 71.641 89.442 72.8485 89.097 74.5735C88.821 76.2295 88.476 78.196 88.062 80.473C87.717 82.75 87.4755 85.0615 87.3375 87.4075C87.2685 88.6495 86.958 89.581 86.406 90.202C85.923 90.823 85.3365 91.1335 84.6465 91.1335Z" fill="white"/>
</svg>
