<svg width="122" height="122" viewBox="0 0 122 122" fill="none" xmlns="http://www.w3.org/2000/svg">
<circle cx="61" cy="61" r="61" fill="white"/>
<path d="M60.944 105.838C55.976 105.838 51.514 104.55 47.558 101.974C43.694 99.306 40.612 95.718 38.312 91.21C36.104 86.61 35 81.412 35 75.616C35 69.82 36.334 64.576 39.002 59.884C41.67 55.1 45.304 51.328 49.904 48.568C54.504 45.716 59.564 44.29 65.084 44.29C69.04 44.29 72.582 45.164 75.71 46.912C78.838 48.568 81.322 50.822 83.162 53.674C85.094 56.526 86.06 59.746 86.06 63.334C86.06 66.83 84.634 68.578 81.782 68.578H54.182C52.894 68.578 51.928 68.946 51.284 69.682C50.732 70.418 50.456 71.66 50.456 73.408C50.456 76.904 51.238 80.124 52.802 83.068C54.366 85.92 56.482 88.174 59.15 89.83C61.818 91.486 64.9 92.314 68.396 92.314C71.064 92.314 73.502 91.808 75.71 90.796C78.01 89.784 80.264 88.404 82.472 86.656C82.84 86.38 83.162 86.15 83.438 85.966C83.806 85.69 84.128 85.552 84.404 85.552C85.324 85.552 85.784 86.15 85.784 87.346C85.784 88.358 85.416 89.738 84.68 91.486C83.76 93.786 82.196 96.086 79.988 98.386C77.872 100.594 75.204 102.388 71.984 103.768C68.764 105.148 65.084 105.838 60.944 105.838ZM54.182 62.782H62.462C65.038 62.782 66.832 62.736 67.844 62.644C68.856 62.552 69.776 62.368 70.604 62.092C71.064 61.908 71.432 61.448 71.708 60.712C71.984 59.976 72.122 59.148 72.122 58.228C72.122 55.744 71.248 53.72 69.5 52.156C67.844 50.592 65.774 49.81 63.29 49.81C61.358 49.81 59.518 50.362 57.77 51.466C56.114 52.478 54.734 53.858 53.63 55.606C52.618 57.262 52.158 59.01 52.25 60.85C52.25 62.138 52.894 62.782 54.182 62.782ZM77.228 35.734C74.56 35.734 72.214 34.768 70.19 32.836C68.258 30.904 67.292 28.604 67.292 25.936C67.292 23.176 68.258 20.83 70.19 18.898C72.214 16.966 74.56 16 77.228 16C80.08 16 82.472 16.966 84.404 18.898C86.428 20.83 87.44 23.176 87.44 25.936C87.44 28.604 86.428 30.904 84.404 32.836C82.472 34.768 80.08 35.734 77.228 35.734ZM50.318 35.734C47.65 35.734 45.35 34.768 43.418 32.836C41.486 30.904 40.52 28.604 40.52 25.936C40.52 23.176 41.486 20.83 43.418 18.898C45.35 16.966 47.65 16 50.318 16C53.262 16 55.7 16.966 57.632 18.898C59.656 20.83 60.668 23.176 60.668 25.936C60.668 28.604 59.656 30.904 57.632 32.836C55.7 34.768 53.262 35.734 50.318 35.734Z" fill="black"/>
</svg>
