<svg width="102" height="66" viewBox="0 0 102 66" fill="none" xmlns="http://www.w3.org/2000/svg">
<path d="M11.1238 65.0699C7.67394 65.0699 5.01262 63.9857 3.13983 61.8172C1.26705 59.6487 0.330661 57.2831 0.330661 54.7203C0.330661 52.5518 1.02063 50.6791 2.40058 49.102C3.87909 47.4263 5.80116 46.5885 8.16677 46.5885C9.25102 46.5885 10.2367 46.8842 11.1238 47.4756C12.0109 47.9685 12.898 48.5106 13.7851 49.102C14.5737 49.6934 15.3129 50.2848 16.0029 50.8762C16.6929 51.369 17.3335 51.6155 17.925 51.6155C19.4035 51.6155 20.6356 50.3341 21.6212 47.7713C22.7055 45.11 23.5433 41.7587 24.1347 37.7174C24.8247 33.5776 25.3175 29.2899 25.6132 24.8544C25.9089 20.4189 26.0568 16.3776 26.0568 12.7306C26.0568 10.1678 25.3175 8.49219 23.839 7.70365C22.4591 6.81654 20.7834 6.12657 18.8121 5.63373C17.7278 5.33803 16.8407 4.99304 16.1507 4.59878C15.4608 4.20451 15.1158 3.51453 15.1158 2.52886C15.1158 1.93745 15.4608 1.44462 16.1507 1.05034C16.9393 0.557508 17.58 0.311089 18.0728 0.311089C20.8327 0.311089 23.494 0.45894 26.0568 0.754641C28.6195 0.951777 31.0837 1.05034 33.4493 1.05034H57.5491C60.4075 1.05034 62.921 1.00106 65.0895 0.902495C67.258 0.70536 70.0671 0.606792 73.517 0.606792C74.0098 0.606792 74.4534 0.803927 74.8477 1.1982C75.3405 1.4939 75.5869 1.93745 75.5869 2.52886C75.5869 2.82456 75.3898 3.21883 74.9955 3.71167C74.6998 4.10594 74.207 4.40164 73.517 4.59878C70.9543 5.19018 69.2293 5.97872 68.3422 6.9644C67.4551 7.8515 67.0116 9.3793 67.0116 11.5478V25.8893C67.0116 26.4808 67.2087 26.875 67.603 27.0722C67.9972 27.2693 68.3915 27.3186 68.7858 27.22C69.7714 26.7272 71.2992 26.3329 73.3692 26.0372C75.5376 25.7415 77.509 25.5936 79.2832 25.5936C81.7474 25.5936 84.2609 25.8893 86.8236 26.4808C89.3864 27.0722 91.7027 28.0578 93.7726 29.4378C95.9411 30.7192 97.666 32.4441 98.9474 34.6126C100.327 36.6825 101.017 39.2945 101.017 42.4487C101.017 47.9685 99.736 52.2561 97.1732 55.3117C94.6104 58.3673 91.2099 60.4865 86.9715 61.6693C82.8316 62.8521 78.2975 63.4436 73.3692 63.4436C71.2992 63.4436 69.3772 63.3943 67.603 63.2957C65.9273 63.1971 64.2024 63.0986 62.4282 63C60.654 63 58.7812 63 56.8098 63C55.3313 63 53.6557 63 51.7829 63C49.9101 63.0986 48.0373 63.1971 46.1645 63.2957C44.2918 63.3943 42.6161 63.4436 41.1376 63.4436C40.5462 63.4436 40.0534 63.2957 39.6591 63C39.3634 62.6057 39.2155 62.2115 39.2155 61.8172C39.2155 61.3244 39.4127 60.8808 39.8069 60.4865C40.2012 59.9937 40.7433 59.698 41.4333 59.5994C43.5032 58.8109 45.031 58.1702 46.0167 57.6774C47.0024 57.086 47.4952 55.8539 47.4952 53.9811V11.5478C47.4952 10.6607 47.3473 9.82285 47.0516 9.03431C46.8545 8.1472 46.066 7.70365 44.686 7.70365H36.5542C35.2728 7.70365 34.3364 8.24577 33.745 9.33001C33.2522 10.3157 33.0058 11.3014 33.0058 12.287C33.0058 16.4269 32.8086 20.8624 32.4144 25.5936C32.1187 30.3249 31.478 35.0561 30.4923 39.7874C29.6052 44.42 28.3238 48.6584 26.6482 52.5026C24.9725 56.2481 22.8533 59.3037 20.2906 61.6693C17.8264 63.9364 14.7708 65.0699 11.1238 65.0699ZM71.5949 57.5295C74.0591 57.5295 76.129 56.3467 77.8047 53.9811C79.4803 51.6155 80.3182 48.6091 80.3182 44.9622C80.3182 40.9209 79.4803 37.7667 77.8047 35.4997C76.2276 33.2326 73.9606 32.0991 71.0035 32.0991C69.6236 32.0991 68.6379 32.3455 68.0465 32.8384C67.6522 33.0355 67.3565 33.3805 67.1594 33.8733C67.0608 34.3662 67.0116 34.9083 67.0116 35.4997V51.3198C67.0116 52.9954 67.4058 54.4739 68.1944 55.7553C68.9829 56.9381 70.1164 57.5295 71.5949 57.5295Z" fill="#FDF8F2"/>
</svg>
