<svg width="78" height="87" viewBox="0 0 78 87" fill="none" xmlns="http://www.w3.org/2000/svg">
<path d="M38.5462 86.9519C37.5605 86.9519 36.7227 86.4098 36.0327 85.3255C35.4413 84.3399 35.047 83.157 34.8499 81.7771C34.4556 78.2287 33.9628 75.0252 33.3714 72.1668C32.78 69.3083 31.8436 67.0413 30.5622 65.3656C29.3794 63.69 27.6052 62.8521 25.2396 62.8521H18.4384C16.8613 62.8521 15.235 62.9014 13.5593 63C11.9823 63.0986 10.3066 63.1971 8.53239 63.2957C6.85675 63.3943 5.03325 63.4436 3.0619 63.4436C2.56906 63.4436 1.92837 63.2957 1.13983 63C0.449861 62.6057 0.104875 62.0636 0.104875 61.3736C0.104875 60.5851 0.449861 59.9937 1.13983 59.5994C1.92837 59.1066 2.71691 58.7123 3.50545 58.4166C4.98397 57.9238 6.26534 57.3817 7.34958 56.7902C8.43383 56.1003 8.97595 54.7696 8.97595 52.7983V11.1042C8.97595 9.13288 8.43383 7.80222 7.34958 7.11224C6.26534 6.42227 4.98397 5.88015 3.50545 5.48588C2.71691 5.19018 1.92837 4.79591 1.13983 4.30307C0.449861 3.81024 0.104875 3.16955 0.104875 2.38101C0.104875 1.69103 0.449861 1.1982 1.13983 0.902495C1.82981 0.508224 2.47049 0.311089 3.0619 0.311089C5.03325 0.311089 6.90603 0.360374 8.68025 0.458943C10.4545 0.557509 12.1794 0.70536 13.855 0.902495C15.6293 1.00106 17.3542 1.05034 19.0298 1.05034C20.804 1.05034 22.4304 1.00106 23.9089 0.902495C25.3874 0.70536 26.9152 0.557509 28.4923 0.458943C30.168 0.360374 31.9915 0.311089 33.9628 0.311089C34.5542 0.311089 35.0963 0.508224 35.5892 0.902495C36.1806 1.29677 36.4763 1.7896 36.4763 2.38101C36.4763 3.07098 36.1806 3.71167 35.5892 4.30307C34.9978 4.79591 34.3078 5.19018 33.5192 5.48588C32.1393 5.97872 30.9072 6.52084 29.823 7.11224C28.8373 7.70365 28.3445 8.98503 28.3445 10.9564V50.5805C28.3445 52.2561 28.7387 53.4882 29.5273 54.2768C30.4144 55.0653 31.5479 55.4596 32.9278 55.4596H44.9038C46.3823 55.4596 47.5158 55.0653 48.3044 54.2768C49.0929 53.4882 49.4872 52.2561 49.4872 50.5805V10.9564C49.4872 8.98503 48.9943 7.70365 48.0087 7.11224C47.023 6.42227 45.7909 5.88015 44.3124 5.48588C43.5238 5.19018 42.8339 4.79591 42.2425 4.30307C41.6511 3.81024 41.3554 3.16955 41.3554 2.38101C41.3554 1.69103 41.6018 1.1982 42.0946 0.902495C42.686 0.508224 43.2774 0.311089 43.8688 0.311089C45.8402 0.311089 47.6637 0.360374 49.3393 0.458943C51.015 0.557509 52.6413 0.70536 54.2184 0.902495C55.8941 1.00106 57.5697 1.05034 59.2454 1.05034C61.0196 1.05034 62.6952 1.00106 64.2723 0.902495C65.8494 0.70536 67.4757 0.557509 69.1514 0.458943C70.9256 0.360374 72.7984 0.311089 74.7697 0.311089C75.3611 0.311089 75.9525 0.508224 76.544 0.902495C77.1354 1.1982 77.4311 1.69103 77.4311 2.38101C77.4311 3.16955 77.0861 3.81024 76.3961 4.30307C75.8047 4.79591 75.1147 5.19018 74.3262 5.48588C72.8477 5.88015 71.5663 6.42227 70.482 7.11224C69.4964 7.70365 69.0035 8.98503 69.0035 10.9564V52.9461C69.0035 54.8189 69.4964 56.1003 70.482 56.7902C71.5663 57.3817 72.8477 57.9238 74.3262 58.4166C75.1147 58.7123 75.8047 59.1066 76.3961 59.5994C77.0861 59.9937 77.4311 60.5851 77.4311 61.3736C77.4311 62.0636 77.0861 62.6057 76.3961 63C75.8047 63.2957 75.2626 63.4436 74.7697 63.4436C72.7984 63.4436 70.9749 63.345 69.2992 63.1479C67.6236 63.0493 66.0465 62.9507 64.568 62.8521C63.0895 62.7536 61.5124 62.7043 59.8368 62.7043H51.4092C49.3393 62.7043 47.713 63.5421 46.5302 65.2178C45.4459 66.8934 44.6574 69.1112 44.1645 71.8711C43.6717 74.7295 43.2281 78.0315 42.8339 81.7771C42.5382 83.4527 41.996 84.7341 41.2075 85.6212C40.419 86.5083 39.5319 86.9519 38.5462 86.9519Z" fill="#FDF8F2"/>
</svg>
