<svg width="79" height="117" viewBox="0 0 79 117" fill="none" xmlns="http://www.w3.org/2000/svg">
<path d="M36.6708 116.493C31.9026 116.493 28.0215 115.773 25.0275 114.331C22.1444 112.89 20.7029 110.783 20.7029 108.011C20.7029 106.015 21.59 104.185 23.3642 102.522C25.1384 100.858 26.7463 100.027 28.1879 100.027C29.6294 100.027 31.071 100.359 32.5125 101.025C34.0649 101.69 35.4511 102.743 36.6708 104.185C38.1124 106.292 39.3321 107.678 40.3301 108.343C41.3281 109.009 42.3816 109.341 43.4905 109.341C47.8151 109.341 51.1972 105.682 53.6368 98.3632C56.1872 91.0446 57.4624 81.2864 57.4624 69.0887C57.4624 62.2136 56.908 56.7801 55.7991 52.7881C54.8011 48.7961 53.3595 45.9684 51.4744 44.3051C49.5893 42.6418 47.3716 41.8101 44.8211 41.8101C43.2687 41.8101 41.7717 42.0319 40.3301 42.4755C38.8886 42.8081 37.6688 43.418 36.6708 44.3051C35.5619 45.1922 34.7303 46.3011 34.1758 47.6318C33.7323 48.9624 33.5105 50.5149 33.5105 52.2891V60.4394C33.5105 62.1027 34.1204 63.3779 35.3402 64.265C36.5599 65.0413 38.5559 65.8729 41.3281 66.76C42.2152 67.0927 42.936 67.4808 43.4905 67.9243C44.1558 68.3679 44.4885 69.0332 44.4885 69.9203C44.4885 70.6966 44.2112 71.251 43.6568 71.5837C43.2132 71.9163 42.6034 72.0827 41.8271 72.0827C39.7203 72.0827 37.5025 72.0272 35.1738 71.9163C32.9561 71.8054 30.7383 71.6946 28.5205 71.5837C26.4137 71.4728 24.3622 71.4173 22.3662 71.4173C20.4811 71.4173 18.4851 71.4728 16.3782 71.5837C14.3823 71.6946 12.2754 71.8054 10.0576 71.9163C7.95073 72.1381 5.78841 72.249 3.57064 72.249C2.90531 72.249 2.29542 72.0827 1.74098 71.75C1.18654 71.3064 0.909317 70.752 0.909317 70.0867C0.909317 69.1996 1.18654 68.4788 1.74098 67.9243C2.29542 67.3699 3.0162 66.9818 3.9033 66.76C6.56463 66.0947 8.50517 65.3739 9.72495 64.5977C10.9447 63.8215 11.5546 62.4908 11.5546 60.6057V14.5316C11.5546 12.4247 10.9447 10.8168 9.72495 9.70794C8.50517 8.59905 6.45374 7.71195 3.57064 7.04662C2.68353 6.82484 1.96276 6.43673 1.40831 5.88229C0.964762 5.21696 0.742985 4.49619 0.742985 3.71997C0.742985 3.05464 1.02021 2.50019 1.57465 2.05664C2.23998 1.61309 2.90531 1.39131 3.57064 1.39131C6.56463 1.39131 9.61406 1.55764 12.7189 1.89031C15.9347 2.11208 18.9287 2.22297 21.7009 2.22297H49.1458C52.5833 2.22297 55.2446 1.89031 57.1297 1.22498C59.0148 0.559647 60.7891 0.226983 62.4524 0.226983C62.6742 0.226983 63.0068 0.393315 63.4504 0.725979C63.8939 1.05864 64.1157 1.55764 64.1157 2.22297C64.1157 4.10807 63.9494 6.38129 63.6167 9.04261C63.3949 11.7039 63.284 13.9771 63.284 15.8622C63.284 17.4147 63.1177 19.0226 62.785 20.6859C62.5633 22.2383 61.8979 23.0145 60.7891 23.0145C60.0128 23.0145 59.403 22.7373 58.9594 22.1829C58.5158 21.6284 58.0723 20.6859 57.6287 19.3552C56.8525 16.583 55.6327 14.2544 53.9694 12.3693C52.417 10.4842 50.3655 9.54161 47.8151 9.54161C47.0389 9.54161 45.93 9.54161 44.4885 9.54161C43.0469 9.54161 41.6054 9.54161 40.1638 9.54161C38.7223 9.54161 37.6134 9.54161 36.8372 9.54161C35.2847 9.54161 34.3422 10.096 34.0095 11.2049C33.6768 12.2029 33.5105 13.2564 33.5105 14.3652V34.1588C33.5105 35.1568 33.566 36.1548 33.6768 37.1528C33.7877 38.0399 34.0095 38.6498 34.3422 38.9825C35.1184 38.0954 36.5599 36.931 38.6668 35.4895C40.8846 34.0479 43.4905 32.8282 46.4844 31.8302C49.5893 30.7213 52.8051 30.1669 56.1317 30.1669C61.4544 30.1669 65.779 31.3866 69.1057 33.8262C72.5432 36.1548 75.0382 39.6478 76.5907 44.3051C78.1431 48.8515 78.9193 54.4514 78.9193 61.1047C78.9193 67.9798 78.0322 74.6885 76.258 81.231C74.4838 87.8843 71.8225 93.8722 68.274 99.1949C64.7256 104.518 60.2901 108.731 54.9674 111.836C49.7557 114.941 43.6568 116.493 36.6708 116.493Z" fill="#FDF8F2"/>
</svg>
