<svg width="54" height="105" viewBox="0 0 54 105" fill="none" xmlns="http://www.w3.org/2000/svg">
<path d="M24.7181 65.9221C21.5639 65.9221 18.2126 65.6756 14.6642 65.1828C11.2143 64.69 8.15876 63.8521 5.49744 62.6693C2.93468 61.4865 1.40689 60.008 0.914048 58.2338C0.519778 55.9668 0.27336 53.8968 0.174792 52.0241C0.0762246 50.0527 0.0269409 48.2292 0.0269409 46.5536C0.0269409 43.7937 0.766197 42.4137 2.24471 42.4137C2.63898 42.4137 3.08253 42.9066 3.57537 43.8922C4.16677 44.7793 4.65961 45.765 5.05388 46.8493C6.43383 50.2991 8.01091 52.9112 9.78512 54.6854C11.6579 56.4596 13.58 57.6917 15.5513 58.3817C17.5227 58.9731 19.2969 59.2688 20.874 59.2688C23.5353 59.2688 25.8023 58.1845 27.6751 56.016C29.6465 53.749 30.6321 50.8412 30.6321 47.2928C30.6321 44.0401 30.09 41.1323 29.0058 38.5696C27.9215 36.0068 25.9009 34.7255 22.9439 34.7255C22.1553 34.7255 21.1697 34.9226 19.9869 35.3169C18.804 35.7111 17.4734 35.9083 15.9949 35.9083C14.9106 35.9083 13.6785 35.6126 12.2986 35.0212C10.9186 34.4298 10.2287 33.2962 10.2287 31.6206C10.2287 29.9449 10.7708 28.8114 11.855 28.22C12.9393 27.53 14.3685 27.1851 16.1427 27.1851C17.227 27.1851 18.3112 27.3329 19.3954 27.6286C20.4797 27.8257 21.8104 27.9243 23.3874 27.9243C25.9502 27.9243 27.8723 26.9386 29.1536 24.9673C30.435 22.9959 31.0757 20.4825 31.0757 17.4269C31.0757 14.9627 30.6321 12.9421 29.745 11.365C28.9565 9.68932 27.8723 8.45723 26.4923 7.66869C25.1124 6.78158 23.6339 6.33803 22.0568 6.33803C19.1983 6.33803 16.8327 7.07729 14.9599 8.5558C13.1857 9.93574 11.4115 12.1042 9.63727 15.0612C8.9473 16.3426 8.20804 17.8704 7.4195 19.6446C6.63096 21.4189 5.74385 22.306 4.75818 22.306C3.7725 22.306 3.23038 21.961 3.13182 21.271C3.03325 20.581 2.98396 19.7432 2.98396 18.7575C2.98396 16.9833 3.03325 15.4062 3.13182 14.0263C3.32895 12.5478 3.62465 10.8721 4.01892 8.99935C4.21606 8.21081 4.51176 7.42227 4.90603 6.63373C5.3003 5.74663 5.84242 5.15522 6.53239 4.85952C8.70088 3.97241 11.4608 2.98674 14.8121 1.9025C18.1634 0.719686 22.4018 0.128282 27.5273 0.128282C34.3284 0.128282 39.996 1.40966 44.5302 3.97241C49.0643 6.53517 51.3313 10.5271 51.3313 15.9484C51.3313 18.9054 50.6906 21.3203 49.4092 23.1931C48.1279 24.9673 46.5015 26.3965 44.5302 27.4808C42.5588 28.4664 40.5382 29.3043 38.4683 29.9942C37.9754 30.0928 37.6304 30.3392 37.4333 30.7335C37.3347 31.0292 37.6304 31.2756 38.3204 31.4727C42.4602 32.3598 46.0087 33.9862 48.9657 36.3518C52.0213 38.6189 53.5491 41.9702 53.5491 46.4057C53.5491 49.6584 52.7113 52.5169 51.0356 54.9811C49.4585 57.4453 47.29 59.5152 44.5302 61.1908C41.8688 62.7679 38.8132 63.9507 35.3634 64.7393C31.9135 65.5278 28.3651 65.9221 24.7181 65.9221ZM18.5083 104.511C16.3399 104.511 14.7135 104.068 13.6293 103.181C12.545 102.293 12.0029 100.371 12.0029 97.4144C12.0029 96.0344 12.2 95.098 12.5943 94.6052C13.0871 94.1124 13.7278 93.8659 14.5164 93.8659C15.6992 93.8659 17.0298 94.2602 18.5083 95.0488C20.0854 95.8373 22.0568 96.2316 24.4224 96.2316C25.9009 96.2316 26.9851 95.6894 27.6751 94.6052C28.3651 93.6195 28.7101 92.1903 28.7101 90.3175C28.7101 88.2476 27.823 86.6705 26.0488 85.5863C24.2745 84.502 22.4018 83.9599 20.4304 83.9599C19.149 83.9599 18.1634 84.2063 17.4734 84.6992C16.882 85.192 16.2413 85.4384 15.5513 85.4384C14.9599 85.4384 14.2699 85.0934 13.4814 84.4035C12.6929 83.8121 12.2986 82.9742 12.2986 81.89C12.2986 81.0029 12.9886 79.7708 14.3685 78.1937L27.6751 62.8172H34.1806L28.8579 69.1748C28.3651 69.8648 28.1187 70.3576 28.1187 70.6533C28.1187 71.1461 28.7101 71.6883 29.8929 72.2797C32.3571 73.3639 34.3284 74.8917 35.8069 76.8631C37.2854 78.8344 38.0247 81.4464 38.0247 84.6992C38.0247 87.2619 37.3347 89.7261 35.9548 92.0917C34.6734 94.4573 33.047 96.5765 31.0757 98.4493C29.1043 100.322 26.9851 101.801 24.7181 102.885C22.5496 103.969 20.4797 104.511 18.5083 104.511Z" fill="#FDF8F2"/>
</svg>
