<svg width="96" height="65" viewBox="0 0 96 65" fill="none" xmlns="http://www.w3.org/2000/svg">
<path d="M3.0619 64.4436C2.47049 64.4436 1.82981 64.2957 1.13983 64C0.449861 63.6057 0.104875 63.0636 0.104875 62.3736C0.104875 61.5851 0.449861 60.9937 1.13983 60.5994C1.92837 60.1066 2.71691 59.7123 3.50545 59.4166C4.98397 58.9238 6.26534 58.3817 7.34958 57.7902C8.53239 57.1003 9.1238 55.7203 9.1238 53.6504V12.1042C9.1238 10.1329 8.53239 8.80222 7.34958 8.11224C6.26534 7.42227 4.98397 6.88015 3.50545 6.48588C2.71691 6.19018 1.92837 5.79591 1.13983 5.30307C0.449861 4.81024 0.104875 4.16955 0.104875 3.38101C0.104875 2.69103 0.449861 2.1982 1.13983 1.9025C1.92837 1.50822 2.61835 1.31109 3.20975 1.31109C5.1811 1.31109 7.05388 1.36037 8.8281 1.45894C10.6023 1.55751 12.3272 1.70536 14.0029 1.9025C15.7771 2.00106 17.502 2.05034 19.1777 2.05034C20.9519 2.05034 22.5783 2.00106 24.0568 1.9025C25.5353 1.70536 27.0631 1.55751 28.6402 1.45894C30.2172 1.36037 31.9915 1.31109 33.9628 1.31109C34.5542 1.31109 35.1456 1.50822 35.737 1.9025C36.3284 2.29677 36.6241 2.7896 36.6241 3.38101C36.6241 4.07098 36.3284 4.71167 35.737 5.30307C35.1456 5.79591 34.4556 6.19018 33.6671 6.48588C32.2872 6.97872 31.0551 7.52084 29.9708 8.11224C28.9851 8.70365 28.4923 9.98503 28.4923 11.9564V24.9673C28.4923 26.6429 28.9359 27.7272 29.823 28.22C30.7101 28.7128 31.745 28.9593 32.9278 28.9593H47.1216C48.3044 28.9593 49.29 28.7128 50.0786 28.22C50.8671 27.7272 51.2614 26.6429 51.2614 24.9673V11.9564C51.2614 9.98503 50.7686 8.70365 49.7829 8.11224C48.8958 7.52084 47.713 6.97872 46.2344 6.48588C45.4459 6.19018 44.7559 5.79591 44.1645 5.30307C43.5731 4.81024 43.2774 4.16955 43.2774 3.38101C43.2774 2.69103 43.5731 2.1982 44.1645 1.9025C44.7559 1.50822 45.3473 1.31109 45.9388 1.31109C47.9101 1.31109 49.6843 1.36037 51.2614 1.45894C52.937 1.55751 54.5634 1.70536 56.1405 1.9025C57.7176 2.00106 59.3439 2.05034 61.0196 2.05034L81.8666 2.1982C84.8236 2.1982 87.14 1.9025 88.8156 1.31109C90.4912 0.719686 92.0683 0.423985 93.5468 0.423985C93.744 0.423985 94.0397 0.571835 94.4339 0.867537C94.8282 1.16324 95.0254 1.60679 95.0254 2.1982C95.0254 3.87384 94.8775 6.19018 94.5818 9.1472C94.3847 12.1042 94.2861 14.5684 94.2861 16.5398C94.2861 18.2154 94.1875 19.9403 93.9904 21.7146C93.7933 23.3902 93.1526 24.228 92.0683 24.228C90.7869 24.228 89.8998 22.8974 89.407 20.236C89.1113 18.659 88.5692 16.9833 87.7806 15.2091C86.9921 13.4349 85.9571 11.9071 84.6758 10.6257C83.493 9.34434 82.113 8.70365 80.5359 8.70365C79.846 8.70365 79.1067 8.70365 78.3182 8.70365C77.5296 8.70365 76.7411 8.70365 75.9525 8.70365C75.164 8.70365 74.4247 8.70365 73.7348 8.70365C72.3548 8.70365 71.517 9.19649 71.2213 10.1822C70.9256 11.0693 70.7777 12.0057 70.7777 12.9913V53.7983C70.7777 55.7696 71.3199 57.1003 72.4041 57.7902C73.5869 58.3817 74.9176 58.9238 76.3961 59.4166C77.1846 59.7123 77.8746 60.1066 78.466 60.5994C79.156 60.9937 79.501 61.5851 79.501 62.3736C79.501 63.0636 79.2053 63.6057 78.6139 64C78.0225 64.2957 77.4311 64.4436 76.8396 64.4436C74.8683 64.4436 72.9955 64.345 71.2213 64.1479C69.5457 64.0493 67.87 63.9507 66.1944 63.8521C64.6173 63.7536 62.9416 63.7043 61.1674 63.7043C59.4918 63.7043 57.8161 63.7536 56.1405 63.8521C54.5634 63.9507 52.8878 64.0493 51.1135 64.1479C49.4379 64.345 47.6144 64.4436 45.643 64.4436C45.0516 64.4436 44.4602 64.2957 43.8688 64C43.376 63.6057 43.1296 63.0636 43.1296 62.3736C43.1296 61.5851 43.4253 60.9444 44.0167 60.4516C44.6081 59.9587 45.2981 59.6137 46.0866 59.4166C47.5651 58.9238 48.7972 58.3817 49.7829 57.7902C50.7686 57.1003 51.2614 55.7696 51.2614 53.7983V39.9003C51.2614 38.126 50.8671 36.9925 50.0786 36.4997C49.29 36.0068 48.3044 35.7604 47.1216 35.7604H32.78C31.5972 35.7604 30.5622 36.0561 29.6751 36.6475C28.8866 37.1404 28.4923 38.2246 28.4923 39.9003V53.7983C28.4923 55.7696 29.0344 57.1003 30.1187 57.7902C31.2029 58.3817 32.435 58.9238 33.8149 59.4166C34.6035 59.7123 35.2935 60.1066 35.8849 60.5994C36.4763 60.9937 36.772 61.5851 36.772 62.3736C36.772 62.965 36.4763 63.4579 35.8849 63.8521C35.2935 64.2464 34.7021 64.4436 34.1107 64.4436C32.2379 64.4436 30.4637 64.345 28.788 64.1479C27.1124 64.0493 25.5353 63.9507 24.0568 63.8521C22.5783 63.7536 20.9519 63.7043 19.1777 63.7043C17.502 63.7043 15.7771 63.7536 14.0029 63.8521C12.3272 63.9507 10.553 64.0493 8.68025 64.1479C6.90603 64.345 5.03325 64.4436 3.0619 64.4436Z" fill="#FDF8F2"/>
</svg>
