<svg width="77" height="67" viewBox="0 0 77 67" fill="none" xmlns="http://www.w3.org/2000/svg">
<path d="M34.1107 65.3307C27.7038 65.3307 21.9376 64 16.8121 61.3387C11.7851 58.6774 7.79314 55.0304 4.83611 50.3977C1.97766 45.6665 0.548429 40.2945 0.548429 34.2819C0.548429 27.875 2.07622 22.1088 5.13182 16.9833C8.28598 11.8578 12.4751 7.76726 17.6992 4.71167C22.9232 1.65608 28.7387 0.128282 35.1456 0.128282C39.8769 0.128282 44.066 0.621118 47.713 1.60679C51.36 2.4939 54.4156 4.26811 56.8797 6.92944C57.7668 7.91511 58.2104 8.80222 58.2104 9.59076C58.2104 10.2807 57.7668 11.1678 56.8797 12.2521C56.0912 13.2378 55.1548 14.1741 54.0706 15.0612C52.9863 15.8498 52.0006 16.2441 51.1135 16.2441C50.2264 16.2441 49.3886 15.9976 48.6001 15.5048C47.8115 14.9134 47.023 14.322 46.2344 13.7306C43.5731 11.5621 40.9118 10.0836 38.2505 9.29506C35.6877 8.40795 33.47 7.9644 31.5972 7.9644C27.8516 7.9644 24.9932 9.49219 23.0218 12.5478C21.149 15.6034 20.2126 20.6303 20.2126 27.6286C20.2126 34.0355 21.0505 39.3581 22.7261 43.5965C24.4018 47.7364 26.7674 50.792 29.823 52.7633C32.8786 54.7347 36.3777 55.7203 40.3204 55.7203C44.2631 55.7203 47.6144 54.9318 50.3743 53.3547C53.1342 51.6791 55.2041 49.6091 56.584 47.145C58.0625 44.5822 58.8018 41.9702 58.8018 39.3088C58.8018 35.4647 58.0133 32.5077 56.4362 30.4378C54.8591 28.2693 52.6906 27.1851 49.9307 27.1851C47.2694 27.1851 45.1502 28.3186 43.5731 30.5856C42.0946 32.7541 41.3554 35.4647 41.3554 38.7174C41.3554 42.463 41.996 45.9129 43.2774 49.067C44.5588 52.2212 46.4809 54.7347 49.0436 56.6074C51.6064 58.4802 54.8591 59.4166 58.8018 59.4166C61.3646 59.4166 63.7302 58.9238 65.8987 57.9381C68.1657 56.8539 70.3835 55.1782 72.552 52.9112C73.6362 51.7284 74.474 51.3834 75.0654 51.8762C75.7554 52.2705 76.1497 52.9604 76.2482 53.9461C76.3468 54.9318 76.199 55.7696 75.8047 56.4596C73.3405 59.9095 70.2849 62.3736 66.6379 63.8521C62.9909 65.3307 59.2946 66.0699 55.5491 66.0699C51.2121 66.0699 47.023 65.1335 42.9817 63.2607C38.9405 61.2894 35.5892 58.5788 32.9278 55.1289C30.3651 51.5805 29.0837 47.4899 29.0837 42.8573C29.0837 39.9003 29.9215 36.6968 31.5972 33.247C33.3714 29.7971 35.8849 26.8893 39.1376 24.5237C42.4889 22.0595 46.4316 20.8274 50.9657 20.8274C55.3027 20.8274 58.9004 21.7638 61.7588 23.6366C64.6173 25.5094 66.7365 27.875 68.1164 30.7335C69.4964 33.5919 70.1863 36.5982 70.1863 39.7524C70.1863 44.0894 68.7078 48.2292 65.7508 52.1719C62.7938 56.016 58.6047 59.1702 53.1835 61.6344C47.8608 64.0986 41.5032 65.3307 34.1107 65.3307Z" fill="#FDF8F2"/>
</svg>
