<svg width="72" height="116" viewBox="0 0 72 116" fill="none" xmlns="http://www.w3.org/2000/svg">
<path d="M41.2505 115.847V92.7822H48.9388V115.847H41.2505ZM29.7181 58.0372C27.8453 58.0372 25.6768 57.7415 23.2126 57.1501C20.847 56.5587 18.3828 55.6223 15.8201 54.3409C13.3559 53.0595 11.1381 51.3839 9.16677 49.314C6.70259 46.8498 4.68195 44.0899 3.10488 41.0343C1.62636 37.9787 0.887107 35.071 0.887107 32.3111C0.887107 29.8469 1.5278 28.0234 2.80917 26.8406C4.09055 25.6578 5.56906 25.0664 7.24471 25.0664C9.11749 25.0664 10.7439 25.6085 12.1238 26.6927C13.5037 27.6784 14.1937 29.1569 14.1937 31.1283C14.1937 31.8183 14.0951 32.6068 13.898 33.4939C13.7009 34.381 13.3066 35.2188 12.7152 36.0074C12.0252 37.0916 11.4338 38.1266 10.941 39.1122C10.4482 40.0979 10.2017 40.985 10.2017 41.7736C10.2017 43.0549 10.6946 44.3363 11.6802 45.6177C12.6659 46.8005 14.3416 47.7862 16.7072 48.5747C19.0728 49.3633 22.3255 49.7575 26.4654 49.7575L29.7181 58.0372ZM43.9118 97.0699C38.5892 97.0699 33.8086 95.69 29.5702 92.9301C25.4304 90.0716 22.1284 86.2275 19.6642 81.3977C17.2986 76.4693 16.1158 70.9003 16.1158 64.6905C16.1158 58.4808 17.545 52.8624 20.4035 47.8355C23.2619 42.71 27.1553 38.6687 32.0837 35.7117C37.0121 32.6561 42.4333 31.1283 48.3473 31.1283C52.5857 31.1283 56.3806 32.0647 59.7319 33.9375C63.0832 35.7117 65.7445 38.1266 67.7159 41.1822C69.7858 44.2378 70.8207 47.6876 70.8207 51.5317C70.8207 55.2773 69.2929 57.1501 66.2373 57.1501H36.6671C35.2872 57.1501 34.2522 57.5444 33.5622 58.3329C32.9708 59.1214 32.6751 60.4521 32.6751 62.3249C32.6751 66.0704 33.5129 69.5203 35.1886 72.6745C36.8642 75.7301 39.1313 78.145 41.9897 79.9192C44.8482 81.6934 48.1502 82.5805 51.8958 82.5805C54.7542 82.5805 57.3663 82.0384 59.7319 80.9541C62.1961 79.8699 64.611 78.3914 66.9766 76.5186C67.3709 76.2229 67.7159 75.9765 68.0116 75.7793C68.4058 75.4836 68.7508 75.3358 69.0465 75.3358C70.0322 75.3358 70.525 75.9765 70.525 77.2579C70.525 78.3421 70.1308 79.8206 69.3422 81.6934C68.3565 84.1576 66.6809 86.6218 64.3153 89.086C62.0482 91.4516 59.1898 93.3736 55.7399 94.8521C52.29 96.3307 48.3473 97.0699 43.9118 97.0699ZM36.6671 50.9403H45.5382C48.2981 50.9403 50.2201 50.8911 51.3044 50.7925C52.3886 50.6939 53.3743 50.4968 54.2614 50.2011C54.7542 50.004 55.1485 49.5111 55.4442 48.7226C55.7399 47.934 55.8878 47.0469 55.8878 46.0612C55.8878 43.3999 54.9514 41.2314 53.0786 39.5558C51.3044 37.8802 49.0866 37.0423 46.4253 37.0423C44.3554 37.0423 42.384 37.6337 40.5112 38.8165C38.737 39.9008 37.2585 41.3793 36.0757 43.2521C34.9915 45.0263 34.4986 46.8991 34.5972 48.8704C34.5972 50.2504 35.2872 50.9403 36.6671 50.9403ZM61.0625 21.9615C58.2041 21.9615 55.6906 20.9265 53.5221 18.8566C51.4522 16.6881 50.4173 14.224 50.4173 11.4641C50.4173 8.40848 51.4522 5.84572 53.5221 3.77581C55.6906 1.70589 58.2041 0.670935 61.0625 0.670935C64.1181 0.670935 66.6809 1.70589 68.7508 3.77581C70.9193 5.84572 72.0035 8.40848 72.0035 11.4641C72.0035 14.224 70.9193 16.6881 68.7508 18.8566C66.6809 20.9265 64.1181 21.9615 61.0625 21.9615ZM32.2316 21.9615C29.3731 21.9615 26.9089 20.9265 24.839 18.8566C22.7691 16.6881 21.7341 14.224 21.7341 11.4641C21.7341 8.40848 22.7691 5.84572 24.839 3.77581C26.9089 1.70589 29.3731 0.670935 32.2316 0.670935C35.3857 0.670935 37.9978 1.70589 40.0677 3.77581C42.2362 5.84572 43.3204 8.40848 43.3204 11.4641C43.3204 14.224 42.2362 16.6881 40.0677 18.8566C37.9978 20.9265 35.3857 21.9615 32.2316 21.9615Z" fill="#FDF8F2"/>
</svg>
