<svg width="56" height="98" viewBox="0 0 56 98" fill="none" xmlns="http://www.w3.org/2000/svg">
<path d="M24.0568 97.2178C19.1284 97.2178 14.89 96.3307 11.3416 94.5564C7.89171 92.6837 5.1811 90.2688 3.20975 87.3117C1.33697 84.3547 0.400578 81.2498 0.400578 77.9971C0.400578 76.1243 0.745564 74.498 1.43554 73.118C2.12551 71.7381 3.20975 70.7031 4.68826 70.0131C6.26534 69.2246 8.43383 68.8303 11.1937 68.8303H34.8499C36.1313 68.8303 37.0677 68.5346 37.6591 67.9432C38.3491 67.2533 38.694 65.824 38.694 63.6555C38.694 60.4028 37.9548 57.5936 36.4763 55.228C35.0963 52.8624 33.125 51.0389 30.5622 49.7575C28.098 48.4762 25.141 47.8355 21.6912 47.8355C18.1427 47.8355 15.235 48.4269 12.9679 49.6097C10.7994 50.7925 8.97595 51.926 7.49744 53.0103C6.7089 53.4045 5.96964 53.7988 5.27967 54.1931C4.5897 54.5873 4.04757 54.7845 3.6533 54.7845C2.96333 54.7845 2.42121 54.4888 2.02694 53.8974C1.63267 53.306 1.43554 52.5667 1.43554 51.6796C1.43554 48.8211 2.61835 45.8148 4.98396 42.6607C7.44815 39.4079 10.7994 36.6481 15.0378 34.381C19.3748 32.114 24.3525 30.9804 29.9708 30.9804C34.6035 30.9804 38.8419 32.3111 42.686 34.9724C46.6287 37.6337 49.7829 41.2807 52.1485 45.9134C54.5141 50.5461 55.6969 55.918 55.6969 62.0292C55.6969 68.2389 54.2677 74.0051 51.4092 79.3278C48.6494 84.6504 44.9038 88.9874 40.1726 92.3387C35.4413 95.5914 30.0694 97.2178 24.0568 97.2178ZM25.2396 91.3037C27.2109 91.3037 28.9851 90.7123 30.5622 89.5295C32.2379 88.2481 33.5685 86.6218 34.5542 84.6504C35.5399 82.5805 36.082 80.3134 36.1806 77.8493C36.1806 77.0607 35.9834 76.3707 35.5892 75.7793C35.2935 75.0894 34.7513 74.7444 33.9628 74.7444H26.2745C24.3032 74.7444 22.6275 74.7937 21.2476 74.8922C19.8677 74.9908 18.6356 75.2372 17.5513 75.6315C17.2556 75.7301 16.9599 76.075 16.6642 76.6665C16.3685 77.2579 16.1221 77.9478 15.925 78.7364C15.8264 79.5249 15.7771 80.3627 15.7771 81.2498C15.7771 82.8269 16.0728 84.404 16.6642 85.9811C17.3542 87.4596 18.3891 88.741 19.7691 89.8252C21.2476 90.8109 23.0711 91.3037 25.2396 91.3037ZM42.8339 21.9615C39.9754 21.9615 37.4619 20.9265 35.2935 18.8566C33.2235 16.7867 32.1886 14.3225 32.1886 11.4641C32.1886 8.50705 33.2235 5.99357 35.2935 3.92365C37.4619 1.85374 39.9754 0.818784 42.8339 0.818784C45.8895 0.818784 48.4522 1.85374 50.5221 3.92365C52.6906 5.99357 53.7749 8.50705 53.7749 11.4641C53.7749 14.3225 52.6906 16.7867 50.5221 18.8566C48.4522 20.9265 45.8895 21.9615 42.8339 21.9615ZM14.0029 21.9615C11.1444 21.9615 8.68025 20.9265 6.61033 18.8566C4.54041 16.7867 3.50545 14.3225 3.50545 11.4641C3.50545 8.50705 4.54041 5.99357 6.61033 3.92365C8.68025 1.85374 11.1444 0.818784 14.0029 0.818784C17.157 0.818784 19.7691 1.85374 21.839 3.92365C24.0075 5.99357 25.0917 8.50705 25.0917 11.4641C25.0917 14.3225 24.0075 16.7867 21.839 18.8566C19.7691 20.9265 17.157 21.9615 14.0029 21.9615Z" fill="#FDF8F2"/>
</svg>
