<svg width="56" height="106" viewBox="0 0 56 106" fill="none" xmlns="http://www.w3.org/2000/svg">
<path d="M9.42551 105.881C7.50345 105.881 5.65531 105.216 3.88109 103.885C2.10688 102.555 1.21977 100.891 1.21977 98.8954C1.21977 97.4909 1.5894 96.0863 2.32866 94.6817C3.06791 93.351 4.21376 92.6857 5.7662 92.6857C6.94901 92.6857 8.13182 92.8705 9.31463 93.2401C10.5714 93.6837 11.7542 93.8685 12.8631 93.7946C13.9719 93.6467 14.7482 93.351 15.1917 92.9075C15.6353 92.5378 16.1527 91.7986 16.7441 90.6897C17.2616 89.8026 17.7421 88.9155 18.1857 88.0284C18.7032 87.2152 19.2576 86.1433 19.849 84.8126C20.5144 83.5559 21.3275 81.8926 22.2886 79.8226C23.1757 77.8267 23.6192 76.0524 23.6192 74.5C23.6192 73.3911 23.4344 72.3931 23.0648 71.506C22.7691 70.545 22.4364 69.6209 22.0668 68.7338L8.42752 37.7959C7.76219 36.0957 7.02293 34.6911 6.20975 33.5822C5.39657 32.4733 4.28768 31.6971 2.8831 31.2535C2.21777 30.9578 1.70029 30.6621 1.33066 30.3664C0.961033 29.9968 0.776219 29.4793 0.776219 28.814C0.776219 28.2965 1.10888 27.9638 1.77421 27.816C2.43954 27.6681 3.03095 27.5942 3.54843 27.5942C5.32264 27.5942 6.80116 27.6312 7.98397 27.7051C9.2407 27.779 10.3496 27.8529 11.3106 27.9269C12.2716 28.0008 13.2327 28.0378 14.1937 28.0378C15.8201 28.0378 17.1877 28.0008 18.2966 27.9269C19.4055 27.8529 20.5883 27.779 21.845 27.7051C23.1018 27.6312 24.5803 27.5942 26.2806 27.5942C26.798 27.5942 27.3525 27.7051 27.9439 27.9269C28.5353 28.1486 28.831 28.5183 28.831 29.0358C28.831 29.7011 28.5353 30.1816 27.9439 30.4773C27.4264 30.6991 26.872 30.9578 26.2806 31.2535C25.4674 31.5492 24.839 31.9928 24.3954 32.5842C23.9519 33.1756 23.7301 34.1366 23.7301 35.4673C23.7301 36.0587 23.804 36.761 23.9519 37.5742C24.1737 38.3873 24.5063 39.3853 24.9499 40.5681L31.825 57.3123C31.8989 57.5341 32.0098 57.645 32.1576 57.645C32.2316 57.645 32.3425 57.5341 32.4903 57.3123L38.1456 40.3464C38.3674 39.755 38.5522 39.0527 38.7001 38.2395C38.9218 37.3524 39.0327 36.5762 39.0327 35.9108C39.0327 34.6541 38.6631 33.6561 37.9238 32.9168C37.1846 32.1037 36.4084 31.5492 35.5952 31.2535C35.0038 31.0317 34.4124 30.773 33.821 30.4773C33.3035 30.1816 33.0447 29.7011 33.0447 29.0358C33.0447 28.5183 33.3404 28.1486 33.9319 27.9269C34.5233 27.7051 35.0777 27.5942 35.5952 27.5942C37.5912 27.6681 39.1436 27.779 40.2525 27.9269C41.3614 28.0008 42.5072 28.0378 43.69 28.0378C44.4293 28.0378 45.0946 28.0378 45.686 28.0378C46.3514 27.9638 47.1276 27.8899 48.0147 27.816C48.9018 27.7421 49.9737 27.6681 51.2304 27.5942C51.7479 27.5942 52.3024 27.6681 52.8938 27.816C53.5591 27.9638 53.8918 28.2965 53.8918 28.814C53.8918 29.4793 53.707 29.9968 53.3373 30.3664C53.0416 30.6621 52.5611 30.9578 51.8958 31.2535C50.4912 31.6971 49.2345 32.5472 48.1256 33.804C47.0167 34.9868 46.0926 36.4283 45.3534 38.1286L28.831 77.8267C28.2396 79.3052 27.5742 80.8946 26.835 82.5949C26.0957 84.3691 25.3195 86.1802 24.5063 88.0284C23.7671 89.8765 22.9909 91.7616 22.1777 93.6837C21.3645 95.6058 20.5513 97.4909 19.7381 99.339C18.851 101.483 17.4834 103.109 15.6353 104.218C13.7871 105.327 11.7172 105.881 9.42551 105.881ZM36.3714 23.7131C36.0757 23.7131 35.817 23.6022 35.5952 23.3804C35.3734 23.0847 35.2625 22.6782 35.2625 22.1607C35.2625 21.6432 35.3364 21.1627 35.4843 20.7191C35.7061 20.2016 36.0018 19.4994 36.3714 18.6122C36.8889 17.5034 37.5912 15.9879 38.4783 14.0658C39.4393 12.0698 40.4003 10.0738 41.3614 8.07785C42.3963 6.00793 43.1726 4.41853 43.69 3.30965C44.6511 1.4615 46.0187 0.537433 47.7929 0.537433C50.0107 0.537433 51.7849 0.833136 53.1155 1.42454C54.4462 1.94202 55.1115 2.75521 55.1115 3.86409C55.1115 4.30764 54.9637 4.7512 54.668 5.19475C54.3723 5.56438 54.1505 5.89704 54.0027 6.19274C52.7459 7.89303 51.2304 9.70421 49.4562 11.6263C47.7559 13.4744 46.0187 15.3226 44.2445 17.1707C42.4703 18.9449 40.8069 20.6082 39.2545 22.1607C38.8849 22.5303 38.4043 22.8999 37.8129 23.2696C37.2955 23.5653 36.8149 23.7131 36.3714 23.7131ZM20.6252 23.7131C20.3295 23.7131 20.0708 23.6022 19.849 23.3804C19.6272 23.0847 19.5164 22.6782 19.5164 22.1607C19.5164 21.791 19.5533 21.3105 19.6272 20.7191C19.7751 20.1277 20.0708 19.2776 20.5144 18.1687C20.9579 17.1337 21.5493 15.6552 22.2886 13.7332C23.1018 11.8111 23.9149 9.88903 24.7281 7.96696C25.5413 6.04489 26.1697 4.52942 26.6132 3.42053C27.5003 1.27669 28.9419 0.204772 30.9379 0.204772C33.2296 0.204772 35.0038 0.426548 36.2605 0.8701C37.5172 1.31365 38.1456 2.08987 38.1456 3.19876C38.1456 3.56839 38.0347 3.93802 37.8129 4.30764C37.5912 4.67727 37.4064 5.0469 37.2585 5.41653C36.1496 7.11681 34.782 8.96495 33.1556 10.9609C31.6032 12.883 29.9768 14.7681 28.2765 16.6163C26.5763 18.4644 25.0238 20.2016 23.6192 21.828C23.1757 22.3455 22.6582 22.789 22.0668 23.1587C21.5493 23.5283 21.0688 23.7131 20.6252 23.7131Z" fill="#FDF8F2"/>
</svg>
